<?xml version="1.0" encoding="utf-8"?>
<!-- Generator: Adobe Illustrator 24.2.0, SVG Export Plug-In . SVG Version: 6.00 Build 0)  -->
<svg version="1.1" id="Layer_1" xmlns="http://www.w3.org/2000/svg" xmlns:xlink="http://www.w3.org/1999/xlink" x="0px" y="0px"
	 viewBox="0 0 218.3 91.2" style="enable-background:new 0 0 218.3 91.2;" xml:space="preserve">
<style type="text/css">
	.st0{fill:#001E00;}
	.st1{clip-path:url(#SVGID_2_);}
	.st2{fill:#FBC5E4;}
	.st3{fill:#14A800;}
	.st4{fill:#AC5583;}
	.st5{fill:#F999D0;}
	.st6{fill:#FFFFFF;}
</style>
<g>
	<g>
		<g>
			<path class="st0" d="M118.2,36.3h-7.6l-1.5,4.4H106l6.8-18.6h3.2l6.8,18.6h-3.1L118.2,36.3z M111.5,33.7h5.9l-2.9-8.8h-0.1
				L111.5,33.7z"/>
			<path class="st0" d="M124.3,40.7V22.1h7.9c3.6,0,6.1,1.7,6.1,5.6s-2.6,5.6-6.1,5.6h-4.8v7.4H124.3z M127.4,24.7v5.9h4.7
				c2.1,0,3.2-0.9,3.2-2.9s-1.1-2.9-3.2-2.9h-4.7C127.4,24.8,127.4,24.7,127.4,24.7z"/>
			<path class="st0" d="M142.9,29.8h9.1v2.7h-9.1v5.6h10.6v2.6h-13.7V22.1h13.4v2.6h-10.3V29.8z"/>
			<path class="st0" d="M161,31.2l-5.8-9.1h3.4l4.2,6.9l0,0l4.2-6.9h3.4l-5.8,9l6.3,9.5h-3.6l-4.4-7.3l0,0l-4.4,7.3h-3.6L161,31.2z"
				/>
		</g>
		<g>
			<path class="st0" d="M112,54h-3.8l-0.8,2.2h-1.6l3.4-9.3h1.6l3.4,9.3h-1.6L112,54z M108.7,52.7h3l-1.5-4.4l0,0L108.7,52.7z"/>
			<path class="st0" d="M120.4,54.4c0,1.3-1.1,2.1-2.7,2.1c-2.1,0-3.1-1-3.1-2.4h1.3c0.1,0.7,0.4,1.3,1.8,1.3c0.9,0,1.4-0.5,1.4-0.9
				c0-0.8-0.8-0.9-1.8-1.1c-1.1-0.2-2.5-0.5-2.5-2c0-1.1,1-2,2.6-2c1.8,0,2.7,1,2.8,2.1h-1.3c-0.1-0.5-0.4-1.1-1.4-1.1
				c-0.8,0-1.3,0.3-1.3,0.8c0,0.7,0.7,0.7,1.7,0.9C119.1,52.5,120.4,52.8,120.4,54.4z"/>
			<path class="st0" d="M121.4,47.7c0-0.5,0.4-0.7,0.8-0.7s0.8,0.2,0.8,0.7s-0.4,0.7-0.8,0.7C121.7,48.5,121.4,48.2,121.4,47.7z
				 M121.4,49.6h1.4v6.6h-1.4V49.6z"/>
			<path class="st0" d="M127,50.5c-1.1,0-1.5,0.3-1.6,1.2h-1.3c0.1-1.3,0.9-2.3,2.9-2.3c1.5,0,2.6,0.6,2.6,2.3v3.2
				c0,0.5,0.1,0.7,0.6,0.7v0.7c-0.3,0.1-0.5,0.1-0.8,0.1c-0.7,0-1.1-0.3-1.2-0.9l0,0c-0.4,0.6-1.2,1-2.2,1c-1.4,0-2.2-0.8-2.2-1.9
				c0-1.5,1.1-1.9,2.7-2.2c1-0.2,1.7-0.3,1.7-1C128.2,50.8,127.9,50.5,127,50.5z M128.2,53.7v-1c-0.2,0.2-0.8,0.3-1.4,0.4
				c-1.1,0.2-1.6,0.6-1.6,1.2c0,0.6,0.4,0.9,1.1,0.9C127.4,55.3,128.2,54.8,128.2,53.7z"/>
			<path class="st0" d="M136.8,51.6v4.6h-1.4V52c0-0.9-0.4-1.5-1.3-1.5c-1.1,0-1.7,0.6-1.7,1.6v4H131v-6.6h1.4v0.9l0,0
				c0.4-0.5,1-1,2.2-1C135.8,49.4,136.8,50.1,136.8,51.6z"/>
			<path class="st0" d="M143.1,56.2v-9.3h4c1.8,0,3.1,0.8,3.1,2.8s-1.3,2.8-3.1,2.8h-2.4v3.7H143.1z M144.7,48.2v2.9h2.3
				c1,0,1.6-0.4,1.6-1.5c0-1-0.5-1.5-1.6-1.5L144.7,48.2L144.7,48.2z"/>
			<path class="st0" d="M154.8,49.5v1.3l0,0c-1.3-0.2-2.4,0.7-2.4,2.1v3.4H151v-6.6h1.4v1.2l0,0c0.4-0.8,0.9-1.4,1.8-1.4
				C154.4,49.4,154.6,49.4,154.8,49.5z"/>
			<path class="st0" d="M158.4,56.4c-2.1,0-3.3-1.4-3.3-3.5s1.3-3.5,3.3-3.5s3.3,1.4,3.3,3.5C161.8,55,160.5,56.4,158.4,56.4z
				 M158.4,55.3c1.3,0,2-1,2-2.4s-0.7-2.4-2-2.4s-2,1-2,2.4C156.5,54.3,157.1,55.3,158.4,55.3z"/>
			<path class="st0" d="M165.7,48.1c-0.9,0-1.2,0.1-1.2,0.8v0.7h1.2v1.1h-1.2v5.5h-1.4v-5.5h-0.9v-1.1h0.9v-0.8
				c0-1.4,0.6-1.9,1.7-1.9c0.3,0,0.6,0,0.9,0.1V48.1z"/>
			<path class="st0" d="M171.1,54.2h1.4c-0.3,1.3-1.3,2.2-3,2.2c-2.1,0-3.3-1.4-3.3-3.5c0-2.2,1.3-3.5,3.3-3.5
				c2.1,0,3.2,1.5,3.2,3.9h-5.1c0,1.1,0.7,2,1.9,2C170.5,55.3,171,54.6,171.1,54.2z M167.5,52.3h3.7c0-1-0.7-1.8-1.8-1.8
				C168.2,50.5,167.5,51.2,167.5,52.3z"/>
			<path class="st0" d="M178.9,54.4c0,1.3-1.1,2.1-2.7,2.1c-2.1,0-3.1-1-3.1-2.4h1.3c0.1,0.7,0.4,1.3,1.8,1.3c0.9,0,1.4-0.5,1.4-0.9
				c0-0.8-0.8-0.9-1.8-1.1c-1.1-0.2-2.5-0.5-2.5-2c0-1.1,1-2,2.6-2c1.8,0,2.7,1,2.8,2.1h-1.3c-0.1-0.5-0.4-1.1-1.4-1.1
				c-0.8,0-1.3,0.3-1.3,0.8c0,0.7,0.7,0.7,1.7,0.9C177.6,52.5,178.9,52.8,178.9,54.4z"/>
			<path class="st0" d="M185.3,54.4c0,1.3-1.1,2.1-2.7,2.1c-2.1,0-3.1-1-3.1-2.4h1.3c0.1,0.7,0.4,1.3,1.8,1.3c0.9,0,1.4-0.5,1.4-0.9
				c0-0.8-0.8-0.9-1.8-1.1c-1.1-0.2-2.5-0.5-2.5-2c0-1.1,1-2,2.6-2c1.8,0,2.7,1,2.8,2.1h-1.3c-0.1-0.5-0.4-1.1-1.4-1.1
				c-0.8,0-1.3,0.3-1.3,0.8c0,0.7,0.7,0.7,1.7,0.9C183.9,52.5,185.3,52.8,185.3,54.4z"/>
			<path class="st0" d="M186.2,47.7c0-0.5,0.4-0.7,0.8-0.7c0.4,0,0.8,0.2,0.8,0.7s-0.4,0.7-0.8,0.7
				C186.6,48.5,186.2,48.2,186.2,47.7z M186.3,49.6h1.4v6.6h-1.4V49.6z"/>
			<path class="st0" d="M192,56.4c-2.1,0-3.3-1.4-3.3-3.5s1.3-3.5,3.3-3.5s3.3,1.4,3.3,3.5S194.1,56.4,192,56.4z M192,55.3
				c1.3,0,2-1,2-2.4s-0.7-2.4-2-2.4s-2,1-2,2.4S190.7,55.3,192,55.3z"/>
			<path class="st0" d="M202.1,51.6v4.6h-1.4V52c0-0.9-0.4-1.5-1.3-1.5c-1.1,0-1.7,0.6-1.7,1.6v4h-1.4v-6.6h1.4v0.9l0,0
				c0.4-0.5,1-1,2.2-1S202.1,50.1,202.1,51.6z"/>
			<path class="st0" d="M206.2,50.5c-1.1,0-1.5,0.3-1.6,1.2h-1.3c0.1-1.3,0.9-2.3,2.9-2.3c1.5,0,2.6,0.6,2.6,2.3v3.2
				c0,0.5,0.1,0.7,0.6,0.7v0.7c-0.3,0.1-0.5,0.1-0.8,0.1c-0.7,0-1.1-0.3-1.2-0.9l0,0c-0.4,0.6-1.2,1-2.2,1c-1.4,0-2.2-0.8-2.2-1.9
				c0-1.5,1.1-1.9,2.7-2.2c1-0.2,1.7-0.3,1.7-1C207.3,50.8,207.1,50.5,206.2,50.5z M207.3,53.7v-1c-0.2,0.2-0.8,0.3-1.4,0.4
				c-1.1,0.2-1.6,0.6-1.6,1.2c0,0.6,0.4,0.9,1.1,0.9C206.6,55.3,207.3,54.8,207.3,53.7z"/>
			<path class="st0" d="M210.2,46.9h1.4v9.3h-1.4V46.9z"/>
			<path class="st0" d="M218.3,54.4c0,1.3-1.1,2.1-2.7,2.1c-2.1,0-3.1-1-3.1-2.4h1.3c0.1,0.7,0.4,1.3,1.8,1.3c0.9,0,1.4-0.5,1.4-0.9
				c0-0.8-0.8-0.9-1.8-1.1c-1.1-0.2-2.5-0.5-2.5-2c0-1.1,1-2,2.6-2c1.8,0,2.7,1,2.8,2.1h-1.3c-0.1-0.5-0.4-1.1-1.4-1.1
				c-0.8,0-1.3,0.3-1.3,0.8c0,0.7,0.7,0.7,1.7,0.9C217,52.5,218.3,52.8,218.3,54.4z"/>
			<path class="st0" d="M109.6,61.4c-0.9,0-1.2,0.1-1.2,0.8v0.7h1.2V64h-1.2v5.5H107V64h-0.9v-1.1h0.9v-0.8c0-1.4,0.6-1.9,1.7-1.9
				c0.3,0,0.6,0,0.9,0.1V61.4z"/>
			<path class="st0" d="M113.3,69.8c-2.1,0-3.3-1.4-3.3-3.5s1.3-3.5,3.3-3.5s3.3,1.4,3.3,3.5C116.7,68.3,115.4,69.8,113.3,69.8z
				 M113.3,68.7c1.3,0,2-1,2-2.4s-0.7-2.4-2-2.4s-2,1-2,2.4C111.4,67.6,112,68.7,113.3,68.7z"/>
			<path class="st0" d="M121.4,62.8v1.3l0,0c-1.3-0.2-2.4,0.7-2.4,2.1v3.4h-1.4V63h1.4v1.2l0,0c0.4-0.8,0.9-1.4,1.8-1.4
				C121,62.8,121.2,62.8,121.4,62.8z"/>
			<path class="st0" d="M128.9,64.1h4.5v1.3h-4.5v2.8h5.3v1.3h-6.9v-9.3h6.7v1.3h-5.2L128.9,64.1L128.9,64.1z"/>
			<path class="st0" d="M135,62.9h1.5l1.5,2.3l0,0l1.5-2.3h1.5l-2.2,3.2l2.5,3.4h-1.6L138,67l0,0l-1.7,2.5h-1.6l2.5-3.4L135,62.9z"
				/>
			<path class="st0" d="M146.2,65.4c-0.1-0.7-0.5-1.5-1.7-1.5c-1.3,0-1.9,1.1-1.9,2.4s0.6,2.4,1.9,2.4c1.2,0,1.6-0.8,1.7-1.5h1.4
				c-0.1,1.5-1.3,2.7-3,2.7c-2,0-3.3-1.4-3.3-3.5s1.3-3.5,3.3-3.5c1.7,0,2.9,1.1,3,2.6L146.2,65.4L146.2,65.4z"/>
			<path class="st0" d="M153.1,67.6h1.4c-0.3,1.3-1.3,2.2-3,2.2c-2.1,0-3.3-1.4-3.3-3.5c0-2.2,1.3-3.5,3.3-3.5
				c2.1,0,3.2,1.5,3.2,3.9h-5.1c0,1.1,0.7,2,1.9,2C152.5,68.7,153,68,153.1,67.6z M149.4,65.6h3.7c0-1-0.7-1.8-1.8-1.8
				C150.2,63.8,149.4,64.6,149.4,65.6z"/>
			<path class="st0" d="M155.5,60.3h1.4v9.3h-1.4V60.3z"/>
			<path class="st0" d="M158.1,60.3h1.4v9.3h-1.4V60.3z"/>
			<path class="st0" d="M165.5,67.6h1.4c-0.3,1.3-1.3,2.2-3,2.2c-2.1,0-3.3-1.4-3.3-3.5c0-2.2,1.3-3.5,3.3-3.5
				c2.1,0,3.2,1.5,3.2,3.9H162c0,1.1,0.7,2,1.9,2C164.9,68.7,165.4,68,165.5,67.6z M161.8,65.6h3.7c0-1-0.7-1.8-1.8-1.8
				C162.6,63.8,161.8,64.6,161.8,65.6z"/>
			<path class="st0" d="M173.7,65v4.6h-1.4v-4.2c0-0.9-0.4-1.5-1.3-1.5c-1.1,0-1.7,0.6-1.7,1.6v4h-1.4v-6.6h1.4v0.9l0,0
				c0.4-0.5,1-1,2.2-1C172.7,62.8,173.7,63.5,173.7,65z"/>
			<path class="st0" d="M179.5,65.4c-0.1-0.7-0.5-1.5-1.7-1.5c-1.3,0-1.9,1.1-1.9,2.4s0.6,2.4,1.9,2.4c1.2,0,1.6-0.8,1.7-1.5h1.4
				c-0.1,1.5-1.3,2.7-3,2.7c-2,0-3.3-1.4-3.3-3.5s1.3-3.5,3.3-3.5c1.7,0,2.9,1.1,3,2.6L179.5,65.4L179.5,65.4z"/>
			<path class="st0" d="M186.4,67.6h1.4c-0.3,1.3-1.3,2.2-3,2.2c-2.1,0-3.3-1.4-3.3-3.5c0-2.2,1.3-3.5,3.3-3.5
				c2.1,0,3.2,1.5,3.2,3.9h-5.1c0,1.1,0.7,2,1.9,2C185.8,68.7,186.3,68,186.4,67.6z M182.8,65.6h3.7c0-1-0.7-1.8-1.8-1.8
				C183.6,63.8,182.8,64.6,182.8,65.6z"/>
		</g>
	</g>
	<g>
		<g>
			<g>
				<g>
					<defs>
						<path id="SVGID_1_" d="M45.6,0L45.6,0c25.2,0,45.6,20.4,45.6,45.6l0,0c0,25.2-20.4,45.6-45.6,45.6l0,0
							C20.4,91.2,0,70.8,0,45.6l0,0C0,20.4,20.4,0,45.6,0z"/>
					</defs>
					<clipPath id="SVGID_2_">
						<use xlink:href="#SVGID_1_"  style="overflow:visible;"/>
					</clipPath>
					<g class="st1">
						<path class="st2" d="M92.5,100.5c-0.8,0-1.7,0-2.5,0l0,0c-11-0.4-21.6-3.6-30.9-9.5c-3.5-2.1-6.9-4.5-10.1-7.1L39.3,143h114.3
							V38.7C153.6,74.2,126.5,100.5,92.5,100.5z"/>
						<path class="st2" d="M71.1-19.9h-52c3.6,14.6,8.2,30.3,14.5,42C37.8,4.4,50.1-12.9,71.1-19.9z"/>
						<path class="st3" d="M-57.1,76.3c19.1,0,28.8-15.8,28.8-37.2v-59h-58.6l-0.2,59C-87.1,60.5-76.2,76.3-57.1,76.3z"/>
						<path class="st4" d="M-1.1-0.6V39c0,36.2-23,61.5-56,61.5c-16.6,0-30.9-6.1-41.4-17.5c-10.1-11.1-15.7-26.7-15.7-44v104H11.5
							l14.7-83.5C10.5,37.6,2.3,12.5-1.1-0.6z"/>
						<path class="st3" d="M112.8-19.9c23.9,8.2,40.8,30.6,40.8,58.7v-58.7C153.6-19.9,112.8-19.9,112.8-19.9z"/>
						<path class="st4" d="M92.5,1.2c-19.3,0-33.9,12.6-38.8,52.5c3.9,6.3,17.8,22.6,38.8,22.6c19.1,0,33.9-15.2,33.9-37.5
							C126.4,16.4,111.6,1.2,92.5,1.2z"/>
						<path class="st5" d="M112.8-19.9H71.1c-21,7.1-33.3,24.3-37.5,42c-6.2-11.7-10.8-27.4-14.5-42H-3.3h-25v59
							c0,21.4-9.7,37.2-28.8,37.2s-30-15.8-30-37.2l0.2-59h-27.3v59c0,17.2,5.6,32.8,15.7,44c10.5,11.5,24.8,17.5,41.4,17.5
							c33,0,56-25.3,56-61.5V-0.6c3.5,13,11.6,38.1,27.3,60.1L11.5,143h27.8L49,83.8c3.2,2.6,6.5,5,10.1,7.1
							c9.3,5.9,19.9,9.2,30.9,9.5l0,0c0.8,0,1.6,0,2.5,0c34,0,61.1-26.3,61.1-61.8C153.6,10.7,136.6-11.8,112.8-19.9z M92.5,76.2
							c-21,0-35-16.2-38.8-22.6c5-39.9,19.6-52.5,38.8-52.5c19.1,0,33.9,15.2,33.9,37.5S111.6,76.2,92.5,76.2z"/>
					</g>
				</g>
			</g>
		</g>
		<path class="st6" d="M63.9,54.7c-5.2,0-8.6-4-9.6-5.5c1.2-9.8,4.8-12.9,9.6-12.9c4.7,0,8.3,3.7,8.3,9.2S68.6,54.7,63.9,54.7
			 M63.9,30.2c-8.4,0-13.2,5.5-14.5,11.2c-1.5-2.9-2.7-6.7-3.6-10.3h-5.5h-6.1v14.5c0,5.3-2.4,9.2-7.1,9.2s-7.4-3.9-7.4-9.2
			l0.1-14.5H13v14.5c0,4.2,1.4,8.1,3.9,10.8c2.6,2.8,6.1,4.3,10.2,4.3c8.1,0,13.8-6.2,13.8-15.1v-9.7c0.9,3.2,2.9,9.4,6.7,14.8
			L44,71.2h6.8l2.4-14.6c0.8,0.6,1.6,1.2,2.5,1.8c2.3,1.4,4.9,2.3,7.6,2.3l0,0c0.2,0,0.4,0,0.6,0c8.4,0,15-6.5,15-15.2
			C78.9,36.8,72.2,30.2,63.9,30.2"/>
	</g>
</g>
</svg>
