<svg xmlns="http://www.w3.org/2000/svg" viewBox="0 0 209.05 25.78"><defs><style>.cls-1{fill:#fff;}</style></defs><g id="Layer_2" data-name="Layer 2"><g id="Layer_1-2" data-name="Layer 1"><path class="cls-1" d="M25.14,5.56A7,7,0,0,0,18,11.08,23.43,23.43,0,0,1,16.21,6H10.44v7.18c0,2.6-1.18,4.52-3.5,4.52S3.3,15.75,3.3,13.15L3.32,6H0v7.18a7.83,7.83,0,0,0,1.92,5.34,6.58,6.58,0,0,0,5,2.13c4,0,6.81-3.07,6.81-7.47V8.33a23.56,23.56,0,0,0,3.32,7.3L15.29,25.78h3.38l1.18-7.19a9.06,9.06,0,0,0,1.23.87,7.58,7.58,0,0,0,3.76,1.16h.31a7.34,7.34,0,0,0,7.42-7.52,7.37,7.37,0,0,0-7.43-7.54m0,12.11a5.92,5.92,0,0,1-4.72-2.75c.6-4.85,2.38-6.38,4.72-6.38s4.12,1.85,4.12,4.56-1.8,4.57-4.12,4.57"/><path class="cls-1" d="M72.9,7.51V6H69.64v14.2h3.3V14.61c0-3.42.31-5.88,4.9-5.56V5.8c-2.14-.16-3.8.29-4.94,1.71"/><polygon class="cls-1" points="49.94 5.97 47.54 15.9 44.99 5.97 40.78 5.97 38.21 15.9 35.83 5.97 32.47 5.97 36.15 20.18 40.12 20.18 42.88 10.09 45.62 20.18 49.59 20.18 53.48 5.97 49.94 5.97"/><path class="cls-1" d="M60.76,5.56a7.35,7.35,0,0,0-7.42,7.54,7.42,7.42,0,1,0,14.84,0,7.36,7.36,0,0,0-7.42-7.54m0,12.11c-2.35,0-4.12-1.85-4.12-4.57s1.78-4.56,4.12-4.56,4.12,1.85,4.12,4.56-1.8,4.57-4.12,4.57"/><path class="cls-1" d="M82.58,13.19h.77l4.62,7H91.7l-5.31-7.75A7,7,0,0,0,90.69,6H87.4C87.4,9,85,10.2,82.58,10.2V.37H79.27V20.18h3.31Z"/><path class="cls-1" d="M98.4,13.19c0-4.57,2.84-7.55,6.81-7.55,2.81,0,5.21,1.51,5.21,3.69a1.83,1.83,0,0,1-1.82,2,1.8,1.8,0,0,1-1.82-2c0-.42.08-.88.08-1.19,0-.85-.52-1.27-1.73-1.27-2.35,0-4,1.58-4,5.05,0,3.64,1.88,6,5.1,6,2.51,0,3.12-1.38,3.73-1.38.19,0,.35.13.35.49,0,1.38-2.12,3.48-5.32,3.48C101.27,20.53,98.4,17.71,98.4,13.19Z"/><path class="cls-1" d="M111.27,13.08c0-4.52,3-7.44,7-7.44s7,2.92,7,7.44-3,7.45-7,7.45S111.27,17.55,111.27,13.08Zm7,6.1c2.23,0,3.53-1.85,3.53-5.27V12.23c0-3.61-1.3-5.27-3.53-5.27s-3.53,1.66-3.53,5.27v1.71C114.75,17.33,116.07,19.18,118.28,19.18Z"/><path class="cls-1" d="M126.27,13.08c0-4.52,3-7.44,7-7.44s7,2.92,7,7.44-3,7.45-7,7.45S126.27,17.55,126.27,13.08Zm7,6.1c2.23,0,3.53-1.85,3.53-5.27V12.23c0-3.61-1.3-5.27-3.53-5.27s-3.53,1.66-3.53,5.27v1.71C129.74,17.33,131.06,19.18,133.27,19.18Z"/><path class="cls-1" d="M140.49,19.65c0-.72,1.27-.69,1.27-1.44V3.76c0-1-1.52-.77-1.52-1.54a.72.72,0,0,1,.44-.55L143.8.12c.5-.24,1-.13,1,.47V11.9l3.61-3c.33-.28.53-.47.47-.91l-.14-1.43c0-.39.12-.56.45-.56h3.94c.36,0,.55.2.55.47a.75.75,0,0,1-.44.64l-2.76,1.71-3.06,2.59,4.83,6.2c.88,1.16,2.06,1.33,2.06,2,0,.3-.22.49-.57.49h-4.58a.54.54,0,0,1-.61-.52c0-.5.58-.63.58-1.08a1,1,0,0,0-.25-.52l-4.08-5.32v5.54c0,.75,1.22.72,1.22,1.44a.5.5,0,0,1-.56.46H141A.49.49,0,0,1,140.49,19.65Z"/><path class="cls-1" d="M159.73,19.65c0-.75,1.3-.69,1.3-1.44V9.42c0-1-1.55-.72-1.55-1.55,0-.22.17-.41.44-.55L163,5.78c.61-.31,1-.09,1,.49V18.21c0,.75,1.27.69,1.27,1.44,0,.24-.28.46-.61.46h-4.41A.5.5,0,0,1,159.73,19.65ZM162.38.59a1.91,1.91,0,0,1,1.93,1.88,1.93,1.93,0,0,1-3.86,0A1.91,1.91,0,0,1,162.38.59Z"/><path class="cls-1" d="M167.86,17.05V8a.71.71,0,0,0-.8-.77h-.93c-.75,0-1-.63-.39-1.1l4.16-3.39c.5-.42,1-.23,1,.41V6h4.22a.43.43,0,0,1,.49.47v.42a.43.43,0,0,1-.49.47h-4.22V17c0,1.24.52,1.71,1.79,1.71a12.05,12.05,0,0,0,2.12-.31c.28,0,.39.14.39.33,0,.8-2,1.77-4,1.77S167.86,19.51,167.86,17.05Z"/><path class="cls-1" d="M182,16.31V9.61c0-1.1-1.57-.8-1.57-1.6a.71.71,0,0,1,.44-.58L184,5.78c.55-.31,1-.09,1,.46v9.38c0,2.09.66,3,2.54,3a5.3,5.3,0,0,0,3.11-1v-8c0-1.1-1.54-.8-1.54-1.65,0-.22.11-.39.47-.58l3.11-1.6c.61-.3,1-.08,1,.47v10.7c0,1,1.54.79,1.54,1.59a.66.66,0,0,1-.44.56l-3.12,1.37c-.58.25-1,.06-1-.52v-1a7.63,7.63,0,0,1-4.74,1.63C183.55,20.53,182,19.23,182,16.31Z"/><path class="cls-1" d="M195.51,24.42c0-.67,1.3-.67,1.3-1.44V9.47c0-1.1-1.52-.83-1.52-1.57,0-.22.14-.39.44-.55l3.09-1.57c.58-.31,1-.06,1,.49v.86A7.17,7.17,0,0,1,204,5.64c3.11,0,5,2.37,5,6.53,0,4.91-2.62,8-6.45,8a5.51,5.51,0,0,1-2.79-.72V23c0,.75,1.24.72,1.24,1.44a.49.49,0,0,1-.55.49h-4.41C195.73,24.91,195.51,24.72,195.51,24.42Zm6.84-5.55c2.15,0,3.55-2,3.55-5.7s-1.24-5.49-3.69-5.49a4.47,4.47,0,0,0-2.4.69v7.39C199.81,17.74,200.75,18.87,202.35,18.87Z"/></g></g></svg>