<svg width="336" height="83" viewBox="0 0 336 83" fill="none" xmlns="http://www.w3.org/2000/svg">
<g clip-path="url(#clip0_377:2740)">
<path d="M168 80.8001C259.845 80.8001 334.3 63.0706 334.3 41.2001C334.3 19.3296 259.845 1.6001 168 1.6001C76.1552 1.6001 1.7002 19.3296 1.7002 41.2001C1.7002 63.0706 76.1552 80.8001 168 80.8001Z" fill="white" stroke="#01CDBE" stroke-width="3.2904" stroke-miterlimit="10"/>
<path d="M49.1001 52C49.1001 50.7 51.1001 51 51.1001 49.3V28.3C51.1001 26.6 49.1001 26.9 49.1001 25.6C49.1001 25.3 49.4001 25 49.9001 25H57.8001C66.5001 25 69.7001 27.7 69.7001 31.7C69.7001 34.3 67.5001 36.5 63.4001 37.8C69.1001 38.9 71.2001 41.4 71.2001 44.8C71.2001 49.6 67.3001 52.7 59.6001 52.7H50.0001C49.4001 52.6 49.1001 52.3 49.1001 52ZM58.3001 37C62.6001 37 64.9001 35.3 64.9001 31.9C64.9001 29 63.5001 26.8 58.4001 26.8H57.0001C56.3001 26.8 55.9001 27.2 55.9001 27.9V36.9H58.3001V37ZM57.2001 50.7H59.3001C64.4001 50.7 66.2001 48.7 66.2001 45C66.2001 41.2 64.2001 38.9 58.4001 38.9H55.7001V49.2C55.7001 50.3 56.2001 50.7 57.2001 50.7Z" fill="#01CDBE"/>
<path d="M73.8001 47.3002V37.9002C73.8001 36.4002 71.6001 36.8002 71.6001 35.7002C71.6001 35.4002 71.8001 35.1002 72.2001 34.9002L76.6001 32.6002C77.4001 32.2002 78.0001 32.5002 78.0001 33.3002V46.4002C78.0001 49.3002 78.9001 50.6002 81.6001 50.6002C82.9001 50.6002 84.3001 50.3002 86.0001 49.2002V37.9002C86.0001 36.4002 83.8001 36.8002 83.8001 35.6002C83.8001 35.3002 84.0001 35.1002 84.5001 34.8002L88.9001 32.6002C89.8001 32.2002 90.3001 32.5002 90.3001 33.3002V48.3002C90.3001 49.8002 92.5001 49.4002 92.5001 50.5002C92.5001 50.8002 92.3001 51.1002 91.9001 51.3002L87.5001 53.2002C86.7001 53.5002 86.1001 53.3002 86.1001 52.5002V51.1002C84.1001 52.6002 81.8001 53.4002 79.4001 53.4002C76.0001 53.2002 73.8001 51.4002 73.8001 47.3002Z" fill="#01CDBE"/>
<path d="M92.7002 42.7999C92.7002 36.4999 96.9002 32.3999 102.5 32.3999C108.1 32.3999 112.3 36.4999 112.3 42.7999C112.3 49.0999 108.1 53.1999 102.5 53.1999C96.9002 53.1999 92.7002 48.9999 92.7002 42.7999ZM102.5 51.2999C105.6 51.2999 107.4 48.6999 107.4 43.8999V41.4999C107.4 36.3999 105.6 34.0999 102.5 34.0999C99.4002 34.0999 97.6002 36.3999 97.6002 41.4999V43.9999C97.6002 48.6999 99.4002 51.2999 102.5 51.2999Z" fill="#01CDBE"/>
<path d="M125.8 51.9998C125.8 50.9998 127.6 50.9998 127.6 50.0998V39.3998C127.6 36.3998 126.6 35.2998 124.2 35.2998C122.8 35.2998 121.1 35.5998 119.3 36.4998V49.9998C119.3 50.8998 121.1 50.8998 121.1 51.8998C121.1 52.1998 120.8 52.5998 120.3 52.5998H114C113.5 52.5998 113.2 52.2998 113.2 51.8998C113.2 50.8998 115 50.8998 115 49.9998V37.6998C115 36.2998 112.9 36.5998 112.9 35.4998C112.9 35.1998 113.1 34.8998 113.5 34.6998L117.8 32.4998C118.5 32.1998 119.2 32.2998 119.2 33.1998V34.8998C121.7 33.2998 124.7 32.2998 127 32.2998C130.2 32.2998 131.7 34.0998 131.7 37.3998V50.0998C131.7 50.9998 133.4 50.9998 133.4 51.9998C133.4 52.2998 133.1 52.6998 132.6 52.6998H126.4C126.1 52.5998 125.8 52.2998 125.8 51.9998Z" fill="#01CDBE"/>
<path d="M140.4 52.0999C140.4 51.0999 142 50.9999 142.8 48.9999L150.8 28.9999C151.5 27.2999 150.5 26.3999 150.5 25.5999C150.5 25.1999 150.7 24.8999 151.2 24.8999H154.1C154.9 24.8999 155.3 25.0999 155.5 25.6999L164.6 48.8999C165.4 50.8999 166.8 51.0999 166.8 51.9999C166.8 52.2999 166.6 52.5999 166.1 52.5999H158.4C157.9 52.5999 157.7 52.3999 157.7 52.0999C157.7 51.0999 159.6 50.6999 159.6 49.4999C159.6 49.1999 159.5 48.7999 159.3 48.3999L158 44.9999H147L145.7 48.3999C145.5 48.8999 145.4 49.2999 145.4 49.6999C145.4 50.9999 147.2 51.0999 147.2 52.0999C147.2 52.3999 147 52.5999 146.5 52.5999H141.2C140.6 52.5999 140.4 52.3999 140.4 52.0999ZM157.3 43.0999L152.5 30.5999L147.7 43.0999H157.3Z" fill="#01CDBE"/>
<path d="M166.7 58.6998C166.7 57.7998 168.5 57.7998 168.5 56.6998V37.6998C168.5 36.1998 166.4 36.4998 166.4 35.4998C166.4 35.1998 166.6 34.9998 167 34.6998L171.3 32.4998C172.1 32.0998 172.7 32.3998 172.7 33.1998V34.3998C174.6 32.9998 176.6 32.2998 178.6 32.2998C183 32.2998 185.6 35.5998 185.6 41.4998C185.6 48.3998 181.9 52.7998 176.6 52.7998C175.2 52.7998 174 52.4998 172.7 51.7998V56.6998C172.7 57.6998 174.4 57.6998 174.4 58.6998C174.4 59.0998 174.1 59.3998 173.6 59.3998H167.4C167 59.3998 166.7 59.0998 166.7 58.6998ZM176.3 50.8998C179.3 50.8998 181.3 48.0998 181.3 42.8998C181.3 37.6998 179.6 35.1998 176.1 35.1998C175 35.1998 174 35.3998 172.7 36.1998V46.5998C172.7 49.2998 174.1 50.8998 176.3 50.8998Z" fill="#01CDBE"/>
<path d="M186.8 58.6998C186.8 57.7998 188.6 57.7998 188.6 56.6998V37.6998C188.6 36.1998 186.5 36.4998 186.5 35.4998C186.5 35.1998 186.7 34.9998 187.1 34.6998L191.4 32.4998C192.2 32.0998 192.8 32.3998 192.8 33.1998V34.3998C194.7 32.9998 196.7 32.2998 198.7 32.2998C203.1 32.2998 205.7 35.5998 205.7 41.4998C205.7 48.3998 202 52.7998 196.7 52.7998C195.3 52.7998 194.1 52.4998 192.8 51.7998V56.6998C192.8 57.6998 194.5 57.6998 194.5 58.6998C194.5 59.0998 194.2 59.3998 193.7 59.3998H187.5C187.2 59.3998 186.8 59.0998 186.8 58.6998ZM196.4 50.8998C199.4 50.8998 201.4 48.0998 201.4 42.8998C201.4 37.6998 199.7 35.1998 196.2 35.1998C195.1 35.1998 194.1 35.3998 192.8 36.1998V46.5998C192.9 49.2998 194.2 50.8998 196.4 50.8998Z" fill="#01CDBE"/>
<path d="M207.5 42.6999C207.5 36.4999 211.3 32.3999 216.7 32.3999C221.6 32.3999 224.5 35.7999 224.5 39.1999C224.5 40.8999 223.8 41.3999 222.6 41.3999H211.3C211.4 46.7999 214.1 49.7999 218.1 49.7999C221.9 49.7999 223.1 47.2999 224.1 47.2999C224.4 47.2999 224.5 47.4999 224.5 47.8999C224.5 48.0999 224.5 48.3999 224.3 48.7999C223.3 51.2999 220.5 53.1999 216.7 53.1999C211.6 53.1999 207.5 49.1999 207.5 42.6999ZM219.1 39.4999C219.9 39.4999 220.3 39.1999 220.3 38.4999C220.3 36.2999 219.2 34.1999 216.4 34.1999C213.7 34.1999 211.7 36.0999 211.5 39.4999H219.1Z" fill="#01CDBE"/>
<path d="M228.3 48.2999V35.5998C228.3 34.8998 227.9 34.4999 227.2 34.4999H225.9C224.9 34.4999 224.5 33.5999 225.4 32.9999L231.2 28.1999C231.9 27.5999 232.6 27.8998 232.6 28.7998V32.8999H238.5C239 32.8999 239.2 33.0998 239.2 33.5998V34.1999C239.2 34.5999 239 34.8999 238.5 34.8999H232.6V48.3999C232.6 50.0999 233.3 50.7999 235.1 50.7999C236.7 50.7999 237.6 50.3999 238.1 50.3999C238.5 50.3999 238.6 50.5999 238.6 50.8999C238.6 51.9999 235.9 53.3999 233 53.3999C230.1 53.1999 228.3 51.7999 228.3 48.2999Z" fill="#01CDBE"/>
<path d="M239.8 51.9998C239.8 50.9998 241.6 50.9998 241.6 49.9998V37.5998C241.6 36.1998 239.4 36.5998 239.4 35.3998C239.4 35.0998 239.6 34.7998 240 34.5998L244.3 32.3998C245.2 31.9998 245.7 32.2998 245.7 33.0998V49.9998C245.7 50.9998 247.5 50.9998 247.5 51.9998C247.5 52.2998 247.1 52.6998 246.6 52.6998H240.4C240.1 52.5998 239.8 52.2998 239.8 51.9998ZM243.5 25.2998C245 25.2998 246.2 26.4998 246.2 27.8998C246.2 29.3998 245 30.4998 243.5 30.4998C242 30.4998 240.8 29.3998 240.8 27.8998C240.8 26.3998 242 25.2998 243.5 25.2998Z" fill="#01CDBE"/>
<path d="M251.5 48.2999V35.5998C251.5 34.8998 251.1 34.4999 250.4 34.4999H249.1C248.1 34.4999 247.7 33.5999 248.6 32.9999L254.4 28.1999C255.1 27.5999 255.8 27.8998 255.8 28.7998V32.8999H261.7C262.2 32.8999 262.4 33.0998 262.4 33.5998V34.1999C262.4 34.5999 262.2 34.8999 261.7 34.8999H255.8V48.3999C255.8 50.0999 256.5 50.7999 258.3 50.7999C259.9 50.7999 260.8 50.3999 261.3 50.3999C261.7 50.3999 261.8 50.5999 261.8 50.8999C261.8 51.9999 259.1 53.3999 256.2 53.3999C253.2 53.1999 251.5 51.7999 251.5 48.2999Z" fill="#01CDBE"/>
<path d="M262.1 42.7999C262.1 36.4999 266.3 32.3999 271.9 32.3999C277.5 32.3999 281.7 36.4999 281.7 42.7999C281.7 49.0999 277.5 53.1999 271.9 53.1999C266.3 53.1999 262.1 48.9999 262.1 42.7999ZM271.9 51.2999C275 51.2999 276.8 48.6999 276.8 43.8999V41.4999C276.8 36.3999 275 34.0999 271.9 34.0999C268.8 34.0999 267 36.3999 267 41.4999V43.9999C267 48.6999 268.8 51.2999 271.9 51.2999Z" fill="#01CDBE"/>
<path d="M287.3 47.3C289 47.3 290.3 48.6 290.3 50.3C290.3 52 289 53.2 287.3 53.2C285.7 53.2 284.4 51.9 284.4 50.3C284.3 48.6 285.6 47.3 287.3 47.3ZM284.5 27.7C284.5 25.9 285.4 24.5 287.3 24.5C289.2 24.5 290.1 25.9 290.1 27.7C290.1 29.6 288.8 39.2 287.9 44.4C287.8 45.2 286.9 45.2 286.8 44.4C285.8 39.1 284.5 29.6 284.5 27.7Z" fill="#01CDBE"/>
</g>
<defs>
<clipPath id="clip0_377:2740">
<rect width="335.9" height="82.4" fill="white"/>
</clipPath>
</defs>
</svg>
