<svg width="277" height="88" viewBox="0 0 277 88" fill="none" xmlns="http://www.w3.org/2000/svg">
<g clip-path="url(#clip0_377:2724)">
<path d="M138.1 1.6001C142 1.6001 145.9 7.1001 149.8 7.1001C153.7 7.1001 157.8 1.8001 161.6 1.9001C165.6 2.0001 169.3 7.6001 173.1 7.7001C177.1 7.9001 181.3 2.7001 185.1 2.9001C189.1 3.2001 192.5 8.9001 196.3 9.2001C200.3 9.6001 204.7 4.6001 208.5 5.0001C212.5 5.5001 215.6 11.4001 219.3 12.0001C223.3 12.7001 228.2 8.0001 231.8 8.8001C235.8 9.7001 238.2 15.9001 241.7 17.0001C245.7 18.2001 251.2 14.5001 254.6 15.9001C258.5 17.6001 259.2 24.2001 262 26.3001C265.4 28.8001 272.1 28.0001 273.9 31.2001C275.9 34.5001 271.9 39.6001 271.9 43.7001C271.9 47.8001 275.9 52.9001 273.9 56.2001C272 59.3001 265.4 58.5001 262 61.1001C259.1 63.2001 258.4 69.8001 254.6 71.5001C251.3 73.0001 245.7 69.2001 241.7 70.4001C238.2 71.5001 235.8 77.7001 231.8 78.6001C228.2 79.4001 223.3 74.8001 219.3 75.4001C215.6 76.0001 212.5 81.9001 208.5 82.4001C204.7 82.9001 200.3 77.9001 196.3 78.2001C192.5 78.5001 189 84.3001 185.1 84.5001C181.3 84.7001 177.1 79.5001 173.1 79.7001C169.3 79.9001 165.6 85.4001 161.6 85.5001C157.8 85.6001 153.7 80.2001 149.8 80.3001C145.9 80.3001 142.1 85.8001 138.1 85.8001C134.2 85.8001 130.3 80.3001 126.4 80.3001C122.5 80.3001 118.4 85.6001 114.6 85.5001C110.6 85.4001 106.9 79.8001 103.1 79.7001C99.1002 79.5001 94.9002 84.7001 91.1002 84.5001C87.1002 84.2001 83.7002 78.5001 79.9002 78.2001C75.9002 77.8001 71.5002 82.8001 67.7002 82.4001C63.7002 81.9001 60.6002 76.0001 56.9002 75.4001C52.9002 74.7001 48.0002 79.4001 44.4002 78.6001C40.4002 77.7001 38.0002 71.5001 34.5002 70.4001C30.5002 69.2001 25.0002 72.9001 21.6002 71.5001C17.7002 69.8001 17.0002 63.2001 14.2002 61.1001C10.8002 58.6001 4.10023 59.4001 2.30023 56.2001C0.300234 52.9001 4.30023 47.8001 4.30023 43.7001C4.30023 39.6001 0.300234 34.5001 2.30023 31.2001C4.20023 28.1001 10.8002 28.9001 14.2002 26.3001C17.1002 24.2001 17.8002 17.6001 21.6002 15.9001C24.9002 14.4001 30.5002 18.2001 34.5002 17.0001C38.0002 15.9001 40.4002 9.7001 44.4002 8.8001C48.0002 8.0001 52.9002 12.6001 56.9002 12.0001C60.6002 11.4001 63.7002 5.5001 67.7002 5.0001C71.5002 4.5001 75.9002 9.5001 79.9002 9.2001C83.7002 9.0001 87.1002 3.2001 91.1002 3.0001C94.9002 2.8001 99.1002 8.0001 103.1 7.8001C106.9 7.6001 110.6 2.1001 114.6 2.0001C118.4 1.9001 122.5 7.3001 126.4 7.2001C130.2 7.1001 134.1 1.6001 138.1 1.6001Z" fill="white"/>
<path d="M138.1 87.8001C135.6 87.8001 133.4 86.2001 131.2 84.7001C129.5 83.5001 127.8 82.3001 126.4 82.3001C124.9 82.3001 123.2 83.5001 121.4 84.7001C119.3 86.1001 117 87.6001 114.6 87.6001C112.1 87.5001 109.9 85.9001 107.8 84.3001C106.2 83.1001 104.5 81.8001 103.1 81.7001C101.6 81.6001 99.8002 82.8001 98.0002 83.9001C95.8002 85.3001 93.5002 86.6001 91.1002 86.5001C88.5002 86.3001 86.4002 84.6001 84.4002 82.9001C82.8002 81.6001 81.2002 80.3001 79.9002 80.2001C78.4002 80.1001 76.5002 81.1001 74.6002 82.1001C72.3002 83.3001 70.0002 84.6001 67.6002 84.3001C65.0002 84.0001 63.0002 82.1001 61.0002 80.3001C59.5002 78.9001 58.0002 77.5001 56.7002 77.3001C55.2002 77.1001 53.2002 77.9001 51.2002 78.8001C48.8002 79.9001 46.4002 80.9001 44.1002 80.4001C41.4002 79.8001 39.5002 77.5001 37.8002 75.5001C36.5002 74.0001 35.2002 72.5001 34.0002 72.1001C32.5002 71.6001 30.3002 72.2001 28.3002 72.7001C25.8002 73.4001 23.2002 74.0001 21.0002 73.1001C18.3002 71.9001 16.9002 69.0001 15.7002 66.5001C14.9002 64.9001 14.2002 63.2001 13.2002 62.5001C12.0002 61.6001 10.0002 61.2001 8.00016 60.7001C5.20016 60.1001 2.20016 59.5001 0.800157 57.1001C-0.799843 54.4001 0.400157 51.3001 1.40016 48.4001C2.00016 46.8001 2.60016 45.1001 2.60016 43.7001C2.60016 42.3001 2.00016 40.6001 1.40016 39.0001C0.400157 36.2001 -0.799843 33.0001 0.800157 30.3001C2.20016 28.0001 5.10016 27.3001 8.00016 26.7001C9.90016 26.3001 11.9002 25.9001 13.2002 24.9001C14.1002 24.2001 14.9002 22.6001 15.7002 20.9001C16.9002 18.4001 18.2002 15.5001 21.0002 14.3001C23.2002 13.3001 25.8002 14.0001 28.3002 14.7001C30.4002 15.2001 32.5002 15.8001 34.0002 15.3001C35.2002 14.9001 36.5002 13.4001 37.8002 11.9001C39.5002 9.9001 41.4002 7.6001 44.1002 7.0001C46.5002 6.5001 48.9002 7.6001 51.2002 8.6001C53.1002 9.5001 55.1002 10.4001 56.7002 10.1001C58.0002 9.9001 59.5002 8.5001 61.0002 7.1001C63.0002 5.3001 65.0002 3.4001 67.6002 3.1001C70.0002 2.8001 72.3002 4.1001 74.6002 5.3001C76.4002 6.3001 78.4002 7.4001 79.9002 7.2001C81.3002 7.1001 82.9002 5.8001 84.4002 4.5001C86.5002 2.8001 88.6002 1.1001 91.1002 0.900098C93.5002 0.800098 95.8002 2.1001 98.0002 3.5001C99.8002 4.6001 101.6 5.8001 103.1 5.7001C104.5 5.6001 106.2 4.4001 107.8 3.1001C109.9 1.5001 112.1 -0.0999023 114.6 -0.199902C117.1 -0.299902 119.3 1.2001 121.4 2.7001C123.1 3.9001 124.9 5.1001 126.4 5.1001C127.8 5.1001 129.5 3.9001 131.2 2.7001C133.3 1.2001 135.6 -0.399902 138.1 -0.399902C140.6 -0.399902 142.8 1.2001 145 2.7001C146.7 3.9001 148.4 5.1001 149.8 5.1001C151.3 5.1001 153 3.9001 154.8 2.7001C156.9 1.3001 159.2 -0.299902 161.6 -0.199902C164.1 -0.0999023 166.3 1.5001 168.4 3.1001C170 4.3001 171.7 5.6001 173.1 5.7001C174.6 5.8001 176.4 4.6001 178.2 3.5001C180.4 2.1001 182.7 0.700098 185.1 0.900098C187.7 1.1001 189.8 2.8001 191.8 4.5001C193.4 5.8001 195 7.1001 196.3 7.2001C197.8 7.3001 199.7 6.3001 201.6 5.3001C203.9 4.1001 206.2 2.8001 208.6 3.1001C211.2 3.4001 213.2 5.3001 215.2 7.1001C216.7 8.5001 218.2 9.9001 219.5 10.1001C221 10.7001 223 9.9001 225 9.0001C227.4 7.9001 229.8 6.9001 232.1 7.4001C234.8 8.0001 236.7 10.3001 238.4 12.3001C239.7 13.8001 241 15.3001 242.2 15.7001C243.7 16.2001 245.9 15.6001 247.9 15.1001C250.4 14.4001 253 13.8001 255.2 14.7001C257.9 15.9001 259.3 18.8001 260.5 21.3001C261.3 22.9001 262 24.6001 263 25.3001C264.2 26.2001 266.2 26.6001 268.2 27.1001C271 27.7001 274 28.3001 275.4 30.7001C277 33.4001 275.8 36.5001 274.8 39.4001C274.2 41.0001 273.6 42.7001 273.6 44.1001C273.6 45.5001 274.2 47.2001 274.8 48.8001C275.8 51.6001 277 54.8001 275.4 57.5001C274 59.8001 271.1 60.5001 268.2 61.1001C266.3 61.5001 264.3 61.9001 263 62.9001C262.1 63.6001 261.3 65.3001 260.5 66.9001C259.3 69.4001 258 72.3001 255.2 73.5001C253 74.5001 250.4 73.8001 247.9 73.1001C245.8 72.6001 243.7 72.0001 242.2 72.5001C241 72.9001 239.7 74.4001 238.4 75.9001C236.7 77.9001 234.8 80.2001 232.1 80.8001C229.7 81.3001 227.3 80.2001 225 79.2001C223.1 78.3001 221.1 77.4001 219.5 77.7001C218.2 77.9001 216.7 79.3001 215.2 80.7001C213.2 82.5001 211.2 84.4001 208.6 84.7001C206.2 85.0001 203.9 83.7001 201.6 82.5001C199.8 81.5001 197.8 80.4001 196.3 80.6001C194.9 80.7001 193.3 82.0001 191.8 83.3001C189.7 85.0001 187.6 86.7001 185.1 86.9001C182.7 87.1001 180.4 85.7001 178.2 84.3001C176.4 83.2001 174.6 82.0001 173.1 82.1001C171.7 82.2001 170 83.4001 168.4 84.7001C166.3 86.3001 164.1 87.9001 161.6 88.0001C159.1 88.1001 156.9 86.6001 154.8 85.1001C153.1 83.9001 151.3 82.7001 149.8 82.7001C148.4 82.7001 146.7 83.9001 145 85.1001C142.8 86.3001 140.6 87.8001 138.1 87.8001ZM126.3 79.0001C126.4 79.0001 126.4 79.0001 126.3 79.0001C128.8 79.0001 131 80.6001 133 82.0001C134.7 83.2001 136.5 84.5001 138 84.5001C139.5 84.5001 141.2 83.2001 143 82.0001C145.1 80.5001 147.3 79.0001 149.7 79.0001C149.7 79.0001 149.7 79.0001 149.8 79.0001C152.3 79.0001 154.5 80.5001 156.6 81.9001C158.3 83.0001 160 84.2001 161.4 84.2001C161.4 84.2001 161.4 84.2001 161.5 84.2001C163 84.2001 164.7 82.8001 166.4 81.6001C168.4 80.1001 170.5 78.5001 172.9 78.4001C175.4 78.3001 177.7 79.7001 179.9 81.1001C181.7 82.2001 183.5 83.3001 184.8 83.2001C186.3 83.1001 188 81.7001 189.7 80.4001C191.7 78.8001 193.7 77.2001 196 76.9001C198.5 76.7001 200.9 78.0001 203.1 79.2001C204.9 80.2001 206.8 81.2001 208.1 81.1001C209.6 80.9001 211.3 79.4001 212.8 77.9001C214.6 76.2001 216.5 74.5001 218.8 74.1001C221.3 73.7001 223.8 74.8001 226.1 75.9001C228 76.7001 229.9 77.6001 231.2 77.3001C232.8 77.0001 234.3 75.2001 235.7 73.5001C237.3 71.7001 238.9 69.8001 241 69.1001C243.4 68.4001 246 69.0001 248.5 69.7001C250.5 70.2001 252.5 70.7001 253.7 70.2001C255.3 69.5001 256.3 67.3001 257.3 65.2001C258.2 63.2001 259.2 61.2001 260.8 60.0001C262.6 58.7001 265 58.2001 267.2 57.7001C269.4 57.2001 271.6 56.8001 272.2 55.7001C273 54.4001 272.2 52.2001 271.4 49.8001C270.7 47.9001 270 45.9001 270 44.0001C270 42.1001 270.7 40.1001 271.4 38.2001C272.2 35.9001 273 33.7001 272.2 32.3001C271.5 31.2001 269.3 30.7001 267.2 30.3001C264.9 29.8001 262.6 29.3001 260.8 28.0001C259.2 26.8001 258.2 24.8001 257.3 22.8001C256.3 20.7001 255.3 18.5001 253.7 17.8001C252.5 17.3001 250.5 17.8001 248.5 18.3001C246 19.0001 243.4 19.6001 241 18.9001C238.9 18.3001 237.3 16.4001 235.7 14.5001C234.3 12.8001 232.8 11.1001 231.2 10.7001C229.9 10.4001 228 11.3001 226.1 12.1001C223.7 13.2001 221.3 14.3001 218.8 13.9001C216.5 13.5001 214.6 11.8001 212.8 10.1001C211.2 8.6001 209.6 7.1001 208 6.9001C206.7 6.7001 204.8 7.8001 203 8.8001C200.7 10.1001 198.4 11.4001 195.9 11.1001C193.5 10.9001 191.5 9.2001 189.6 7.6001C187.9 6.2001 186.2 4.8001 184.7 4.8001C183.3 4.7001 181.5 5.8001 179.8 6.9001C177.6 8.3001 175.3 9.7001 172.8 9.6001C170.4 9.5001 168.3 7.9001 166.3 6.4001C164.6 5.1001 162.9 3.8001 161.4 3.8001C160 3.8001 158.2 5.0001 156.5 6.1001C154.3 7.5001 152.1 9.0001 149.6 9.0001C147.2 9.0001 145 7.4001 142.9 6.0001C141.2 4.8001 139.4 3.5001 137.9 3.5001C136.4 3.5001 134.7 4.8001 132.9 6.0001C130.8 7.5001 128.6 9.0001 126.2 9.0001H126.1C123.6 9.0001 121.4 7.5001 119.3 6.1001C117.6 5.0001 115.9 3.8001 114.5 3.8001C114.5 3.8001 114.5 3.8001 114.4 3.8001C112.9 3.8001 111.2 5.2001 109.5 6.4001C107.5 7.9001 105.4 9.5001 103 9.6001C100.5 9.7001 98.2002 8.3001 96.0002 6.9001C94.2002 5.8001 92.4002 4.7001 91.1002 4.8001C89.6002 4.9001 87.9002 6.3001 86.2002 7.6001C84.2002 9.2001 82.2002 10.8001 79.9002 11.1001C77.4002 11.3001 75.0002 10.0001 72.8002 8.8001C71.0002 7.8001 69.1002 6.8001 67.8002 6.9001C66.3002 7.1001 64.6002 8.6001 63.1002 10.1001C61.3002 11.8001 59.4002 13.5001 57.1002 13.9001C54.6002 14.3001 52.2002 13.2001 49.8002 12.1001C47.9002 11.3001 46.0002 10.4001 44.7002 10.7001C43.1002 11.0001 41.6002 12.8001 40.2002 14.5001C38.6002 16.3001 37.0002 18.2001 34.9002 18.9001C32.5002 19.6001 29.9002 19.0001 27.4002 18.3001C25.4002 17.8001 23.4002 17.3001 22.2002 17.8001C20.6002 18.5001 19.6002 20.7001 18.6002 22.8001C17.7002 24.8001 16.7002 26.8001 15.1002 28.0001C13.3002 29.3001 10.9002 29.8001 8.70016 30.3001C6.50016 30.8001 4.30016 31.2001 3.70016 32.3001C2.90016 33.6001 3.70016 35.8001 4.50016 38.2001C5.10016 40.0001 5.80016 42.0001 5.80016 43.9001C5.80016 45.8001 5.10016 47.8001 4.40016 49.7001C3.60016 52.0001 2.80016 54.2001 3.60016 55.6001C4.30016 56.7001 6.50016 57.2001 8.60016 57.6001C10.9002 58.1001 13.2002 58.6001 15.0002 59.9001C16.6002 61.1001 17.6002 63.1001 18.5002 65.1001C19.5002 67.2001 20.5002 69.4001 22.1002 70.1001C23.3002 70.6001 25.3002 70.1001 27.3002 69.6001C29.8002 68.9001 32.4002 68.3001 34.8002 69.0001C36.9002 69.6001 38.5002 71.5001 40.1002 73.4001C41.5002 75.1001 43.0002 76.8001 44.6002 77.2001C45.9002 77.5001 47.8002 76.6001 49.7002 75.8001C52.1002 74.7001 54.5002 73.6001 57.0002 74.0001C59.3002 74.4001 61.2002 76.1001 63.0002 77.8001C64.6002 79.3001 66.2002 80.8001 67.8002 81.0001C69.1002 81.2001 71.0002 80.1001 72.8002 79.1001C75.1002 77.8001 77.4002 76.5001 79.9002 76.8001C82.3002 77.0001 84.3002 78.7001 86.2002 80.3001C87.9002 81.7001 89.6002 83.1001 91.1002 83.1001C92.5002 83.2001 94.3002 82.1001 96.0002 81.0001C98.2002 79.6001 100.5 78.2001 103 78.3001C105.4 78.4001 107.5 80.0001 109.5 81.5001C111.2 82.8001 112.9 84.1001 114.4 84.1001C115.8 84.1001 117.6 82.9001 119.3 81.8001C121.7 80.5001 123.9 79.0001 126.3 79.0001Z" fill="#FF4B25"/>
<path d="M65.5998 54.3001C64.3998 54.9001 61.8998 55.5001 58.6998 55.5001C51.3998 55.5001 45.7998 50.9001 45.7998 42.3001C45.7998 34.1001 51.2998 28.6001 59.3998 28.6001C62.5998 28.6001 64.6998 29.3001 65.5998 29.8001L64.7998 32.5001C63.4998 31.9001 61.6998 31.4001 59.4998 31.4001C53.3998 31.4001 49.2998 35.3001 49.2998 42.1001C49.2998 48.5001 52.9998 52.6001 59.2998 52.6001C61.2998 52.6001 63.3998 52.2001 64.7998 51.5001L65.5998 54.3001Z" fill="#FF4B25"/>
<path d="M89.9998 43.7001C89.7998 40.1001 89.5998 35.7001 89.5998 32.4001H89.4998C88.5998 35.5001 87.4998 38.7001 86.1998 42.3001L81.5998 55.0001H78.9998L74.7998 42.6001C73.5998 38.9001 72.4998 35.6001 71.7998 32.5001H71.6998C71.5998 35.7001 71.3998 40.1001 71.1998 44.0001L70.4998 55.2001H67.2998L69.0998 29.1001H73.3998L77.7998 41.7001C78.8998 44.9001 79.7998 47.8001 80.3998 50.5001H80.4998C81.1998 47.9001 82.0998 45.0001 83.1998 41.7001L87.9998 29.1001H92.2998L93.9998 55.2001H90.6998L89.9998 43.7001Z" fill="#FF4B25"/>
<path d="M101.3 47.0001L98.5996 55.2001H95.0996L104 29.1001H108.1L117 55.2001H113.4L110.6 47.0001H101.3ZM109.8 44.3001L107.2 36.8001C106.6 35.1001 106.2 33.6001 105.8 32.0001H105.7C105.3 33.5001 104.9 35.1001 104.4 36.7001L101.8 44.2001H109.8V44.3001Z" fill="#FF4B25"/>
<path d="M122.2 29.1001V37.4001C122.2 41.0001 124.1 43.0001 127.7 43.0001C129.5 43.0001 131.5 42.4001 132.8 41.5001V29.1001H136.2V55.2001H132.8V44.1001H132.7C130.9 45.1001 128.7 45.7001 126.4 45.7001C123 45.7001 118.7 44.2001 118.7 37.9001V29.1001H122.2Z" fill="#FF4B25"/>
<path d="M143.7 29.1001V40.0001H156.3V29.1001H159.7V55.2001H156.3V42.9001H143.7V55.1001H140.3V29.1001H143.7Z" fill="#FF4B25"/>
<path d="M186.1 41.9002C186.1 50.9002 180.6 55.6002 174 55.6002C167.1 55.6002 162.3 50.3002 162.3 42.4002C162.3 34.1002 167.4 28.7002 174.4 28.7002C181.5 28.7002 186.1 34.1002 186.1 41.9002ZM165.9 42.3002C165.9 47.9002 168.9 52.9002 174.2 52.9002C179.5 52.9002 182.6 48.0002 182.6 42.1002C182.6 36.9002 179.9 31.5002 174.3 31.5002C168.7 31.4002 165.9 36.6002 165.9 42.3002Z" fill="#FF4B25"/>
<path d="M202.6 29.1001V31.9001H192.1V55.1001H188.7V29.1001H202.6Z" fill="#FF4B25"/>
<path d="M224.6 41.9002C224.6 50.9002 219.1 55.6002 212.5 55.6002C205.6 55.6002 200.8 50.3002 200.8 42.4002C200.8 34.1002 205.9 28.7002 212.9 28.7002C220 28.7002 224.6 34.1002 224.6 41.9002ZM204.4 42.3002C204.4 47.9002 207.4 52.9002 212.7 52.9002C218 52.9002 221.1 48.0002 221.1 42.1002C221.1 36.9002 218.4 31.5002 212.8 31.5002C207.2 31.4002 204.4 36.6002 204.4 42.3002Z" fill="#FF4B25"/>
<path d="M229.9 49.8C231.6 49.8 232.9 51.1 232.9 52.8C232.9 54.5 231.6 55.7 229.9 55.7C228.3 55.7 227 54.4 227 52.8C226.9 51.1 228.2 49.8 229.9 49.8ZM227.1 30.2C227.1 28.4 228 27 229.9 27C231.8 27 232.7 28.4 232.7 30.2C232.7 32.1 231.4 41.7 230.5 46.9C230.4 47.7 229.5 47.7 229.4 46.9C228.4 41.7 227.1 32.1 227.1 30.2Z" fill="#FF4B25"/>
</g>
<defs>
<clipPath id="clip0_377:2724">
<rect width="276.1" height="87.8" fill="white"/>
</clipPath>
</defs>
</svg>
