<svg width="253" height="105" viewBox="0 0 253 105" fill="none" xmlns="http://www.w3.org/2000/svg">
<g clip-path="url(#clip0_377:2796)">
<path d="M126.2 1.8999L141.4 10.2999L161.9 4.0999L170.6 13.9999L194.4 10.6999L195.8 21.2999L220.9 20.9999L214.8 31.2999L239 34.1999L226 43.1999L247 48.9999L228.3 55.9999L244.3 64.0999L221.5 68.4999L231.1 78.1999L206.2 79.5999L208.6 90.0999L183.8 88.2999L178.8 98.5999L156.4 93.8999L144.2 103.1L126.2 95.7999L108.1 103.1L95.9998 93.8999L73.5998 98.5999L68.4998 88.2999L43.7998 90.0999L46.0998 79.5999L21.1998 78.1999L30.8998 68.4999L7.9998 64.0999L24.0998 55.9999L5.2998 48.9999L26.3998 43.1999L13.3998 34.1999L37.4998 31.2999L31.3998 20.9999L56.4998 21.2999L57.8998 10.6999L81.7998 13.9999L90.4998 4.0999L110.9 10.2999L126.2 1.8999Z" fill="white"/>
<path d="M144.5 105L126.2 97.6L107.9 105L95.6 95.6L72.7 100.5L67.5 90L41.6 91.9L44 81.1L17.4 79.6L27.5 69.5L3 64.8L20 56.2L0 48.7L22.5 42.5L8.9 33.1L34.8 30L28.5 19.4L55.1 19.6L56.5 8.9L81.1 12.3L89.9 2.3L110.7 8.5L126.2 0L141.6 8.5L162.4 2.3L171.2 12.3L195.8 8.9L197.2 19.6L223.8 19.4L217.5 30L243.4 33.1L229.7 42.6L252.2 48.8L232.2 56.3L249.2 64.9L224.6 69.6L234.7 79.7L208.1 81.2L210.5 92L184.8 90L179.6 100.5L156.7 95.6L144.5 105ZM126.2 94L144 101.2L156 92.1L177.9 96.8L182.9 86.6L206.5 88.3L204.2 78L227.4 76.7L218.2 67.4L239.3 63.3L224.2 55.7L241.7 49.2L222.2 43.8L234.5 35.2L212.1 32.5L218 22.6L194.4 22.8L193 12.6L169.9 15.8L161.4 6L141.3 12L126.2 3.7L111.1 12L91 6L82.4 15.8L59.3 12.6L58 22.9L34.4 22.7L40.3 32.6L17.9 35.3L30.2 43.9L10.7 49.3L28.2 55.8L13.1 63.4L34.2 67.5L25 76.8L48.2 78L45.9 88.2L69.5 86.5L74.5 96.7L96.4 92L108.4 101.1L126.2 94Z" fill="#BC5118"/>
<path d="M75.7002 63.5001C75.7002 62.7001 76.6002 62.5001 76.6002 61.9001C76.6002 61.7001 76.5002 61.5001 76.3002 61.2001L67.3002 50.5001V60.9001C67.3002 62.6001 69.3002 62.3001 69.3002 63.6001C69.3002 63.9001 69.0002 64.2001 68.5002 64.2001H61.5002C61.0002 64.2001 60.7002 63.9001 60.7002 63.6001C60.7002 62.4001 62.7002 62.6001 62.7002 60.9001V39.9001C62.7002 38.2001 60.7002 38.5001 60.7002 37.2001C60.7002 36.9001 61.0002 36.6001 61.5002 36.6001H68.5002C69.0002 36.6001 69.3002 36.9001 69.3002 37.2001C69.3002 38.4001 67.3002 38.2001 67.3002 39.9001V49.4001L76.3002 40.9001C76.6002 40.6001 76.8002 40.3001 76.8002 39.9001C76.8002 39.1001 76.3002 38.0001 76.3002 37.4001C76.3002 36.9001 76.6002 36.6001 77.3002 36.6001H82.9002C83.5002 36.6001 83.8002 36.9001 83.8002 37.3001C83.8002 38.4001 81.1002 39.1001 78.5002 41.6001L71.3002 48.4001L81.4002 60.4001C83.1002 62.3001 84.6002 62.8001 84.6002 63.6001C84.6002 63.9001 84.3002 64.3001 83.8002 64.3001H76.6002C76.0002 64.2001 75.7002 63.9001 75.7002 63.5001Z" fill="#BC5118"/>
<path d="M85.1001 59.7999C85.1001 55.8999 88.4001 53.2999 96.1001 52.5999V48.6999C96.1001 46.6999 95.4001 45.5999 93.7001 45.5999C89.9001 45.5999 90.2001 50.5999 87.2001 50.5999C86.0001 50.5999 85.2001 49.8999 85.2001 48.5999C85.2001 46.2999 88.3001 43.8999 93.8001 43.8999C98.4001 43.8999 100.3 45.6999 100.3 49.1999V61.3999C100.3 62.0999 100.6 62.2999 101 62.2999C101.3 62.2999 101.6 62.1999 101.9 62.1999C102.2 62.1999 102.3 62.3999 102.3 62.6999C102.3 63.6999 101 64.6999 99.2001 64.6999C96.9001 64.6999 96.4001 62.8999 96.2001 61.7999C94.8001 63.6999 92.5001 64.6999 90.2001 64.6999C86.9001 64.7999 85.1001 62.6999 85.1001 59.7999ZM92.5001 61.7999C93.7001 61.7999 94.8001 61.2999 96.1001 60.1999V54.2999C91.0001 54.9999 89.5001 56.8999 89.5001 58.8999C89.5001 60.2999 90.4001 61.7999 92.5001 61.7999Z" fill="#BC5118"/>
<path d="M103.5 63.4998C103.5 62.4998 105.3 62.4998 105.3 61.4998V49.1998C105.3 47.7998 103.1 48.1998 103.1 46.9998C103.1 46.6998 103.3 46.3998 103.7 46.1998L108 43.9998C108.9 43.5998 109.4 43.8998 109.4 44.6998V61.3998C109.4 62.3998 111.2 62.3998 111.2 63.3998C111.2 63.6998 110.8 64.0998 110.3 64.0998H104.1C103.8 64.1998 103.5 63.8998 103.5 63.4998ZM107.2 36.7998C108.7 36.7998 109.9 37.9998 109.9 39.3998C109.9 40.8998 108.7 41.9998 107.2 41.9998C105.7 41.9998 104.5 40.8998 104.5 39.3998C104.5 37.9998 105.7 36.7998 107.2 36.7998Z" fill="#BC5118"/>
<path d="M125.3 63.4998C125.3 62.4998 127.1 62.4998 127.1 61.5998V50.9998C127.1 47.9998 126.1 46.8998 123.7 46.8998C122.3 46.8998 120.6 47.1998 118.8 48.0998V61.5998C118.8 62.4998 120.6 62.4998 120.6 63.4998C120.6 63.7998 120.3 64.1998 119.8 64.1998H113.6C113.1 64.1998 112.8 63.8998 112.8 63.4998C112.8 62.4998 114.6 62.4998 114.6 61.5998V49.1998C114.6 47.7998 112.5 48.0998 112.5 46.9998C112.5 46.6998 112.7 46.3998 113.1 46.1998L117.4 43.9998C118.1 43.6998 118.8 43.7998 118.8 44.6998V46.3998C121.3 44.7998 124.3 43.7998 126.6 43.7998C129.8 43.7998 131.3 45.5998 131.3 48.8998V61.5998C131.3 62.4998 133 62.4998 133 63.4998C133 63.7998 132.7 64.1998 132.2 64.1998H126C125.5 64.1998 125.3 63.8998 125.3 63.4998Z" fill="#BC5118"/>
<path d="M144 63.6C144 62.5 145.6 62.2 145.6 60.5V41C145.6 39.3 143 38.5 143 37.2C143 36.8 143.3 36.5 143.9 36.5H148.3C149.2 36.5 149.8 36.7 150.4 37.5L165.2 56V40.3C165.2 38.4 163.2 38.5 163.2 37.2C163.2 36.9 163.4 36.6 164 36.6H168.5C169 36.6 169.2 36.8 169.2 37.1C169.2 38.2 167.6 38.6 167.6 40.3V63.4C167.6 64.8 166.1 65.1 165.2 64L148 42.4V60.5C148 62.4 150 62.4 150 63.6C150 64 149.7 64.2 149.3 64.2H144.7C144.2 64.2 144 63.9 144 63.6Z" fill="#BC5118"/>
<path d="M170.3 59.7999C170.3 55.8999 173.6 53.2999 181.3 52.5999V48.6999C181.3 46.6999 180.6 45.5999 178.9 45.5999C175.1 45.5999 175.4 50.5999 172.4 50.5999C171.2 50.5999 170.4 49.8999 170.4 48.5999C170.4 46.2999 173.5 43.8999 179 43.8999C183.6 43.8999 185.5 45.6999 185.5 49.1999V61.3999C185.5 62.0999 185.8 62.2999 186.2 62.2999C186.5 62.2999 186.8 62.1999 187.1 62.1999C187.4 62.1999 187.5 62.3999 187.5 62.6999C187.5 63.6999 186.2 64.6999 184.4 64.6999C182.1 64.6999 181.6 62.8999 181.4 61.7999C180 63.6999 177.7 64.6999 175.4 64.6999C172.2 64.7999 170.3 62.6999 170.3 59.7999ZM177.8 61.7999C179 61.7999 180.1 61.2999 181.4 60.1999V54.2999C176.3 54.9999 174.8 56.8999 174.8 58.8999C174.7 60.2999 175.6 61.7999 177.8 61.7999Z" fill="#BC5118"/>
<path d="M192.3 58.9C194 58.9 195.3 60.2 195.3 61.9C195.3 63.6 194 64.8 192.3 64.8C190.7 64.8 189.4 63.5 189.4 61.9C189.3 60.2 190.6 58.9 192.3 58.9ZM189.5 39.2C189.5 37.4 190.4 36 192.3 36C194.2 36 195.1 37.4 195.1 39.2C195.1 41.1 193.8 50.7 192.9 55.9C192.8 56.7 191.9 56.7 191.8 55.9C190.8 50.7 189.5 41.2 189.5 39.2Z" fill="#BC5118"/>
</g>
<defs>
<clipPath id="clip0_377:2796">
<rect width="252.4" height="105" fill="white"/>
</clipPath>
</defs>
</svg>
