<svg width="329" height="82" viewBox="0 0 329 82" fill="none" xmlns="http://www.w3.org/2000/svg">
<g clip-path="url(#clip0_377:2778)">
<path d="M301.1 80.3001L26.5001 71.6001C12.7001 71.2001 1.6001 57.6001 1.6001 41.0001C1.6001 24.4001 12.6001 10.8001 26.4001 10.4001L301.1 1.70009C315.4 1.20009 327.3 15.1001 327.3 32.3001V49.7001C327.3 66.9001 315.5 80.8001 301.1 80.3001Z" fill="white" stroke="#1F57C3" stroke-width="3.2904" stroke-miterlimit="10"/>
<path d="M39.6001 25.0005C41.2001 25.0005 42.5001 26.3005 42.5001 27.9005C42.5001 29.6005 41.2001 30.9005 39.6001 30.9005C37.9001 30.9005 36.6001 29.6005 36.6001 27.9005C36.6001 26.3005 37.9001 25.0005 39.6001 25.0005ZM42.4001 50.6005C42.4001 52.4005 41.5001 53.8005 39.6001 53.8005C37.7001 53.8005 36.8001 52.4005 36.8001 50.6005C36.8001 48.7005 38.1001 39.1005 39.0001 33.9005C39.1001 33.1005 40.0001 33.1005 40.1001 33.9005C41.1001 39.1005 42.4001 48.7005 42.4001 50.6005Z" fill="#1F57C3"/>
<path d="M45.2002 52.6001C45.2002 51.3001 47.2002 51.6001 47.2002 49.9001V28.9001C47.2002 27.2001 45.2002 27.5001 45.2002 26.2001C45.2002 25.9001 45.5002 25.6001 46.0002 25.6001H53.9002C62.6002 25.6001 65.8002 28.3001 65.8002 32.3001C65.8002 34.9001 63.6002 37.1001 59.5002 38.4001C65.2002 39.5001 67.3002 42.0001 67.3002 45.4001C67.3002 50.2001 63.4002 53.3001 55.7002 53.3001H46.1002C45.5002 53.2001 45.2002 52.9001 45.2002 52.6001ZM54.3002 37.6001C58.6002 37.6001 60.9002 35.9001 60.9002 32.5001C60.9002 29.6001 59.5002 27.4001 54.4002 27.4001H53.0002C52.3002 27.4001 51.9002 27.8001 51.9002 28.5001V37.5001H54.3002V37.6001ZM53.2002 51.3001H55.3002C60.4002 51.3001 62.2002 49.3001 62.2002 45.6001C62.2002 41.8001 60.2002 39.5001 54.4002 39.5001H51.7002V49.8001C51.8002 50.9001 52.2002 51.3001 53.2002 51.3001Z" fill="#1F57C3"/>
<path d="M69.8001 47.9003V38.5003C69.8001 37.0003 67.6001 37.4003 67.6001 36.3003C67.6001 36.0003 67.8001 35.7003 68.2001 35.5003L72.6001 33.2003C73.4001 32.8003 74.0001 33.1003 74.0001 33.9003V47.0003C74.0001 49.9003 74.9001 51.2003 77.6001 51.2003C78.9001 51.2003 80.3001 50.9003 82.0001 49.8003V38.5003C82.0001 37.0003 79.8001 37.4003 79.8001 36.2003C79.8001 35.9003 80.0001 35.7003 80.5001 35.4003L84.9001 33.2003C85.8001 32.8003 86.3001 33.1003 86.3001 33.9003V48.9003C86.3001 50.4003 88.5001 50.0003 88.5001 51.1003C88.5001 51.4003 88.3001 51.7003 87.9001 51.9003L83.5001 53.8003C82.5001 54.0003 82.0001 53.8003 82.0001 53.0003V51.6003C80.0001 53.1003 77.7001 53.9003 75.3001 53.9003C72.0001 53.8003 69.8001 52.0003 69.8001 47.9003Z" fill="#1F57C3"/>
<path d="M88.8003 43.3005C88.8003 37.1005 92.6003 33.0005 98.0003 33.0005C102.9 33.0005 105.8 36.4005 105.8 39.8005C105.8 41.5005 105.1 42.0005 103.9 42.0005H92.7003C92.8003 47.4005 95.5003 50.4005 99.5003 50.4005C103.3 50.4005 104.5 47.9005 105.5 47.9005C105.8 47.9005 105.9 48.1005 105.9 48.5005C105.9 48.7005 105.9 49.0005 105.7 49.4005C104.7 51.9005 101.9 53.8005 98.1003 53.8005C92.9003 53.8005 88.8003 49.8005 88.8003 43.3005ZM100.4 40.1005C101.2 40.1005 101.6 39.8005 101.6 39.1005C101.6 36.9005 100.5 34.8005 97.7003 34.8005C95.0003 34.8005 93.0003 36.7005 92.8003 40.1005H100.4Z" fill="#1F57C3"/>
<path d="M119.6 52.6004C119.6 51.6004 121.4 51.6004 121.4 50.7004V40.0004C121.4 37.0004 120.4 35.9004 118 35.9004C116.6 35.9004 114.9 36.2004 113.1 37.1004V50.6004C113.1 51.5004 114.9 51.5004 114.9 52.5004C114.9 52.8004 114.6 53.2004 114.1 53.2004H107.9C107.4 53.2004 107.1 52.9004 107.1 52.5004C107.1 51.5004 108.9 51.5004 108.9 50.6004V38.3004C108.9 36.9004 106.8 37.2004 106.8 36.1004C106.8 35.8004 107 35.5004 107.4 35.3004L111.7 33.1004C112.4 32.8004 113.1 32.9004 113.1 33.8004V35.5004C115.6 33.9004 118.6 32.9004 120.9 32.9004C124.1 32.9004 125.6 34.7004 125.6 38.0004V50.7004C125.6 51.6004 127.3 51.6004 127.3 52.6004C127.3 52.9004 127 53.3004 126.5 53.3004H120.3C119.9 53.2004 119.6 52.9004 119.6 52.6004Z" fill="#1F57C3"/>
<path d="M137.9 52.6001C137.9 51.4001 139.9 51.6001 139.9 49.9001V28.9001C139.9 27.2001 137.9 27.5001 137.9 26.2001C137.9 25.9001 138.2 25.6001 138.7 25.6001H146.8C155.6 25.6001 159.7 29.1001 159.7 34.0001C159.7 39.3001 155.1 42.5001 149.2 42.5001C147.8 42.5001 146.5 42.4001 144.6 42.0001V49.9001C144.6 51.6001 146.6 51.3001 146.6 52.6001C146.6 52.9001 146.3 53.2001 145.8 53.2001H138.7C138.2 53.2001 137.9 52.9001 137.9 52.6001ZM144.5 40.1001C146 40.4001 147 40.5001 148 40.5001C151.8 40.5001 154.6 38.8001 154.6 34.5001C154.6 29.9001 151.4 27.5001 145.7 27.5001C144.9 27.5001 144.5 27.9001 144.5 28.6001V40.1001Z" fill="#1F57C3"/>
<path d="M161.1 52.6003C161.1 51.6003 162.9 51.6003 162.9 50.7003V38.3003C162.9 36.8003 160.8 37.1003 160.8 36.1003C160.8 35.8003 161 35.5003 161.4 35.3003L165.7 33.2003C166.4 32.8003 167.2 33.0003 167.2 33.9003V36.4003C168.4 34.4003 170.4 33.1003 172.5 33.1003C174.4 33.1003 175.6 34.1003 175.6 35.7003C175.6 37.1003 174.6 37.9003 173.3 37.9003C171.6 37.9003 171.1 36.6003 169.6 36.6003C168.2 36.6003 167.3 37.6003 167.3 39.5003V50.8003C167.3 51.7003 169 51.7003 169 52.7003C169 53.0003 168.7 53.4003 168.2 53.4003H162C161.4 53.2003 161.1 52.9003 161.1 52.6003Z" fill="#1F57C3"/>
<path d="M175.3 43.4005C175.3 37.1005 179.5 33.0005 185.1 33.0005C190.7 33.0005 194.9 37.1005 194.9 43.4005C194.9 49.7005 190.7 53.8005 185.1 53.8005C179.5 53.8005 175.3 49.6005 175.3 43.4005ZM185.1 51.9005C188.2 51.9005 190 49.3005 190 44.5005V42.1005C190 37.0005 188.2 34.7005 185.1 34.7005C182 34.7005 180.2 37.0005 180.2 42.1005V44.5005C180.2 49.3005 182 51.9005 185.1 51.9005Z" fill="#1F57C3"/>
<path d="M202.1 52.6005L196.1 37.2005C195.3 35.3005 193.8 34.7005 193.8 34.0005C193.8 33.7005 194 33.5005 194.5 33.5005H201.7C202.1 33.5005 202.3 33.7005 202.3 34.0005C202.3 34.8005 200.6 35.2005 200.6 36.6005C200.6 36.9005 200.7 37.2005 200.8 37.6005L204.8 49.0005L209 37.7005C209.2 37.3005 209.2 37.0005 209.2 36.6005C209.2 35.3005 207.7 34.7005 207.7 34.0005C207.7 33.7005 207.9 33.6005 208.3 33.6005H213.2C213.5 33.6005 213.7 33.8005 213.7 34.1005C213.7 34.9005 212.2 35.4005 211.5 37.3005L205.5 52.8005C205.2 53.7005 204.5 54.0005 203.8 54.0005C203.1 54.0005 202.5 53.5005 202.1 52.6005Z" fill="#1F57C3"/>
<path d="M212.6 43.3005C212.6 37.1005 216.4 33.0005 221.8 33.0005C226.7 33.0005 229.6 36.4005 229.6 39.8005C229.6 41.5005 228.9 42.0005 227.7 42.0005H216.4C216.5 47.4005 219.2 50.4005 223.2 50.4005C227 50.4005 228.2 47.9005 229.2 47.9005C229.5 47.9005 229.6 48.1005 229.6 48.5005C229.6 48.7005 229.6 49.0005 229.4 49.4005C228.4 51.9005 225.6 53.8005 221.8 53.8005C216.7 53.8005 212.6 49.8005 212.6 43.3005ZM224.3 40.1005C225.1 40.1005 225.5 39.8005 225.5 39.1005C225.5 36.9005 224.4 34.8005 221.6 34.8005C218.9 34.8005 216.9 36.7005 216.7 40.1005H224.3Z" fill="#1F57C3"/>
<path d="M231.2 43.5004C231.2 37.1004 235.2 32.9004 240.8 32.9004C244.7 32.9004 248.1 35.0004 248.1 38.1004C248.1 39.6004 247.2 41.0004 245.5 41.0004C244 41.0004 242.9 39.9004 242.9 38.2004C242.9 37.6004 243 37.0004 243 36.5004C243 35.3004 242.3 34.7004 240.6 34.7004C237.3 34.7004 235 36.9004 235 41.8004C235 46.9004 237.6 50.2004 242.2 50.2004C245.7 50.2004 246.6 48.3004 247.4 48.3004C247.7 48.3004 247.9 48.5004 247.9 49.0004C247.9 50.9004 244.9 53.9004 240.4 53.9004C235.2 53.8004 231.2 49.9004 231.2 43.5004Z" fill="#1F57C3"/>
<path d="M248.9 52.6003C248.9 51.6003 250.7 51.6003 250.7 50.6003V30.3003C250.7 28.9003 248.6 29.2003 248.6 28.1003C248.6 27.8003 248.8 27.5003 249.2 27.3003L253.6 25.1003C254.3 24.8003 255 24.9003 255 25.8003V35.4003C257.5 34.0003 260.5 32.8003 263 32.8003C266.1 32.8003 267.5 34.7003 267.5 38.1003V50.5003C267.5 51.5003 269.3 51.5003 269.3 52.5003C269.3 52.8003 269 53.2003 268.5 53.2003H262.3C261.8 53.2003 261.5 52.9003 261.5 52.5003C261.5 51.5003 263.3 51.5003 263.3 50.5003V40.2003C263.3 37.2003 262.4 36.0003 259.9 36.0003C258.5 36.0003 256.8 36.4003 255 37.2003V50.6003C255 51.6003 256.7 51.6003 256.7 52.6003C256.7 52.9003 256.4 53.3003 255.9 53.3003H249.7C249.1 53.2003 248.9 52.9003 248.9 52.6003Z" fill="#1F57C3"/>
<path d="M269.9 43.4005C269.9 37.1005 274.1 33.0005 279.7 33.0005C285.3 33.0005 289.5 37.1005 289.5 43.4005C289.5 49.7005 285.3 53.8005 279.7 53.8005C274.2 53.8005 269.9 49.6005 269.9 43.4005ZM279.8 51.9005C282.9 51.9005 284.7 49.3005 284.7 44.5005V42.1005C284.7 37.0005 282.9 34.7005 279.8 34.7005C276.7 34.7005 274.9 37.0005 274.9 42.1005V44.5005C274.8 49.3005 276.7 51.9005 279.8 51.9005Z" fill="#1F57C3"/>
<path d="M294.4 47.9001C296.1 47.9001 297.4 49.2001 297.4 50.9001C297.4 52.6001 296.1 53.8001 294.4 53.8001C292.8 53.8001 291.5 52.5001 291.5 50.9001C291.5 49.3001 292.8 47.9001 294.4 47.9001ZM291.6 28.3001C291.6 26.5001 292.5 25.1001 294.4 25.1001C296.3 25.1001 297.2 26.5001 297.2 28.3001C297.2 30.2001 295.9 39.8001 295 45.0001C294.9 45.8001 294 45.8001 293.9 45.0001C292.9 39.7001 291.6 30.2001 291.6 28.3001Z" fill="#1F57C3"/>
</g>
<defs>
<clipPath id="clip0_377:2778">
<rect width="329" height="82" fill="white"/>
</clipPath>
</defs>
</svg>
