<svg width="279" height="65" viewBox="0 0 279 65" fill="none" xmlns="http://www.w3.org/2000/svg">
<g clip-path="url(#clip0_377:2709)">
<path d="M275.5 63.1001H2.7002L19.2002 32.4001L2.7002 1.6001H275.5L259 32.4001L275.5 63.1001Z" fill="white" stroke="#F66DBC" stroke-width="3.2904" stroke-miterlimit="10"/>
<path d="M38.1001 43.3003C38.1001 42.0003 40.1001 42.3003 40.1001 40.6003V19.6003C40.1001 17.9003 38.1001 18.2003 38.1001 16.9003C38.1001 16.6003 38.4001 16.3003 38.9001 16.3003H46.8001C55.5001 16.3003 58.7001 19.0003 58.7001 23.0003C58.7001 25.6003 56.5001 27.8003 52.4001 29.1003C58.1001 30.2003 60.2001 32.7003 60.2001 36.1003C60.2001 40.9003 56.3001 44.0003 48.6001 44.0003H39.0001C38.4001 43.9003 38.1001 43.6003 38.1001 43.3003ZM47.2001 28.3003C51.5001 28.3003 53.8001 26.6003 53.8001 23.2003C53.8001 20.3003 52.4001 18.1003 47.3001 18.1003H45.9001C45.2001 18.1003 44.8001 18.5003 44.8001 19.2003V28.2003H47.2001V28.3003ZM46.2001 42.0003H48.3001C53.4001 42.0003 55.2001 40.0003 55.2001 36.3003C55.2001 32.5003 53.2001 30.2003 47.4001 30.2003H44.7001V40.5003C44.7001 41.6003 45.2001 42.0003 46.2001 42.0003Z" fill="#F66DBC"/>
<path d="M61.3999 34.0001C61.3999 27.7001 65.5999 23.6001 71.1999 23.6001C76.7999 23.6001 80.9999 27.7001 80.9999 34.0001C80.9999 40.3001 76.7999 44.4001 71.1999 44.4001C65.5999 44.5001 61.3999 40.3001 61.3999 34.0001ZM71.1999 42.6001C74.2999 42.6001 76.0999 40.0001 76.0999 35.2001V32.8001C76.0999 27.7001 74.2999 25.4001 71.1999 25.4001C68.0999 25.4001 66.2999 27.7001 66.2999 32.8001V35.2001C66.2999 40.0001 68.0999 42.6001 71.1999 42.6001Z" fill="#F66DBC"/>
<path d="M94.5002 43.2C94.5002 42.2 96.3002 42.2 96.3002 41.3V30.7C96.3002 27.7 95.3002 26.6 92.9002 26.6C91.5002 26.6 89.8002 26.9 88.0002 27.8V41.3C88.0002 42.2 89.8002 42.2 89.8002 43.2C89.8002 43.5 89.5002 43.9 89.0002 43.9H82.8002C82.3002 43.9 82.0002 43.6 82.0002 43.2C82.0002 42.2 83.8002 42.2 83.8002 41.3V28.9C83.8002 27.5 81.7002 27.8 81.7002 26.7C81.7002 26.4 81.9002 26.1 82.3002 25.9L86.6002 23.7C87.3002 23.4 88.0002 23.5 88.0002 24.4V26.1C90.5002 24.5 93.5002 23.5 95.8002 23.5C99.0002 23.5 100.5 25.3 100.5 28.6V41.3C100.5 42.2 102.2 42.2 102.2 43.2C102.2 43.5 101.9 43.9 101.4 43.9H95.2002C94.7002 43.9 94.5002 43.6 94.5002 43.2Z" fill="#F66DBC"/>
<path d="M110.4 43.4002C110.4 42.4002 112 42.3002 112.8 40.3002L120.8 20.3002C121.5 18.6002 120.5 17.7002 120.5 16.9002C120.5 16.5002 120.7 16.2002 121.2 16.2002H124.1C124.9 16.2002 125.3 16.4002 125.5 17.0002L134.6 40.2002C135.4 42.2002 136.8 42.4002 136.8 43.3002C136.8 43.6002 136.6 43.9002 136.1 43.9002H128.4C127.9 43.9002 127.7 43.7002 127.7 43.4002C127.7 42.4002 129.6 42.0002 129.6 40.8002C129.6 40.5002 129.5 40.1002 129.3 39.7002L128 36.3002H117L115.7 39.7002C115.5 40.2002 115.4 40.6002 115.4 41.0002C115.4 42.3002 117.2 42.4002 117.2 43.4002C117.2 43.7002 117 43.9002 116.5 43.9002H111.2C110.6 43.9002 110.4 43.6002 110.4 43.4002ZM127.3 34.4002L122.5 21.9002L117.7 34.4002H127.3Z" fill="#F66DBC"/>
<path d="M136.4 49.9001C136.4 49.0001 138.2 49.0001 138.2 47.9001V29.0001C138.2 27.5001 136.1 27.8001 136.1 26.8001C136.1 26.5001 136.3 26.3001 136.7 26.0001L141 23.8001C141.8 23.4001 142.4 23.7001 142.4 24.5001V25.7001C144.3 24.3001 146.3 23.6001 148.3 23.6001C152.7 23.6001 155.3 26.9001 155.3 32.8001C155.3 39.7001 151.6 44.1001 146.3 44.1001C144.9 44.1001 143.7 43.8001 142.4 43.1001V48.0001C142.4 49.0001 144.1 49.0001 144.1 50.0001C144.1 50.4001 143.8 50.7001 143.3 50.7001H137.1C136.7 50.6001 136.4 50.4001 136.4 49.9001ZM145.9 42.2001C148.9 42.2001 150.9 39.4001 150.9 34.2001C150.9 29.0001 149.2 26.5001 145.7 26.5001C144.6 26.5001 143.6 26.7001 142.3 27.5001V37.9001C142.4 40.6001 143.7 42.2001 145.9 42.2001Z" fill="#F66DBC"/>
<path d="M156.5 49.9001C156.5 49.0001 158.3 49.0001 158.3 47.9001V29.0001C158.3 27.5001 156.2 27.8001 156.2 26.8001C156.2 26.5001 156.4 26.3001 156.8 26.0001L161.1 23.8001C161.9 23.4001 162.5 23.7001 162.5 24.5001V25.7001C164.4 24.3001 166.4 23.6001 168.4 23.6001C172.8 23.6001 175.4 26.9001 175.4 32.8001C175.4 39.7001 171.7 44.1001 166.4 44.1001C165 44.1001 163.8 43.8001 162.5 43.1001V48.0001C162.5 49.0001 164.2 49.0001 164.2 50.0001C164.2 50.4001 163.9 50.7001 163.4 50.7001H157.2C156.8 50.6001 156.5 50.4001 156.5 49.9001ZM166.1 42.2001C169.1 42.2001 171.1 39.4001 171.1 34.2001C171.1 29.0001 169.4 26.5001 165.9 26.5001C164.8 26.5001 163.8 26.7001 162.5 27.5001V37.9001C162.5 40.6001 163.8 42.2001 166.1 42.2001Z" fill="#F66DBC"/>
<path d="M177 33.9003C177 27.7003 180.8 23.6003 186.2 23.6003C191.1 23.6003 194 27.0003 194 30.4003C194 32.1003 193.3 32.6003 192.1 32.6003H180.8C180.9 38.0003 183.6 41.0003 187.6 41.0003C191.4 41.0003 192.6 38.5003 193.6 38.5003C193.9 38.5003 194 38.7003 194 39.1003C194 39.3003 194 39.6003 193.8 40.0003C192.8 42.5003 190 44.4003 186.2 44.4003C181.1 44.5003 177 40.5003 177 33.9003ZM188.7 30.8003C189.5 30.8003 189.9 30.5003 189.9 29.8003C189.9 27.6003 188.8 25.5003 186 25.5003C183.3 25.5003 181.3 27.4003 181.1 30.8003H188.7ZM185.3 17.6003C186.3 16.4003 187 15.8003 188 15.8003C189.2 15.8003 190 16.7003 190 17.8003C190 18.7003 189.4 19.5003 188 20.1003L183.8 22.0003C182.8 22.4003 181.9 21.4003 182.7 20.4003L185.3 17.6003Z" fill="#F66DBC"/>
<path d="M197.5 39.6001V26.9001C197.5 26.2001 197.1 25.8001 196.4 25.8001H195.1C194.1 25.8001 193.7 24.9001 194.6 24.3001L200.4 19.5001C201.1 18.9001 201.8 19.2001 201.8 20.1001V24.2001H207.7C208.2 24.2001 208.4 24.4001 208.4 24.9001V25.5001C208.4 25.9001 208.2 26.2001 207.7 26.2001H201.8V39.7001C201.8 41.4001 202.5 42.1001 204.3 42.1001C205.9 42.1001 206.8 41.7001 207.3 41.7001C207.7 41.7001 207.8 41.9001 207.8 42.2001C207.8 43.3001 205.1 44.7001 202.2 44.7001C199.2 44.5001 197.5 43.1001 197.5 39.6001Z" fill="#F66DBC"/>
<path d="M209.2 43.2C209.2 42.2 211 42.2 211 41.2V28.9C211 27.5 208.8 27.9 208.8 26.7C208.8 26.4 209 26.1 209.4 25.9L213.7 23.7C214.6 23.3 215.1 23.6 215.1 24.4V41.1C215.1 42.1 216.9 42.1 216.9 43.1C216.9 43.4 216.5 43.8 216 43.8H210C209.6 43.9 209.2 43.6 209.2 43.2ZM213 16.5C214.5 16.5 215.7 17.7 215.7 19.1C215.7 20.5 214.5 21.7 213 21.7C211.5 21.7 210.3 20.6 210.3 19.1C210.3 17.6 211.5 16.5 213 16.5Z" fill="#F66DBC"/>
<path d="M220.3 39.6001V26.9001C220.3 26.2001 219.9 25.8001 219.2 25.8001H217.9C216.9 25.8001 216.5 24.9001 217.4 24.3001L223.2 19.5001C223.9 18.9001 224.6 19.2001 224.6 20.1001V24.2001H230.5C231 24.2001 231.2 24.4001 231.2 24.9001V25.5001C231.2 25.9001 231 26.2001 230.5 26.2001H224.6V39.7001C224.6 41.4001 225.3 42.1001 227.1 42.1001C228.7 42.1001 229.6 41.7001 230.1 41.7001C230.5 41.7001 230.6 41.9001 230.6 42.2001C230.6 43.3001 227.9 44.7001 225 44.7001C222 44.5001 220.3 43.1001 220.3 39.6001Z" fill="#F66DBC"/>
<path d="M235 38.6002C236.7 38.6002 238 39.9002 238 41.6002C238 43.3002 236.7 44.5002 235 44.5002C233.4 44.5002 232.1 43.2002 232.1 41.6002C232.1 40.0002 233.4 38.6002 235 38.6002ZM232.2 18.9002C232.2 17.1002 233.1 15.7002 235 15.7002C236.9 15.7002 237.8 17.1002 237.8 18.9002C237.8 20.8002 236.5 30.4002 235.6 35.6002C235.5 36.4002 234.6 36.4002 234.5 35.6002C233.5 30.4002 232.2 20.9002 232.2 18.9002Z" fill="#F66DBC"/>
</g>
<defs>
<clipPath id="clip0_377:2709">
<rect width="278.2" height="64.7" fill="white"/>
</clipPath>
</defs>
</svg>
