<svg width="445" height="83" viewBox="0 0 445 83" fill="none" xmlns="http://www.w3.org/2000/svg">
<path d="M222.5 81.2C344.279 81.2 443 63.4705 443 41.6C443 19.7295 344.279 2 222.5 2C100.721 2 2 19.7295 2 41.6C2 63.4705 100.721 81.2 222.5 81.2Z" fill="white" stroke="#BDA1E7" stroke-width="3.2904" stroke-miterlimit="10"/>
<path d="M76 49.8V28.2H82.6V30.4H78.6V52.8H77.8C76.2 50.5 73.9 48.6 71 47.2C68.1 45.8 64.9 45.1 61.7 45L59.8 40.7C60.3 40.9 61.2 41 62.7 41C65.2 41 67.4 40.3 69.3 39C71.2 37.7 72.1 36.1 72.1 34.4C72.1 33 71.6 31.9 70.6 31C70.6 32.9 69.9 34.5 68.5 35.8C67.1 37.1 65.5 37.8 63.7 37.8C62.2 37.8 60.8 37.3 59.7 36.4C58.6 35.5 58 34.3 58 32.8C58 31.7 58.3 30.8 59 30.2C59.6 29.5 60.5 29.2 61.5 29.2C62.5 29.2 63.3 29.5 63.8 30.1C64.4 30.7 64.7 31.5 64.7 32.5C64.7 33 64.5 33.5 64.1 34C63.7 34.5 63.1 34.8 62.3 34.9C61.8 35 61.5 35.2 61.5 35.4C61.5 35.8 61.7 36 62.1 36.3C62.5 36.5 63 36.6 63.5 36.6C64.7 36.6 65.7 36.1 66.6 35C67.5 33.9 67.9 32.8 67.9 31.4C67.9 29.6 67.5 28.3 66.6 27.5C69 28 70.7 29 72 30.4C73.2 31.8 73.8 33.4 73.8 35.2C73.8 36.9 73.2 38.5 72.1 39.9C71 41.3 69.3 42.4 67.1 43.2C70 44.6 73.1 46.8 76 49.8Z" fill="#BDA1E7"/>
<path d="M85.9002 28.1998V24.7998H86.7002L87.7002 28.1998H92.4002V30.3998H88.4002V52.7998H87.4002L85.9002 50.4998V30.4998H82.2002V28.2998H85.9002V28.1998Z" fill="#BDA1E7"/>
<path d="M92.2002 30.4998V28.2998H116.6V30.4998H112.6V52.8998H111.7C109.8 49.9998 107.5 47.6998 104.6 45.8998C101.7 44.0998 98.9002 43.2998 96.1002 43.2998C95.8002 43.2998 95.4002 43.2998 95.1002 43.2998L93.8002 39.5998L110 31.5998V30.4998H92.2002ZM110 49.3998V34.6998L98.3002 40.3998C100.4 40.8998 102.5 41.9998 104.6 43.5998C106.6 45.2998 108.4 47.1998 110 49.3998Z" fill="#BDA1E7"/>
<path d="M119.9 28.1998V24.7998H120.7L121.7 28.1998H126.4V30.3998H122.4V52.7998H121.4L119.9 50.4998V30.4998H116.2V28.2998H119.9V28.1998Z" fill="#BDA1E7"/>
<path d="M126.1 30.4998V28.2998H150.5V30.4998H146.5V52.8998H145.6C143.7 49.9998 141.4 47.6998 138.5 45.8998C135.6 44.0998 132.8 43.2998 130 43.2998C129.7 43.2998 129.3 43.2998 129 43.2998L127.7 39.5998L143.9 31.5998V30.4998H126.1ZM144 49.3998V34.6998L132.3 40.3998C134.4 40.8998 136.5 41.9998 138.6 43.5998C140.6 45.2998 142.4 47.1998 144 49.3998ZM133.2 50.8998C133.2 50.1998 133.5 49.4998 134 48.9998C134.5 48.4998 135.2 48.1998 135.9 48.1998C136.6 48.1998 137.3 48.4998 137.8 48.9998C138.3 49.4998 138.6 50.1998 138.6 50.8998C138.6 51.5998 138.3 52.2998 137.8 52.7998C137.3 53.2998 136.6 53.5998 135.9 53.5998C135.2 53.5998 134.5 53.2998 134 52.7998C133.4 52.2998 133.2 51.6998 133.2 50.8998Z" fill="#BDA1E7"/>
<path d="M185.4 28.1999V30.3999H172.8V40.0999C172.8 40.5999 173 40.7999 173.5 40.7999C174.2 40.7999 175.2 39.9999 176.5 38.3999C177.8 36.7999 178.5 35.0999 178.7 33.0999C179.9 33.9999 180.8 35.1999 181.4 36.5999C182 37.9999 182.3 39.6999 182.3 41.6999C182.3 44.7999 181.5 47.4999 179.8 49.5999C178.2 51.6999 176 52.6999 173.4 52.6999C171.3 52.6999 169.3 51.8999 167.5 50.2999C165.7 48.6999 164.1 46.1999 162.9 42.8999C161.6 39.5999 160.8 36.0999 160.5 32.2999L161.4 32.1999C162.3 37.8999 163.8 42.0999 165.7 44.9999C167.7 47.7999 170.1 49.1999 173.1 49.1999C175.4 49.1999 177.2 48.4999 178.6 47.0999C180 45.6999 180.8 43.6999 180.8 41.0999C180.8 40.2999 180.6 39.2999 180.2 37.8999C179.1 39.4999 177.9 40.6999 176.6 41.5999C175.3 42.4999 174.1 42.8999 173.1 42.8999C172.5 42.8999 172 42.6999 171.5 42.3999C171 42.0999 170.6 41.4999 170.2 40.7999V30.4999H158.7V28.2999H179.8C179.7 27.0999 179.4 26.0999 178.8 25.4999C178.2 24.8999 177.2 24.5999 175.8 24.5999C174.9 24.5999 174 24.6999 173 24.8999C172 25.0999 171.1 25.1999 170.4 25.1999C168.5 25.1999 167.1 24.5999 166.1 23.3999C165.1 22.1999 164.6 20.5999 164.6 18.4999C164.6 18.0999 164.6 17.7999 164.7 17.3999H165.7V17.7999C165.7 19.2999 166 20.3999 166.7 21.0999C167.3 21.7999 168.3 22.1999 169.6 22.1999C169.8 22.1999 170.6 22.0999 171.9 21.8999C173.2 21.6999 174.2 21.5999 174.9 21.5999C176.8 21.5999 178.2 22.1999 179.2 23.2999C180.2 24.3999 180.8 26.0999 181 28.1999H185.4Z" fill="#BDA1E7"/>
<path d="M207.1 30.4997V52.8997H206.2L204.6 50.4997V39.2997C204.6 37.9997 204.3 36.9997 203.8 36.3997L193.1 45.4997L190.5 43.9997L194.8 40.2997C194.9 39.9997 194.9 39.5997 194.9 39.2997C194.9 38.4997 194.6 37.7997 194.1 37.2997C193.6 36.7997 192.9 36.4997 192.1 36.4997C191.5 36.4997 190.9 36.6997 190.3 37.0997C189.7 37.4997 189.2 37.6997 188.9 37.6997C188.2 37.6997 187.7 37.4997 187.4 37.0997C187.1 36.6997 186.9 36.1997 186.9 35.3997C186.9 33.7997 187.7 32.1997 189.3 30.5997C190.9 28.9997 192.9 28.1997 195.2 28.1997C196.9 28.1997 198.6 28.7997 200.2 29.9997C201.8 31.1997 203.2 32.9997 204.6 35.2997V28.1997H211.2V30.3997H207.1V30.4997ZM197.3 38.0997L202.3 33.8997C200.7 31.7997 198.8 30.6997 196.8 30.6997C195.3 30.6997 193.8 31.2997 192.3 32.3997C190.8 33.4997 190.1 34.4997 190.1 35.1997C190.1 35.4997 190.3 35.5997 190.6 35.5997C190.8 35.4997 191 35.4997 191.3 35.3997C191.6 35.2997 191.8 35.2997 192 35.2997C192.2 35.2997 192.5 35.2997 192.7 35.2997C194.6 35.2997 196.2 36.1997 197.3 38.0997Z" fill="#BDA1E7"/>
<path d="M210.8 30.4998V28.2998H238.6V30.4998H210.8ZM212.4 32.3998H213.4C214.2 37.5998 215.7 41.6998 217.9 44.6998C220.2 47.6998 222.9 49.1998 226.2 49.1998C228.7 49.1998 230.7 48.3998 232.2 46.6998C233.7 44.9998 234.5 43.0998 234.5 40.9998C234.5 39.7998 234.3 38.6998 233.8 37.7998C233.2 39.4998 232.3 40.8998 230.9 41.8998C229.5 42.8998 227.9 43.4998 226.1 43.4998C224.3 43.4998 222.7 42.8998 221.5 41.5998C220.3 40.2998 219.6 38.7998 219.6 36.9998C219.6 35.5998 220 34.4998 220.8 33.5998C221.6 32.6998 222.6 32.2998 223.9 32.2998C225.1 32.2998 226 32.5998 226.7 33.2998C227.4 33.8998 227.7 34.7998 227.7 35.7998C227.7 36.5998 227.4 37.3998 226.8 37.9998C226.2 38.5998 225.5 38.8998 224.6 38.8998C223.7 38.8998 223 38.5998 222.5 38.0998C222 37.5998 221.7 37.2998 221.6 37.2998C221.2 37.2998 221.1 37.5998 221.1 38.2998C221.1 39.2998 221.5 40.0998 222.2 40.7998C222.9 41.4998 223.9 41.7998 225.1 41.7998C226.9 41.7998 228.4 41.0998 229.5 39.5998C230.6 38.0998 231.1 36.2998 231.1 34.0998C231.1 33.7998 231.1 33.3998 231.1 33.0998C234.2 35.4998 235.8 38.4998 235.8 42.2998C235.8 45.3998 234.9 47.9998 233.2 49.9998C231.5 51.9998 229.3 52.9998 226.5 52.9998C222.4 52.9998 219.1 50.6998 216.5 46.1998C214 41.4998 212.6 36.9998 212.4 32.3998Z" fill="#BDA1E7"/>
<path d="M251.6 30.4998H248.3C246.4 31.7998 244.9 33.6998 243.7 36.0998C242.5 38.4998 241.9 41.0998 241.9 43.6998C241.9 44.8998 242.1 45.9998 242.5 47.0998C242.9 48.1998 243.3 48.6998 243.8 48.6998C244.1 48.6998 244.3 48.4998 244.4 47.9998C244.8 46.4998 245.7 45.7998 247 45.7998C247.8 45.7998 248.5 46.0998 249.1 46.6998C249.7 47.2998 250 48.0998 250 49.1998C250 50.2998 249.7 51.1998 249.1 51.7998C248.5 52.4998 247.8 52.7998 246.9 52.7998C245 52.7998 243.5 51.6998 242.3 49.5998C241.1 47.3998 240.5 44.9998 240.5 42.2998C240.5 37.5998 241.7 33.5998 244.2 30.3998H238.3V28.1998H251.6V30.4998ZM261.8 39.8998C261.8 40.5998 261.5 41.2998 261 41.7998C260.5 42.2998 259.8 42.5998 259.1 42.5998C258.3 42.5998 257.7 42.2998 257.2 41.7998C256.7 41.2998 256.4 40.5998 256.4 39.8998C256.4 39.1998 256.7 38.4998 257.2 37.9998C257.7 37.4998 258.4 37.1998 259.1 37.1998C259.8 37.1998 260.5 37.4998 261 37.9998C261.5 38.5998 261.8 39.1998 261.8 39.8998ZM269.9 28.1998V24.7998H270.7L271.7 28.1998H276.4V30.3998H272.4V52.7998H271.4L269.9 50.4998V30.4998H266.2V28.2998H269.9V28.1998Z" fill="#BDA1E7"/>
<path d="M297 30.4999V52.8999H296.1L294.5 50.4999V39.6999C293.9 37.1999 292.8 35.0999 291.3 33.3999C289.8 31.6999 288.1 30.7999 286.3 30.7999C284.7 30.7999 283.3 31.2999 282.2 32.1999C281.1 33.0999 280.6 34.1999 280.6 35.2999C280.6 35.8999 280.7 36.0999 281 36.0999C281 36.0999 281.4 35.8999 282.2 35.5999C283 35.2999 283.9 35.0999 285 35.0999C286.5 35.0999 287.8 35.4999 288.7 36.2999C289.6 37.0999 290.1 38.1999 290.1 39.5999C290.1 41.0999 289.4 42.5999 288 44.0999C286.6 45.5999 284.8 46.5999 282.5 47.1999L279.5 44.0999C282 43.7999 284 43.1999 285.7 42.0999C287.4 40.9999 288.3 39.8999 288.3 38.6999C288.3 38.0999 288.1 37.5999 287.7 37.1999C287.3 36.7999 286.8 36.4999 286.1 36.4999C284.8 36.4999 283.5 37.3999 282.2 39.2999C280.9 38.8999 279.9 38.1999 279.1 37.2999C278.3 36.2999 277.9 35.1999 277.9 33.9999C277.9 32.4999 278.5 31.1999 279.8 30.0999C281.1 28.9999 282.8 28.3999 284.8 28.3999C286.8 28.3999 288.6 29.0999 290.1 30.3999C291.6 31.6999 293.1 33.7999 294.4 36.6999V28.3999H301V30.5999H297V30.4999Z" fill="#BDA1E7"/>
<path d="M309.3 30.4998V28.2998H341.2V30.4998H328.8V32.6998C331.7 32.5998 334.1 33.1998 336 34.4998C337.9 35.7998 338.9 37.5998 338.9 39.8998C338.9 41.3998 338.5 42.5998 337.7 43.5998C336.9 44.5998 335.9 44.9998 334.7 44.9998C333.8 44.9998 333.1 44.6998 332.5 44.1998C331.9 43.6998 331.6 42.8998 331.6 41.9998C331.6 40.9998 331.8 40.1998 332.3 39.6998C332.8 39.1998 333.5 38.8998 334.4 38.8998C335.2 38.8998 335.9 39.1998 336.3 39.7998C336.7 40.3998 337 40.7998 337.3 40.7998C337.6 40.7998 337.8 40.3998 337.8 39.5998C337.8 38.2998 337.1 37.1998 335.8 36.4998C334.5 35.7998 332.7 35.3998 330.5 35.3998C329.9 35.3998 329.3 35.4998 328.8 35.5998V52.9998H327.9C325.8 49.7998 323.3 47.3998 320.3 45.7998C317.3 44.1998 314.6 43.4998 312.2 43.5998L310.9 39.9998L326.3 33.1998V30.5998H309.3V30.4998ZM326.3 49.2998V36.2998L315.8 40.6998C317.6 41.4998 319.4 42.4998 321.2 43.9998C323 45.4998 324.6 47.0998 326.3 49.2998Z" fill="#BDA1E7"/>
<path d="M340.9 30.4998V28.2998H365.3V30.4998H361.3V52.8998H360.4C358.5 49.9998 356.2 47.6998 353.3 45.8998C350.4 44.0998 347.6 43.2998 344.8 43.2998C344.5 43.2998 344.1 43.2998 343.8 43.2998L342.5 39.5998L358.7 31.5998V30.4998H340.9ZM358.7 49.3998V34.6998L347 40.3998C349.1 40.8998 351.2 41.9998 353.3 43.5998C355.4 45.2998 357.2 47.1998 358.7 49.3998ZM347.9 50.8998C347.9 50.1998 348.2 49.4998 348.7 48.9998C349.2 48.4998 349.9 48.1998 350.6 48.1998C351.3 48.1998 352 48.4998 352.5 48.9998C353 49.4998 353.3 50.1998 353.3 50.8998C353.3 51.5998 353 52.2998 352.5 52.7998C352 53.2998 351.3 53.5998 350.6 53.5998C349.9 53.5998 349.2 53.2998 348.7 52.7998C348.2 52.2998 347.9 51.6998 347.9 50.8998Z" fill="#BDA1E7"/>
<path d="M359.8 57.4L360.1 56H361.1C361.2 56.2 361.1 56.9 360.9 58.1C362.5 59 364.4 60.6 366.5 63.1L365.7 63.9C363.7 61.8 361.9 60.4 360.4 59.7C359.1 62.1 357.2 63.2 354.8 63.2C353.5 63.2 352.5 62.9 351.7 62.3C350.9 61.7 350.5 60.9 350.5 59.9C350.5 58.9 350.9 58.1 351.8 57.4C352.7 56.7 353.8 56.4 355.1 56.4C356.2 56.3 357.8 56.6 359.8 57.4ZM359.2 59C358.4 58.6 357.4 58.5 356.3 58.4H356.2C355.5 58.4 354.8 58.6 354.4 58.9C353.9 59.2 353.7 59.6 353.7 60.1C353.7 61.1 354.4 61.5 355.7 61.5C356.4 61.5 357.1 61.3 357.8 60.8C358.4 60.4 358.9 59.8 359.2 59Z" fill="#BDA1E7"/>
<path d="M365 30.4998V28.2998H389.4V30.4998H385.4V52.8998H384.6C383.4 49.1998 381.8 46.3998 379.8 44.3998C377.8 42.3998 376.1 41.3998 374.8 41.3998C374.3 41.3998 374 41.5998 374 42.0998C374.1 42.6998 374.2 43.0998 374.2 43.1998C374.2 44.0998 373.9 44.8998 373.2 45.4998C372.6 46.0998 371.7 46.3998 370.6 46.3998C369.5 46.3998 368.6 45.9998 367.9 45.2998C367.2 44.5998 366.8 43.5998 366.8 42.2998C366.8 41.0998 367.3 39.9998 368.3 39.1998C369.3 38.3998 370.4 37.9998 371.7 37.9998C373.7 37.9998 375.6 38.7998 377.4 40.2998C379.3 41.7998 381.1 44.0998 382.9 47.1998V30.4998H365Z" fill="#BDA1E7"/>
</svg>
