<svg width="291" height="82" viewBox="0 0 291 82" fill="none" xmlns="http://www.w3.org/2000/svg">
<g clip-path="url(#clip0_377:2808)">
<path d="M24.8001 1.69969L267.3 10.3997C279.5 10.7997 289.2 24.3997 289.2 40.9997C289.2 57.5997 279.5 71.1997 267.3 71.5997L24.8001 80.2997C12.1001 80.7997 1.6001 66.8997 1.6001 49.6997V32.2997C1.6001 14.9997 12.1001 1.19969 24.8001 1.69969Z" fill="white"/>
<path d="M24.1 81.9999C19 81.9999 14.1 79.8999 10 75.8999C3.7 69.7999 0 59.9999 0 49.6999V32.2999C0 21.8999 3.7 12.0999 10 6.09988C14.3 1.89988 19.4 -0.200124 24.8 -0.000123631L267.3 8.69988C280.5 9.19988 290.8 23.2999 290.8 40.9999C290.8 58.5999 280.5 72.7999 267.3 73.2999L24.8 81.9999C24.6 81.9999 24.4 81.9999 24.1 81.9999ZM24.2 3.29988C19.9 3.29988 15.9 5.09988 12.3 8.49988C6.7 13.8999 3.3 22.7999 3.3 32.2999V49.6999C3.3 59.1999 6.7 68.0999 12.3 73.4999C16 76.9999 20.3 78.7999 24.7 78.6999L267.2 69.9999C278.4 69.5999 287.5 56.5999 287.5 40.9999C287.5 25.3999 278.4 12.3999 267.2 11.9999L24.7 3.29988C24.5 3.29988 24.3 3.29988 24.2 3.29988Z" fill="#14A800"/>
<path d="M38.2002 52.6001C38.2002 51.3001 40.2002 51.6001 40.2002 49.9001V28.9001C40.2002 27.2001 38.2002 27.5001 38.2002 26.2001C38.2002 25.9001 38.5002 25.6001 39.0002 25.6001H46.9002C55.6002 25.6001 58.8002 28.3001 58.8002 32.3001C58.8002 34.9001 56.6002 37.1001 52.5002 38.4001C58.2002 39.5001 60.3002 42.0001 60.3002 45.4001C60.3002 50.2001 56.4002 53.3001 48.7002 53.3001H39.0002C38.5002 53.2001 38.2002 52.9001 38.2002 52.6001ZM47.3002 37.6001C51.6002 37.6001 53.9002 35.9001 53.9002 32.5001C53.9002 29.6001 52.5002 27.4001 47.4002 27.4001H46.0002C45.3002 27.4001 44.9002 27.8001 44.9002 28.5001V37.5001H47.3002V37.6001ZM46.3002 51.3001H48.4002C53.5002 51.3001 55.3002 49.3001 55.3002 45.6001C55.3002 41.8001 53.3002 39.5001 47.5002 39.5001H44.8002V49.8001C44.8002 51.0001 45.2002 51.3001 46.3002 51.3001Z" fill="#14A800"/>
<path d="M61.8003 43.4C61.8003 37.1 66.0003 33 71.6003 33C77.2003 33 81.4003 37.1 81.4003 43.4C81.4003 49.7 77.2003 53.8 71.6003 53.8C66.0003 53.8 61.8003 49.6 61.8003 43.4ZM71.6003 51.9C74.7003 51.9 76.5003 49.3 76.5003 44.5V42.1C76.5003 37 74.7003 34.7 71.6003 34.7C68.5003 34.7 66.7003 37 66.7003 42.1V44.5C66.7003 49.3 68.5003 51.9 71.6003 51.9Z" fill="#14A800"/>
<path d="M106.3 52.5999C106.3 51.5999 108.1 51.5999 108.1 50.6999V39.8999C108.1 36.7999 107.1 35.5999 104.5 35.5999C103.1 35.5999 101.8 35.8999 100.2 36.6999C100.3 37.2999 100.4 37.8999 100.4 38.6999V50.7999C100.4 51.6999 102.2 51.6999 102.2 52.6999C102.2 52.9999 101.9 53.3999 101.4 53.3999H95.2001C94.7001 53.3999 94.3001 53.0999 94.3001 52.6999C94.3001 51.6999 96.1001 51.6999 96.1001 50.7999V39.8999C96.1001 36.7999 95.1001 35.5999 92.6001 35.5999C91.3001 35.5999 90.0001 35.8999 88.5001 36.6999V50.6999C88.5001 51.5999 90.2001 51.5999 90.2001 52.5999C90.2001 52.8999 89.9001 53.2999 89.4001 53.2999H83.2001C82.7001 53.2999 82.4001 52.9999 82.4001 52.5999C82.4001 51.5999 84.2001 51.5999 84.2001 50.6999V38.2999C84.2001 36.8999 82.1001 37.1999 82.1001 36.0999C82.1001 35.7999 82.3001 35.4999 82.8001 35.1999L87.1001 33.0999C87.9001 32.6999 88.5001 32.9999 88.5001 33.7999V34.9999C90.9001 33.5999 93.1001 32.8999 95.4001 32.8999C97.5001 32.8999 99.0001 33.5999 99.7001 35.1999C102 33.6999 104.7 32.8999 107.2 32.8999C110.4 32.8999 112.2 34.3999 112.2 38.5999V50.6999C112.2 51.5999 114 51.5999 114 52.5999C114 52.8999 113.7 53.2999 113.2 53.2999H107C106.7 53.1999 106.3 52.8999 106.3 52.5999Z" fill="#14A800"/>
<path d="M122.3 52.7C122.3 51.7 123.9 51.6 124.7 49.6L132.7 29.6C133.4 27.9 132.4 27 132.4 26.2C132.4 25.8 132.6 25.5 133.1 25.5H136C136.8 25.5 137.2 25.7 137.4 26.3L146.5 49.5C147.3 51.5 148.7 51.7 148.7 52.6C148.7 52.9 148.5 53.2 148 53.2H140.3C139.8 53.2 139.6 53 139.6 52.7C139.6 51.7 141.5 51.3 141.5 50.1C141.5 49.8 141.4 49.4 141.2 49L139.9 45.6H128.8L127.5 49C127.3 49.5 127.2 49.9 127.2 50.3C127.2 51.6 129 51.7 129 52.7C129 53 128.8 53.2 128.3 53.2H123C122.5 53.2 122.3 53 122.3 52.7ZM139.2 43.7L134.4 31.2L129.6 43.7H139.2Z" fill="#14A800"/>
<path d="M148.6 59.2999C148.6 58.3999 150.4 58.3999 150.4 57.2999V38.2999C150.4 36.7999 148.3 37.0999 148.3 36.0999C148.3 35.7999 148.5 35.5999 148.9 35.2999L153.2 33.0999C154 32.6999 154.6 32.9999 154.6 33.7999V34.9999C156.5 33.5999 158.5 32.8999 160.5 32.8999C164.9 32.8999 167.5 36.1999 167.5 42.0999C167.5 48.9999 163.8 53.3999 158.5 53.3999C157.1 53.3999 155.9 53.0999 154.6 52.3999V57.2999C154.6 58.2999 156.3 58.2999 156.3 59.2999C156.3 59.6999 156 59.9999 155.5 59.9999H149.3C148.9 59.9999 148.6 59.6999 148.6 59.2999ZM158.2 51.4999C161.2 51.4999 163.2 48.6999 163.2 43.4999C163.2 38.2999 161.5 35.7999 158 35.7999C156.9 35.7999 155.9 35.9999 154.6 36.7999V47.1999C154.6 49.8999 155.9 51.4999 158.2 51.4999Z" fill="#14A800"/>
<path d="M169.1 43.3C169.1 37.1 172.9 33 178.3 33C183.2 33 186.1 36.4 186.1 39.8C186.1 41.5 185.4 42 184.2 42H173C173.1 47.4 175.8 50.4 179.8 50.4C183.6 50.4 184.8 47.9 185.8 47.9C186.1 47.9 186.2 48.1 186.2 48.5C186.2 48.7 186.2 49 186 49.4C185 51.9 182.2 53.8 178.4 53.8C173.2 53.8 169.1 49.8 169.1 43.3ZM180.7 40.1C181.5 40.1 181.9 39.8 181.9 39.1C181.9 36.9 180.8 34.8 178 34.8C175.3 34.8 173.3 36.7 173.1 40.1H180.7Z" fill="#14A800"/>
<path d="M189.6 48.9V36.1999C189.6 35.4999 189.2 35.0999 188.5 35.0999H187.2C186.2 35.0999 185.8 34.1999 186.7 33.5999L192.5 28.7999C193.2 28.1999 193.9 28.4999 193.9 29.3999V33.4999H199.8C200.3 33.4999 200.5 33.6999 200.5 34.1999V34.7999C200.5 35.1999 200.3 35.4999 199.8 35.4999H193.9V48.9999C193.9 50.6999 194.6 51.4 196.4 51.4C198 51.4 198.9 50.9999 199.4 50.9999C199.8 50.9999 199.9 51.1999 199.9 51.4999C199.9 52.5999 197.2 53.9999 194.3 53.9999C191.3 53.7999 189.6 52.4 189.6 48.9Z" fill="#14A800"/>
<path d="M201.3 52.5999C201.3 51.5999 203.1 51.5999 203.1 50.5999V38.1999C203.1 36.7999 200.9 37.1999 200.9 35.9999C200.9 35.6999 201.1 35.3999 201.5 35.1999L205.8 32.9999C206.7 32.5999 207.2 32.8999 207.2 33.6999V50.3999C207.2 51.3999 209 51.3999 209 52.3999C209 52.6999 208.6 53.0999 208.1 53.0999H201.9C201.6 53.1999 201.3 52.8999 201.3 52.5999ZM205 25.8999C206.5 25.8999 207.7 27.0999 207.7 28.4999C207.7 29.9999 206.5 31.0999 205 31.0999C203.5 31.0999 202.3 29.9999 202.3 28.4999C202.3 26.9999 203.6 25.8999 205 25.8999Z" fill="#14A800"/>
<path d="M212.4 48.9V36.1999C212.4 35.4999 212 35.0999 211.3 35.0999H210C209 35.0999 208.6 34.1999 209.5 33.5999L215.3 28.7999C216 28.1999 216.7 28.4999 216.7 29.3999V33.4999H222.6C223.1 33.4999 223.3 33.6999 223.3 34.1999V34.7999C223.3 35.1999 223.1 35.4999 222.6 35.4999H216.7V48.9999C216.7 50.6999 217.4 51.4 219.2 51.4C220.8 51.4 221.7 50.9999 222.2 50.9999C222.6 50.9999 222.7 51.1999 222.7 51.4999C222.7 52.5999 220 53.9999 217.1 53.9999C214.1 53.7999 212.4 52.4 212.4 48.9Z" fill="#14A800"/>
<path d="M222.6 43.3C222.6 37.1 226.4 33 231.8 33C236.7 33 239.6 36.4 239.6 39.8C239.6 41.5 238.9 42 237.7 42H226.4C226.5 47.4 229.2 50.4 233.2 50.4C237 50.4 238.2 47.9 239.2 47.9C239.5 47.9 239.6 48.1 239.6 48.5C239.6 48.7 239.6 49 239.4 49.4C238.4 51.9 235.6 53.8 231.8 53.8C226.7 53.8 222.6 49.8 222.6 43.3ZM234.3 40.1C235.1 40.1 235.5 39.8 235.5 39.1C235.5 36.9 234.4 34.8 231.6 34.8C228.9 34.8 226.9 36.7 226.7 40.1H234.3Z" fill="#14A800"/>
<path d="M244.8 47.9001C246.5 47.9001 247.8 49.2001 247.8 50.9001C247.8 52.6001 246.5 53.8001 244.8 53.8001C243.2 53.8001 241.9 52.5001 241.9 50.9001C241.8 49.2001 243.1 47.9001 244.8 47.9001ZM242 28.3001C242 26.5001 242.9 25.1001 244.8 25.1001C246.7 25.1001 247.6 26.5001 247.6 28.3001C247.6 30.2001 246.3 39.8001 245.4 45.0001C245.3 45.8001 244.4 45.8001 244.3 45.0001C243.3 39.7001 242 30.2001 242 28.3001Z" fill="#14A800"/>
</g>
<defs>
<clipPath id="clip0_377:2808">
<rect width="290.8" height="82" fill="white"/>
</clipPath>
</defs>
</svg>
