<svg width="405" height="80" viewBox="0 0 405 80" fill="none" xmlns="http://www.w3.org/2000/svg">
<g clip-path="url(#clip0_377:2757)">
<path d="M202.1 1.90006C244.1 1.70006 287 3.00006 320.4 5.20006C354.1 7.40006 378.3 10.5001 390.7 14.0001C403.4 17.5001 404.4 21.5001 399.9 25.8001C395.7 30.1001 385.9 34.7001 385.1 39.7001C385.9 44.7001 395.7 49.3001 399.9 53.6001C404.5 57.9001 403.5 61.8001 390.7 65.4001C378.3 68.9001 354.1 72.0001 320.4 74.2001C287 76.4001 244.1 77.8001 202.1 77.5001C160.1 77.7001 117.2 76.4001 83.8001 74.2001C50.1001 72.0001 25.9001 68.9001 13.5001 65.4001C0.800062 61.8001 -0.199938 57.8001 4.40006 53.6001C8.60006 49.3001 18.4001 44.7001 19.2001 39.7001C18.4001 34.7001 8.60006 30.1001 4.40006 25.8001C-0.199938 21.5001 0.800062 17.6001 13.6001 14.0001C26.0001 10.5001 50.2001 7.40006 83.9001 5.20006C117.2 3.00006 160.1 1.70006 202.1 1.90006Z" fill="white"/>
<path d="M211 79.4001C208 79.4001 205 79.4001 202.1 79.4001C162.1 79.6001 118.9 78.4001 83.7 76.1001C50.2 73.9001 25.7 70.8 13 67.2001C4.99998 64.9 0.999979 62.3001 0.0999786 59.0001C-0.400021 56.8001 0.499979 54.5001 2.99998 52.1001C4.49998 50.5001 6.69998 49.0001 8.99998 47.3001C12.5 44.8001 16.5 42.0001 17.2 39.6001C16.5 37.2001 12.6 34.4001 8.99998 31.9001C6.69998 30.3001 4.49998 28.7001 2.89998 27.1001C0.499979 24.8001 -0.500021 22.5001 -2.1413e-05 20.3001C0.999979 17.0001 4.99998 14.5001 13 12.3001C25.7 8.70005 50.1 5.60005 83.7 3.40005C118.9 1.00005 162.1 -0.199945 202.1 5.48009e-05C242.1 -0.199945 285.3 1.00005 320.5 3.30005C354 5.50005 378.5 8.60005 391.2 12.2001C399.2 14.4001 403.3 17.0001 404.1 20.3001C404.6 22.5001 403.7 24.8001 401.2 27.2001C399.7 28.8001 397.5 30.3001 395.2 32.0001C391.7 34.5001 387.7 37.3001 387 39.7001C387.7 42.1001 391.6 44.9001 395.2 47.4001C397.5 49.0001 399.7 50.6001 401.3 52.2001C403.7 54.5001 404.7 56.8001 404.2 59.0001C403.4 62.3001 399.3 64.9001 391.3 67.1001C378.6 70.7001 354.2 73.8001 320.6 76.0001C287.9 78.2001 248.5 79.4001 211 79.4001ZM202.1 75.6001C242.1 75.8 285.1 74.6001 320.3 72.3001C353.6 70.1001 377.7 67.1001 390.2 63.5001C398.9 61.1001 400.3 58.9001 400.5 58.1001C400.7 57.1001 399.6 55.8001 398.6 54.8001C397.2 53.4001 395.1 51.9001 392.9 50.4001C388.4 47.2001 383.8 43.9001 383.1 39.9001V39.6001V39.3001C383.8 35.3001 388.4 32.0001 392.8 28.8001C395 27.2001 397 25.8001 398.4 24.4001C399.4 23.4001 400.6 22.1001 400.3 21.1001C400.1 20.3001 398.7 18.1001 390 15.7001C377.5 12.2001 353.4 9.10005 320.1 6.90005C285 4.60005 241.9 3.40005 201.9 3.60005C161.9 3.40005 118.9 4.60005 83.7 6.90005C50.7 9.30005 26.5 12.3001 14 15.8001C5.39998 18.2001 3.99998 20.4001 3.79998 21.2001C3.59998 22.2001 4.69998 23.5001 5.69998 24.5001C7.09998 25.9001 9.19998 27.4001 11.4 28.9001C15.9 32.1001 20.5 35.4001 21.1 39.4001V39.7001V40.0001C20.4 44.0001 15.8 47.3001 11.4 50.5001C9.19998 52.0001 7.19998 53.5001 5.79998 54.9001C4.79998 55.9001 3.59998 57.2001 3.89998 58.2001C3.99998 59.0001 5.39998 61.1001 14 63.5001C26.5 67.0001 50.6 70.1001 83.9 72.3001C119.1 74.6001 162.1 75.8 202.1 75.6001Z" fill="#97922D"/>
<path d="M54 37.5002C54 29.0002 59.5 23.2002 67.4 23.2002C73 23.2002 77.4 26.1002 77.4 30.1002C77.4 32.0002 76.4 33.3002 74.5 33.3002C72.8 33.3002 71.6 32.1002 71.6 30.1002C71.6 29.5002 71.7 28.8002 71.7 28.3002C71.7 26.4002 70.2 25.1002 67.3 25.1002C62.2 25.1002 58.5 29.0002 58.5 35.8002C58.5 42.8002 62.3 47.7002 68.5 47.7002C73.4 47.7002 75.7 44.7002 76.9 44.7002C77.2 44.7002 77.5 44.9002 77.5 45.4002C77.5 46.4002 76.6 47.9002 75.5 49.0002C73.8 50.7002 71.1 51.9002 67.5 51.9002C59.3 52.0002 54 45.9002 54 37.5002Z" fill="#97922D"/>
<path d="M78.6999 50.7C78.6999 49.7 80.4999 49.7 80.4999 48.7V28.5C80.4999 27.1 78.3999 27.4 78.3999 26.3C78.3999 26 78.5999 25.7 78.9999 25.5L83.3999 23.3C84.0999 23 84.7999 23.1 84.7999 24V33.6C87.2999 32.2 90.2999 31 92.7999 31C95.8999 31 97.2999 32.9 97.2999 36.3V48.7C97.2999 49.7 99.0999 49.7 99.0999 50.7C99.0999 51 98.7999 51.4 98.2999 51.4H91.9999C91.4999 51.4 91.1999 51.1 91.1999 50.7C91.1999 49.7 92.9999 49.7 92.9999 48.7V38.3C92.9999 35.3 92.0999 34.1 89.5999 34.1C88.1999 34.1 86.4999 34.5 84.6999 35.3V48.7C84.6999 49.7 86.3999 49.7 86.3999 50.7C86.3999 51 86.0999 51.4 85.5999 51.4H79.3999C78.9999 51.4 78.6999 51.1 78.6999 50.7Z" fill="#97922D"/>
<path d="M101.5 46.0002V36.6002C101.5 35.1002 99.2998 35.5002 99.2998 34.4002C99.2998 34.1002 99.4998 33.8002 99.8998 33.6002L104.3 31.3002C105.1 30.9002 105.7 31.2002 105.7 32.0002V45.1002C105.7 48.0002 106.6 49.3002 109.3 49.3002C110.6 49.3002 112 49.0002 113.7 47.9002V36.6002C113.7 35.1002 111.5 35.5002 111.5 34.3002C111.5 34.0002 111.7 33.8002 112.2 33.5002L116.6 31.3002C117.5 30.9002 118 31.2002 118 32.0002V47.0002C118 48.5002 120.2 48.1002 120.2 49.2002C120.2 49.5002 120 49.8002 119.6 50.0002L115.2 51.9002C114.4 52.2002 113.8 52.0002 113.8 51.2002V49.8002C111.8 51.3002 109.5 52.1002 107.1 52.1002C103.7 52.0002 101.5 50.1002 101.5 46.0002ZM109 25.0002C110 23.8002 110.7 23.2002 111.7 23.2002C112.9 23.2002 113.7 24.1002 113.7 25.2002C113.7 26.1002 113.1 26.9002 111.7 27.5002L107.5 29.4002C106.5 29.8002 105.6 28.8002 106.4 27.8002L109 25.0002Z" fill="#97922D"/>
<path d="M120.6 41.7001C120.6 35.3001 124.6 31.1001 130.2 31.1001C134.1 31.1001 137.5 33.2001 137.5 36.3001C137.5 37.8001 136.6 39.2001 134.9 39.2001C133.4 39.2001 132.3 38.1001 132.3 36.4001C132.3 35.8001 132.4 35.2001 132.4 34.7001C132.4 33.5001 131.7 32.9001 130 32.9001C126.7 32.9001 124.4 35.1001 124.4 40.0001C124.4 45.1001 127 48.4001 131.6 48.4001C135.1 48.4001 136 46.5001 136.8 46.5001C137.1 46.5001 137.3 46.7001 137.3 47.2001C137.3 49.1001 134.3 52.1001 129.8 52.1001C124.7 52.0001 120.6 48.0001 120.6 41.7001Z" fill="#97922D"/>
<path d="M160.1 50.7C160.1 49.7 161.9 49.7 161.9 48.8V38.2C161.9 35.2 160.9 34.1 158.5 34.1C157.1 34.1 155.4 34.4 153.6 35.3V48.8C153.6 49.7 155.4 49.7 155.4 50.7C155.4 51 155.1 51.4 154.6 51.4H148.4C147.9 51.4 147.6 51.1 147.6 50.7C147.6 49.7 149.4 49.7 149.4 48.8V36.4C149.4 35 147.3 35.3 147.3 34.2C147.3 33.9 147.5 33.6 147.9 33.4L152.2 31.2C152.9 30.9 153.6 31 153.6 31.9V33.6C156.1 32 159.1 31 161.4 31C164.6 31 166.1 32.8 166.1 36.1V48.8C166.1 49.7 167.8 49.7 167.8 50.7C167.8 51 167.5 51.4 167 51.4H160.8C160.4 51.4 160.1 51.1 160.1 50.7Z" fill="#97922D"/>
<path d="M168.4 54.0001C168.4 52.4001 169.8 50.6001 173.4 49.5001L172.9 49.4001C170.6 49.1001 169.5 47.7001 169.5 46.4001C169.5 45.0001 170.7 43.9001 172.6 43.4001C170.4 42.3001 168.9 40.4001 168.9 38.0001C168.9 34.1001 172.7 31.6001 177.3 31.6001H185.9C186.6 31.6001 186.7 32.4001 186.1 32.7001L184 33.7001C183.7 33.9001 183.6 34.2001 183.8 34.5001C184.6 35.4001 185.1 36.7001 185.1 38.0001C185.1 41.8001 181.4 44.3001 177.1 44.3001C176.3 44.3001 175.6 44.2001 175 44.1001C173.2 43.8001 172.8 45.8001 174.6 46.1001L180.7 47.0001C185 47.6001 186.5 49.7001 186.5 52.1001C186.5 55.8001 182.8 58.1001 176.4 58.1001C171.1 58.2001 168.4 56.3001 168.4 54.0001ZM177.4 56.7001C180.7 56.7001 182.5 55.2001 182.5 53.1001C182.5 51.9001 181.9 50.7001 178.9 50.3001L175.4 49.8001C173.3 50.7001 172.7 52.2001 172.7 53.4001C172.7 55.4001 174.2 56.7001 177.4 56.7001ZM177.1 42.6001C179.5 42.6001 180.7 41.1001 180.7 38.2001V37.6001C180.7 34.9001 179.4 33.3001 177.1 33.3001C174.7 33.3001 173.4 34.9001 173.4 37.6001V38.2001C173.4 41.1001 174.7 42.6001 177.1 42.6001Z" fill="#97922D"/>
<path d="M186.9 41.5001C186.9 35.2001 191.1 31.1001 196.7 31.1001C202.3 31.1001 206.5 35.2001 206.5 41.5001C206.5 47.8001 202.3 51.9001 196.7 51.9001C191.1 52.0001 186.9 47.8001 186.9 41.5001ZM196.7 50.1001C199.8 50.1001 201.6 47.5001 201.6 42.7001V40.3001C201.6 35.2001 199.8 32.9001 196.7 32.9001C193.6 32.9001 191.8 35.2001 191.8 40.3001V42.7001C191.7 47.5001 193.6 50.1001 196.7 50.1001Z" fill="#97922D"/>
<path d="M220.2 50.7C220.2 49.7 222 49.7 222 48.8V38.2C222 35.2 221 34.1 218.6 34.1C217.2 34.1 215.5 34.4 213.7 35.3V48.8C213.7 49.7 215.5 49.7 215.5 50.7C215.5 51 215.2 51.4 214.7 51.4H208.5C208 51.4 207.7 51.1 207.7 50.7C207.7 49.7 209.5 49.7 209.5 48.8V36.4C209.5 35 207.4 35.3 207.4 34.2C207.4 33.9 207.6 33.6 208 33.4L212.3 31.2C213 30.9 213.7 31 213.7 31.9V33.6C216.2 32 219.2 31 221.5 31C224.7 31 226.2 32.8 226.2 36.1V48.8C226.2 49.7 227.9 49.7 227.9 50.7C227.9 51 227.6 51.4 227.1 51.4H221C220.5 51.4 220.2 51.1 220.2 50.7Z" fill="#97922D"/>
<path d="M261.8 50.7C261.8 49.7 263.6 49.7 263.6 48.8V38C263.6 34.9 262.6 33.7 260 33.7C258.6 33.7 257.3 34 255.7 34.8C255.8 35.4 255.9 36 255.9 36.8V48.9C255.9 49.8 257.7 49.8 257.7 50.8C257.7 51.1 257.4 51.5 256.9 51.5H250.7C250.2 51.5 249.8 51.2 249.8 50.8C249.8 49.8 251.6 49.8 251.6 48.9V38C251.6 34.9 250.6 33.7 248.1 33.7C246.8 33.7 245.5 34 244 34.8V48.8C244 49.7 245.7 49.7 245.7 50.7C245.7 51 245.4 51.4 244.9 51.4H238.7C238.2 51.4 237.9 51.1 237.9 50.7C237.9 49.7 239.7 49.7 239.7 48.8V36.4C239.7 35 237.6 35.3 237.6 34.2C237.6 33.9 237.8 33.6 238.3 33.3L242.6 31.2C243.4 30.8 244 31.1 244 31.9V33.1C246.4 31.7 248.6 31 250.9 31C253 31 254.5 31.7 255.2 33.3C257.5 31.8 260.2 31 262.7 31C265.9 31 267.7 32.5 267.7 36.7V48.8C267.7 49.7 269.5 49.7 269.5 50.7C269.5 51 269.2 51.4 268.7 51.4H262.5C262.1 51.4 261.8 51.1 261.8 50.7Z" fill="#97922D"/>
<path d="M271.1 50.7C271.1 49.7 272.9 49.7 272.9 48.7V36.4C272.9 35 270.7 35.4 270.7 34.2C270.7 33.9 270.9 33.6 271.3 33.4L275.6 31.2C276.5 30.8 277 31.1 277 31.9V48.6C277 49.6 278.8 49.6 278.8 50.6C278.8 50.9 278.4 51.3 277.9 51.3H271.7C271.4 51.4 271.1 51.1 271.1 50.7ZM274.8 24C276.3 24 277.5 25.2 277.5 26.6C277.5 28 276.3 29.2 274.8 29.2C273.3 29.2 272.1 28.1 272.1 26.6C272.1 25.1 273.3 24 274.8 24Z" fill="#97922D"/>
<path d="M282.9 42.6001C283 47.2001 285.9 49.1001 289.3 49.1001C291.7 49.1001 293.2 48.7001 294.5 48.1001L295.1 50.5001C293.9 51.0001 291.9 51.7001 288.9 51.7001C283.1 51.7001 279.7 47.9001 279.7 42.3001C279.7 36.7001 283 32.2001 288.5 32.2001C294.6 32.2001 296.2 37.6001 296.2 41.0001C296.2 41.7001 296.1 42.2001 296.1 42.6001H282.9ZM292.8 40.2001C292.8 38.0001 291.9 34.7001 288.1 34.7001C284.7 34.7001 283.2 37.9001 282.9 40.2001H292.8ZM289 24.6001L292.7 30.1001H290.1L287.9 26.4001H287.8L285.6 30.1001H283L286.6 24.6001H289ZM289.8 56.4001C289.8 57.5001 289 58.4001 287.8 58.4001C286.7 58.4001 285.9 57.5001 285.9 56.4001C285.9 55.3001 286.8 54.4001 287.9 54.4001C288.9 54.5001 289.8 55.4001 289.8 56.4001Z" fill="#97922D"/>
<path d="M309.5 50.7C309.5 49.7 311.3 49.7 311.3 48.8V38.2C311.3 35.2 310.3 34.1 307.9 34.1C306.5 34.1 304.8 34.4 303 35.3V48.8C303 49.7 304.8 49.7 304.8 50.7C304.8 51 304.5 51.4 304 51.4H297.8C297.3 51.4 297 51.1 297 50.7C297 49.7 298.8 49.7 298.8 48.8V36.4C298.8 35 296.7 35.3 296.7 34.2C296.7 33.9 296.9 33.6 297.3 33.4L301.6 31.2C302.3 30.9 303 31 303 31.9V33.6C305.5 32 308.5 31 310.8 31C314 31 315.5 32.8 315.5 36.1V48.8C315.5 49.7 317.2 49.7 317.2 50.7C317.2 51 316.9 51.4 316.4 51.4H310.2C309.8 51.4 309.5 51.1 309.5 50.7Z" fill="#97922D"/>
<path d="M317.8 54.0001C317.8 52.4001 319.2 50.6001 322.8 49.5001L322.3 49.4001C320 49.1001 318.9 47.7001 318.9 46.4001C318.9 45.0001 320.1 43.9001 322 43.4001C319.8 42.3001 318.3 40.4001 318.3 38.0001C318.3 34.1001 322.1 31.6001 326.7 31.6001H335.3C336 31.6001 336.1 32.4001 335.5 32.7001L333.4 33.7001C333.1 33.9001 333 34.2001 333.2 34.5001C334 35.4001 334.5 36.7001 334.5 38.0001C334.5 41.8001 330.8 44.3001 326.5 44.3001C325.7 44.3001 325 44.2001 324.4 44.1001C322.6 43.8001 322.2 45.8001 324 46.1001L330.1 47.0001C334.4 47.6001 335.9 49.7001 335.9 52.1001C335.9 55.8001 332.2 58.1001 325.8 58.1001C320.5 58.2001 317.8 56.3001 317.8 54.0001ZM326.8 56.7001C330.1 56.7001 331.9 55.2001 331.9 53.1001C331.9 51.9001 331.3 50.7001 328.3 50.3001L324.8 49.8001C322.7 50.7001 322.1 52.2001 322.1 53.4001C322 55.4001 323.5 56.7001 326.8 56.7001ZM326.5 42.6001C328.9 42.6001 330.1 41.1001 330.1 38.2001V37.6001C330.1 34.9001 328.8 33.3001 326.5 33.3001C324.1 33.3001 322.8 34.9001 322.8 37.6001V38.2001C322.8 41.1001 324.1 42.6001 326.5 42.6001Z" fill="#97922D"/>
<path d="M340.4 46.0002C342.1 46.0002 343.4 47.3002 343.4 49.0002C343.4 50.7002 342.1 51.9002 340.4 51.9002C338.8 51.9002 337.5 50.6002 337.5 49.0002C337.4 47.3002 338.7 46.0002 340.4 46.0002ZM337.6 26.4002C337.6 24.6002 338.5 23.2002 340.4 23.2002C342.3 23.2002 343.2 24.6002 343.2 26.4002C343.2 28.3002 341.9 37.9002 341 43.1002C340.9 43.9002 340 43.9002 339.9 43.1002C338.9 37.9002 337.6 28.3002 337.6 26.4002Z" fill="#97922D"/>
</g>
<defs>
<clipPath id="clip0_377:2757">
<rect width="404.2" height="79.4" fill="white"/>
</clipPath>
</defs>
</svg>
