<?xml version="1.0" encoding="utf-8"?>
<!-- Generator: Adobe Illustrator 24.2.0, SVG Export Plug-In . SVG Version: 6.00 Build 0)  -->
<svg version="1.1" id="Layer_1" xmlns="http://www.w3.org/2000/svg" xmlns:xlink="http://www.w3.org/1999/xlink" x="0px" y="0px"
	 viewBox="0 0 165.6 91.2" style="enable-background:new 0 0 165.6 91.2;" xml:space="preserve">
<style type="text/css">
	.st0{clip-path:url(#SVGID_2_);}
	.st1{fill:#FFB7A8;}
	.st2{fill:#14A800;}
	.st3{fill:#B23D1A;}
	.st4{fill:#FF4B25;}
	.st5{fill:#FFFFFF;}
	.st6{fill:#001E00;}
</style>
<g>
	<g>
		<g>
			<defs>
				<path id="SVGID_1_" d="M45.6,0L45.6,0c25.2,0,45.6,20.4,45.6,45.6v0c0,25.2-20.4,45.6-45.6,45.6h0C20.4,91.2,0,70.8,0,45.6v0
					C0,20.4,20.4,0,45.6,0z"/>
			</defs>
			<clipPath id="SVGID_2_">
				<use xlink:href="#SVGID_1_"  style="overflow:visible;"/>
			</clipPath>
			<g class="st0">
				<path class="st1" d="M92.5,100.5c-0.8,0-1.7,0-2.5,0H90c-11-0.4-21.6-3.6-30.9-9.5c-3.5-2.1-6.9-4.5-10.1-7.1L39.3,143h114.3
					V38.7C153.6,74.2,126.5,100.5,92.5,100.5z"/>
				<path class="st1" d="M71.1-19.9h-52c3.6,14.6,8.2,30.3,14.5,42C37.8,4.4,50.1-12.9,71.1-19.9z"/>
				<path class="st2" d="M-57.1,76.3c19.1,0,28.8-15.8,28.8-37.2v-59h-58.6l-0.2,59C-87.1,60.5-76.2,76.3-57.1,76.3z"/>
				<path class="st3" d="M-1.1-0.6v39.6c0,36.2-23,61.5-56,61.5c-16.6,0-30.9-6.1-41.4-17.5c-10.1-11.1-15.7-26.7-15.7-44v104H11.5
					l14.7-83.5C10.5,37.6,2.3,12.5-1.1-0.6z"/>
				<path class="st2" d="M112.8-19.9c23.9,8.2,40.8,30.6,40.8,58.7v-58.7H112.8z"/>
				<path class="st3" d="M92.5,1.2c-19.3,0-33.9,12.6-38.8,52.5c3.9,6.3,17.8,22.6,38.8,22.6c19.1,0,33.9-15.2,33.9-37.5
					C126.4,16.4,111.6,1.2,92.5,1.2z"/>
				<path class="st4" d="M112.8-19.9H71.1c-21,7.1-33.3,24.3-37.5,42c-6.2-11.7-10.8-27.4-14.5-42H-3.3h-25v59
					c0,21.4-9.7,37.2-28.8,37.2s-30-15.8-30-37.2l0.2-59h-27.3v59c0,17.2,5.6,32.8,15.7,44c10.5,11.5,24.8,17.5,41.4,17.5
					c33,0,56-25.3,56-61.5V-0.6c3.5,13,11.6,38.1,27.3,60.1L11.5,143h27.8L49,83.8c3.2,2.6,6.5,5,10.1,7.1
					c9.3,5.9,19.9,9.2,30.9,9.5H90c0.8,0,1.6,0,2.5,0c34,0,61.1-26.3,61.1-61.8C153.6,10.7,136.6-11.8,112.8-19.9z M92.5,76.2
					c-21,0-35-16.2-38.8-22.6c5-39.9,19.6-52.5,38.8-52.5c19.1,0,33.9,15.2,33.9,37.5C126.4,60.9,111.6,76.2,92.5,76.2z"/>
			</g>
		</g>
		<path class="st5" d="M63.9,54.7c-5.2,0-8.6-4-9.6-5.5c1.2-9.8,4.8-12.9,9.6-12.9c4.7,0,8.3,3.7,8.3,9.2S68.6,54.7,63.9,54.7
			 M63.9,30.2c-8.4,0-13.2,5.5-14.5,11.2c-1.5-2.9-2.7-6.7-3.6-10.3h-5.5h-6.1v14.5c0,5.3-2.4,9.2-7.1,9.2s-7.4-3.9-7.4-9.2
			l0.1-14.5H13v14.5c0,4.2,1.4,8.1,3.9,10.8c2.6,2.8,6.1,4.3,10.2,4.3c8.1,0,13.8-6.2,13.8-15.1v-9.7c0.9,3.2,2.9,9.4,6.7,14.8
			l-3.6,20.5h6.8l2.4-14.6c0.8,0.6,1.6,1.2,2.5,1.8c2.3,1.4,4.9,2.3,7.6,2.3h0c0.2,0,0.4,0,0.6,0c8.4,0,15-6.5,15-15.2
			C78.9,36.8,72.2,30.2,63.9,30.2"/>
	</g>
	<g>
		<g>
			<path class="st6" d="M119.1,39.1c0,3.6-2.1,6.3-6.6,6.3c-3.3,0-5.8-2-5.8-4.9c0-2.2,1.2-3.2,2.8-4.4c1.6-1.1,2.7-2,2.7-4.6h2.7
				c0,2.8-1,4.2-2.6,5.5c-1.2,1.1-2.5,1.6-2.5,3.4c0,1.3,1.1,2.3,2.9,2.3c2.1,0,3.5-1,3.5-3.8H119.1z M115.1,27.9
				c0,1-0.7,1.7-1.7,1.7c-0.9,0-1.7-0.7-1.7-1.7c0-1,0.7-1.7,1.7-1.7C114.4,26.3,115.1,26.9,115.1,27.9z"/>
			<path class="st6" d="M135.5,38.9l2.1,2.1l-1.8,1.8l-2.2-2.2c-1.4,0.9-3.1,1.4-5.1,1.4c-5.6,0-9.1-4.1-9.1-9.7
				c0-5.6,3.5-9.7,9.1-9.7c5.6,0,9.1,4.1,9.1,9.7C137.6,34.9,136.8,37.2,135.5,38.9z M131.6,38.6l-2.5-2.5l1.8-1.8l2.5,2.5
				c0.8-1.2,1.1-2.8,1.1-4.4c0-3.7-1.8-7-6-7c-4.3,0-6.1,3.3-6.1,7c0,3.8,1.8,7,6.1,7C129.7,39.4,130.7,39.1,131.6,38.6z"/>
			<path class="st6" d="M148.4,28.4h2.7v13.3h-2.7V40h-0.1c-0.7,1-2.1,2.1-4.4,2.1c-2.5,0-4.4-1.4-4.4-4.5v-9.2h2.8v8.4
				c0,1.8,0.8,2.9,2.6,2.9c2.1,0,3.5-1.3,3.5-3.2V28.4z"/>
			<path class="st6" d="M162.6,37.6h2.7c-0.7,2.5-2.7,4.4-6.1,4.4c-4.1,0-6.7-2.9-6.7-7c0-4.3,2.5-7,6.5-7c4.3,0,6.4,3,6.4,7.7
				h-10.2c0,2.2,1.4,4.1,3.8,4.1C161.5,39.8,162.4,38.4,162.6,37.6z M155.4,33.7h7.5c0-2.1-1.5-3.5-3.7-3.5S155.4,31.7,155.4,33.7z
				 M162.3,22.9l-2.2,3.4H158l1.1-3.4H162.3z"/>
			<path class="st6" d="M128,67.7v-16h-6v-2.6h15v2.6h-5.9v16H128z"/>
			<path class="st6" d="M140.5,56.2c-2.2,0-3,0.7-3.1,2.4h-2.7c0.1-2.5,1.8-4.5,5.8-4.5c2.9,0,5.1,1.1,5.1,4.7V65
				c0,0.9,0.2,1.4,1.3,1.3v1.3c-0.6,0.2-1.1,0.3-1.6,0.3c-1.5,0-2.1-0.5-2.4-1.8h-0.1c-0.8,1.2-2.3,2-4.4,2c-2.7,0-4.4-1.6-4.4-3.8
				c0-2.9,2.2-3.8,5.5-4.5c2.1-0.4,3.3-0.7,3.3-1.9C142.9,56.9,142.3,56.2,140.5,56.2z M142.9,62.6v-2c-0.4,0.3-1.5,0.6-2.8,0.9
				c-2.3,0.5-3.3,1.1-3.3,2.5c0,1.2,0.7,1.9,2.2,1.9C141.4,65.9,142.9,64.8,142.9,62.6z"/>
			<path class="st6" d="M148.2,49.1h2.8v18.6h-2.8V49.1z"/>
			<path class="st6" d="M152.2,55c0-3.6,2.1-6.3,6.6-6.3c3.3,0,5.8,2,5.8,4.9c0,2.2-1.2,3.2-2.8,4.4c-1.6,1.1-2.7,2-2.7,4.6h-2.7
				c0-2.8,1-4.2,2.6-5.5c1.2-1.1,2.5-1.6,2.5-3.4c0-1.3-1.1-2.3-2.9-2.3c-2.1,0-3.5,1-3.5,3.8H152.2z M156.2,66.2
				c0-1,0.7-1.7,1.7-1.7c0.9,0,1.7,0.7,1.7,1.7c0,1-0.7,1.7-1.7,1.7C156.9,67.9,156.2,67.2,156.2,66.2z"/>
		</g>
	</g>
</g>
</svg>
