<?xml version="1.0" encoding="utf-8"?>
<!-- Generator: Adobe Illustrator 24.2.0, SVG Export Plug-In . SVG Version: 6.00 Build 0)  -->
<svg version="1.1" id="Layer_1" xmlns="http://www.w3.org/2000/svg" xmlns:xlink="http://www.w3.org/1999/xlink" x="0px" y="0px"
	 viewBox="0 0 202.9 91.2" style="enable-background:new 0 0 202.9 91.2;" xml:space="preserve">
<style type="text/css">
	.st0{fill:#001E00;}
	.st1{fill:#95DF00;}
</style>
<g>
	<g>
		<g>
			<path class="st0" d="M122,34.4c0,4.1-2.3,6.7-7.4,6.7c-5.2,0-7.3-2.7-7.3-6.7V22.1h3.1v12.3c0,2.8,1.4,4.1,4.2,4.1
				c2.9,0,4.3-1.3,4.3-4.1V22.1h3.1V34.4z"/>
			<path class="st0" d="M136.9,34.1c0,4.4-2.5,7-5.9,7c-2.1,0-3.4-1-4.1-2h-0.1v6.1H124V27.4h2.8V29h0.1c0.7-0.9,2-1.9,4.1-1.9
				C134.4,27.1,136.9,29.7,136.9,34.1z M134.1,34.1c0-2.6-1.3-4.8-3.7-4.8c-2.2,0-3.6,1.8-3.6,4.8c0,2.9,1.4,4.8,3.6,4.8
				C132.8,38.9,134.1,36.7,134.1,34.1z"/>
			<path class="st0" d="M138.9,40.7V22.1h4l5.2,14.3h0.1l5.2-14.3h4v18.6h-3V26.6h-0.1l-4.9,14.1h-2.5L142,26.6h-0.1v14.1H138.9z"/>
			<path class="st0" d="M160.4,22.1h3.1v18.6h-3.1V22.1z"/>
			<path class="st0" d="M166.5,40.7V22.1h3.5l8.4,14h0.1v-14h3.1v18.6h-3.4l-8.4-13.9h-0.1v13.9C169.7,40.7,166.5,40.7,166.5,40.7z"
				/>
			<path class="st0" d="M183.9,40.7V22.1h7.2c5.1,0,8.3,3.3,8.3,9.3s-3,9.3-8.2,9.3H183.9z M187,24.7V38h4c4.2,0,5.3-3.1,5.3-6.7
				s-1.2-6.7-5.3-6.7h-4V24.7z"/>
		</g>
		<g>
			<path class="st0" d="M106.7,57.5v-9.3h2l2.6,7.2l0,0l2.6-7.2h2v9.3h-1.5v-7l0,0l-2.5,7h-1.2l-2.5-7l0,0v7H106.7z"/>
			<path class="st0" d="M122.1,55.5h1.4c-0.3,1.3-1.3,2.2-3,2.2c-2.1,0-3.3-1.4-3.3-3.5c0-2.2,1.3-3.5,3.3-3.5
				c2.1,0,3.2,1.5,3.2,3.9h-5.1c0,1.1,0.7,2,1.9,2C121.6,56.6,122,55.9,122.1,55.5z M118.5,53.5h3.7c0-1-0.7-1.8-1.8-1.8
				C119.3,51.8,118.5,52.5,118.5,53.5z"/>
			<path class="st0" d="M130.3,52.9v4.6h-1.4v-4.2c0-0.9-0.4-1.5-1.3-1.5c-1.1,0-1.7,0.6-1.7,1.6v4h-1.4v-6.6h1.4v0.9l0,0
				c0.4-0.5,1-1,2.2-1S130.3,51.4,130.3,52.9z"/>
			<path class="st0" d="M134.6,52h-1.2v3.6c0,0.8,0.4,0.8,1.2,0.8v1.1c-0.3,0.1-0.6,0.1-0.9,0.1c-1.1,0-1.7-0.5-1.7-1.9V52h-1v-1.1
				h1v-2.1h1.4v2.1h1.2V52z"/>
			<path class="st0" d="M138.5,51.8c-1.1,0-1.5,0.3-1.6,1.2h-1.3c0.1-1.3,0.9-2.3,2.9-2.3c1.5,0,2.6,0.6,2.6,2.3v3.2
				c0,0.5,0.1,0.7,0.6,0.7v0.7c-0.3,0.1-0.5,0.1-0.8,0.1c-0.7,0-1.1-0.3-1.2-0.9l0,0c-0.4,0.6-1.2,1-2.2,1c-1.4,0-2.2-0.8-2.2-1.9
				c0-1.5,1.1-1.9,2.7-2.2c1-0.2,1.7-0.3,1.7-1C139.7,52.1,139.4,51.8,138.5,51.8z M139.7,55v-1c-0.2,0.2-0.8,0.3-1.4,0.4
				c-1.1,0.2-1.6,0.6-1.6,1.2c0,0.6,0.4,0.9,1.1,0.9C138.9,56.6,139.7,56.1,139.7,55z"/>
			<path class="st0" d="M142.5,48.2h1.4v9.3h-1.4V48.2z"/>
			<path class="st0" d="M147.8,48.2h1.5v9.3h-1.5V48.2z"/>
			<path class="st0" d="M156.6,52.9v4.6h-1.4v-4.2c0-0.9-0.4-1.5-1.3-1.5c-1.1,0-1.7,0.6-1.7,1.6v4h-1.4v-6.6h1.4v0.9l0,0
				c0.4-0.5,1-1,2.2-1S156.6,51.4,156.6,52.9z"/>
			<path class="st0" d="M162.4,53.3c-0.1-0.7-0.5-1.5-1.7-1.5c-1.3,0-1.9,1.1-1.9,2.4s0.6,2.4,1.9,2.4c1.2,0,1.6-0.8,1.7-1.5h1.4
				c-0.1,1.5-1.3,2.7-3,2.7c-2,0-3.3-1.4-3.3-3.5s1.3-3.5,3.3-3.5c1.7,0,2.9,1.1,3,2.6h-1.4V53.3z"/>
			<path class="st0" d="M164.7,48.2h1.4v9.3h-1.4V48.2z"/>
			<path class="st0" d="M171.8,50.9h1.4v6.6h-1.4v-0.9l0,0c-0.4,0.5-1,1-2.2,1s-2.2-0.7-2.2-2.2v-4.6h1.4V55c0,0.9,0.4,1.5,1.3,1.5
				c1.1,0,1.7-0.6,1.7-1.6V50.9z"/>
			<path class="st0" d="M179.9,55.6c0,1.3-1.1,2.1-2.7,2.1c-2.1,0-3.1-1-3.1-2.4h1.3c0.1,0.7,0.4,1.3,1.8,1.3c0.9,0,1.4-0.5,1.4-0.9
				c0-0.8-0.8-0.9-1.8-1.1c-1.1-0.2-2.5-0.5-2.5-2c0-1.1,1-2,2.6-2c1.8,0,2.7,1,2.8,2.1h-1.3c-0.1-0.5-0.4-1.1-1.4-1.1
				c-0.8,0-1.3,0.3-1.3,0.8c0,0.7,0.7,0.7,1.7,0.9C178.6,53.8,179.9,54.1,179.9,55.6z"/>
			<path class="st0" d="M180.8,49c0-0.5,0.4-0.7,0.8-0.7c0.4,0,0.8,0.2,0.8,0.7s-0.4,0.7-0.8,0.7C181.2,49.8,180.8,49.5,180.8,49z
				 M180.9,50.9h1.4v6.6h-1.4V50.9z"/>
			<path class="st0" d="M183,50.9h1.4l1.7,5.2l0,0l1.7-5.2h1.4l-2.4,6.6h-1.5L183,50.9z"/>
			<path class="st0" d="M189.9,49c0-0.5,0.4-0.7,0.8-0.7c0.4,0,0.8,0.2,0.8,0.7s-0.4,0.7-0.8,0.7C190.3,49.8,189.9,49.5,189.9,49z
				 M190,50.9h1.4v6.6H190V50.9z"/>
			<path class="st0" d="M195.9,52h-1.2v3.6c0,0.8,0.4,0.8,1.2,0.8v1.1c-0.3,0.1-0.6,0.1-0.9,0.1c-1.1,0-1.7-0.5-1.7-1.9V52h-1v-1.1
				h1v-2.1h1.4v2.1h1.2V52z"/>
			<path class="st0" d="M202.9,50.9l-2.7,7.1c-0.4,1-0.8,1.8-2.1,1.8c-0.4,0-0.7-0.1-1-0.1v-1h0.1c0.6,0.1,1,0,1.3-0.3
				c0.2-0.3,0.4-0.8,0.2-1.4l-2.4-6h1.5l1.9,5.1l0,0l1.7-5.1L202.9,50.9L202.9,50.9z"/>
			<path class="st0" d="M114,70.9h-1.7l-0.6-0.8c-0.6,0.6-1.5,0.9-2.5,0.9c-1.9,0-2.9-1.1-2.9-2.5s1-2.1,2-2.7
				c-0.7-0.8-1.1-1.4-1.1-2.3c0-1.1,0.8-2.2,2.4-2.2c1.5,0,2.4,1.1,2.4,2.2s-0.7,1.7-1.9,2.4l1.7,2.1c0.2-0.5,0.4-1.1,0.5-1.7h1.3
				c-0.1,0.9-0.4,1.9-0.9,2.7L114,70.9z M111,69.1l-2-2.5c-0.8,0.5-1.2,1.1-1.2,1.8c0,0.7,0.5,1.3,1.6,1.3
				C110,69.8,110.5,69.5,111,69.1z M108.5,63.7c0,0.5,0.4,1,0.9,1.6c0.8-0.5,1.2-0.9,1.2-1.6c0-0.6-0.4-1-1.1-1
				C108.9,62.7,108.5,63.1,108.5,63.7z"/>
			<path class="st0" d="M117.2,70.9v-9.3h1.7l4.2,7l0,0v-7h1.5v9.3H123l-4.2-7l0,0v7C118.8,70.9,117.2,70.9,117.2,70.9z"/>
			<path class="st0" d="M131,68.8h1.4c-0.3,1.3-1.3,2.2-3,2.2c-2.1,0-3.3-1.4-3.3-3.5c0-2.2,1.3-3.5,3.3-3.5c2.1,0,3.2,1.5,3.2,3.9
				h-5.1c0,1.1,0.7,2,1.9,2C130.4,70,130.8,69.2,131,68.8z M127.3,66.9h3.7c0-1-0.7-1.8-1.8-1.8C128.1,65.1,127.3,65.9,127.3,66.9z"
				/>
			<path class="st0" d="M137.7,64.2h1.4v6.6h-1.4V70l0,0c-0.4,0.5-1,1-2.2,1s-2.2-0.7-2.2-2.2v-4.6h1.4v4.2c0,0.9,0.4,1.5,1.3,1.5
				c1.1,0,1.7-0.6,1.7-1.6V64.2z"/>
			<path class="st0" d="M144.2,64.1v1.3l0,0c-1.3-0.2-2.4,0.7-2.4,2.1v3.4h-1.4v-6.6h1.4v1.2l0,0c0.4-0.8,0.9-1.4,1.8-1.4
				C143.8,64.1,144,64.1,144.2,64.1z"/>
			<path class="st0" d="M147.8,71.1c-2.1,0-3.3-1.4-3.3-3.5s1.3-3.5,3.3-3.5s3.3,1.4,3.3,3.5S149.9,71.1,147.8,71.1z M147.8,70
				c1.3,0,2-1,2-2.4s-0.7-2.4-2-2.4s-2,1-2,2.4C145.8,68.9,146.5,70,147.8,70z"/>
			<path class="st0" d="M156.8,61.6h1.4v9.3h-1.4v-0.8l0,0c-0.4,0.5-1,1-2,1c-1.7,0-3-1.3-3-3.5s1.3-3.5,3-3.5c1,0,1.7,0.5,2,1l0,0
				V61.6z M156.7,67.6c0-1.5-0.7-2.4-1.8-2.4c-1.2,0-1.8,1.1-1.8,2.4s0.6,2.4,1.8,2.4C156.1,70,156.7,69,156.7,67.6z"/>
			<path class="st0" d="M159.3,62.4c0-0.5,0.4-0.7,0.8-0.7c0.4,0,0.8,0.2,0.8,0.7s-0.4,0.7-0.8,0.7
				C159.7,63.1,159.3,62.9,159.3,62.4z M159.4,64.2h1.4v6.6h-1.4V64.2z"/>
			<path class="st0" d="M161.5,64.2h1.4l1.7,5.2l0,0l1.7-5.2h1.4l-2.4,6.6h-1.5L161.5,64.2z"/>
			<path class="st0" d="M172.9,68.8h1.4c-0.3,1.3-1.3,2.2-3,2.2c-2.1,0-3.3-1.4-3.3-3.5c0-2.2,1.3-3.5,3.3-3.5
				c2.1,0,3.2,1.5,3.2,3.9h-5.1c0,1.1,0.7,2,1.9,2C172.3,70,172.8,69.2,172.9,68.8z M169.3,66.9h3.7c0-1-0.7-1.8-1.8-1.8
				C170.1,65.1,169.3,65.9,169.3,66.9z"/>
			<path class="st0" d="M179.1,64.1v1.3l0,0c-1.3-0.2-2.4,0.7-2.4,2.1v3.4h-1.4v-6.6h1.4v1.2l0,0c0.4-0.8,0.9-1.4,1.8-1.4
				C178.7,64.1,178.9,64.1,179.1,64.1z"/>
			<path class="st0" d="M185.4,69c0,1.3-1.1,2.1-2.7,2.1c-2.1,0-3.1-1-3.1-2.4h1.3c0.1,0.7,0.4,1.3,1.8,1.3c0.9,0,1.4-0.5,1.4-0.9
				c0-0.8-0.8-0.9-1.8-1.1c-1.1-0.2-2.5-0.5-2.5-2c0-1.1,1-2,2.6-2c1.8,0,2.7,1,2.8,2.1h-1.3c-0.1-0.5-0.4-1.1-1.4-1.1
				c-0.8,0-1.3,0.3-1.3,0.8c0,0.7,0.7,0.7,1.7,0.9C184,67.1,185.4,67.4,185.4,69z"/>
			<path class="st0" d="M186.3,62.4c0-0.5,0.4-0.7,0.8-0.7c0.4,0,0.8,0.2,0.8,0.7s-0.4,0.7-0.8,0.7
				C186.7,63.1,186.3,62.9,186.3,62.4z M186.4,64.2h1.4v6.6h-1.4V64.2z"/>
			<path class="st0" d="M192.3,65.3H191v3.6c0,0.8,0.4,0.8,1.2,0.8v1.1c-0.3,0.1-0.6,0.1-0.9,0.1c-1.1,0-1.7-0.5-1.7-1.9v-3.7h-1
				v-1.1h1v-2.1h1.4v2.1h1.2v1.1H192.3z"/>
			<path class="st0" d="M199.2,64.2l-2.7,7.1c-0.4,1-0.8,1.8-2.1,1.8c-0.4,0-0.7-0.1-1-0.1v-1h0.1c0.6,0.1,1,0,1.3-0.3
				c0.2-0.3,0.4-0.8,0.2-1.4l-2.4-6h1.5l1.9,5.1l0,0l1.7-5.1L199.2,64.2L199.2,64.2z"/>
		</g>
	</g>
	<g>
		<path class="st0" d="M71.8,8.3C64.4,3.1,55.4,0,45.6,0l0,0c-0.6,0-1.3,0-1.9,0c-6.3,0.3-12.2,1.8-17.6,4.3
			c-8.2,4-15.1,10.2-19.7,18C2.3,29.1,0,37.1,0,45.6c0,16.5,8.7,30.9,21.8,38.9c6.9,4.2,15.1,6.7,23.8,6.7l0,0c0.7,0,1.5,0,2.2-0.1
			c3.2-0.2,6.3-0.6,9.2-1.4c9.5-2.5,17.8-7.9,23.8-15.3c6.4-7.9,10.3-17.9,10.3-28.9C91.2,30.2,83.5,16.6,71.8,8.3z"/>
		<path class="st1" d="M73.3,34.8c-2.9-2.9-6.7-4.5-10.8-4.5s-7.9,1.6-10.8,4.5l0,0L34.8,51.7c-3.4,3.4-8.8,3.4-12.2,0
			s-3.4-8.8,0-12.2s8.8-3.4,12.2,0l0,0l4.1,4.1l4.7-4.7l-4.1-4.1l0,0c-6-6-15.7-6-21.6,0c-6,6-6,15.7,0,21.6c3,3,6.9,4.5,10.8,4.5
			s7.8-1.5,10.8-4.5l16.9-16.9l0,0c1.6-1.6,3.8-2.5,6.1-2.5c2.3,0,4.5,0.9,6.1,2.5c3.4,3.4,3.4,8.8,0,12.2c-1.6,1.6-3.8,2.5-6.1,2.5
			c-2.3,0-4.5-0.9-6.1-2.5l0,0l-4.1-4.1l-4.7,4.7l4.1,4.1l0,0c2.9,2.9,6.7,4.5,10.8,4.5s7.9-1.6,10.8-4.5
			C79.3,50.5,79.3,40.7,73.3,34.8z"/>
	</g>
</g>
</svg>
