<?xml version="1.0" encoding="utf-8"?>
<!-- Generator: Adobe Illustrator 24.2.0, SVG Export Plug-In . SVG Version: 6.00 Build 0)  -->
<svg version="1.1" id="Layer_1" xmlns="http://www.w3.org/2000/svg" xmlns:xlink="http://www.w3.org/1999/xlink" x="0px" y="0px"
	 viewBox="0 0 189.4 91.2" style="enable-background:new 0 0 189.4 91.2;" xml:space="preserve">
<style type="text/css">
	.st0{fill:#E31B23;}
	.st1{fill:#00853F;}
	.st2{fill:#FFFFFF;}
	.st3{fill:#001E00;}
</style>
<g>
	<g>
		<g>
			<path class="st0" d="M45.6,0C26.9,0,10.9,11.2,3.8,27.3h83.5C80.3,11.2,64.3,0,45.6,0z"/>
			<path d="M0,45.6c0,6.5,1.4,12.6,3.8,18.2h83.6c2.4-5.6,3.8-11.7,3.8-18.2s-1.4-12.7-3.8-18.3H3.8C1.4,32.9,0,39.1,0,45.6z"/>
			<path class="st1" d="M45.6,91.2c18.7,0,34.8-11.3,41.8-27.4H3.8C10.8,79.9,26.9,91.2,45.6,91.2z"/>
		</g>
		<path class="st2" d="M63.9,54.6c-5.2,0-8.6-4-9.6-5.5c1.2-9.8,4.8-12.9,9.6-12.9c4.7,0,8.3,3.7,8.3,9.2S68.6,54.6,63.9,54.6
			 M63.9,30.1c-8.4,0-13.2,5.5-14.5,11.2c-1.5-2.9-2.7-6.7-3.6-10.3h-5.5h-6.1v14.5c0,5.3-2.4,9.2-7.1,9.2s-7.4-3.9-7.4-9.2L19.8,31
			H13v14.5c0,4.2,1.4,8.1,3.9,10.8c2.6,2.8,6.1,4.3,10.2,4.3c8.1,0,13.8-6.2,13.8-15.1v-9.7c0.9,3.2,2.9,9.4,6.7,14.8L43.9,71h6.8
			l2.4-14.6c0.8,0.6,1.6,1.2,2.5,1.8c2.3,1.4,4.9,2.3,7.6,2.3l0,0c0.2,0,0.4,0,0.6,0c8.4,0,15-6.5,15-15.2
			C78.9,36.6,72.2,30.1,63.9,30.1"/>
	</g>
	<g>
		<path class="st3" d="M117.1,20.9L117.1,20.9c1.7,0.3,3.2,1.6,3.2,4.1c0,3.2-2.2,4.8-5.6,4.8h-7.4V13.4h7.1c3.4,0,5.3,1.5,5.3,4.1
			C119.6,19.5,118.4,20.5,117.1,20.9z M110,20.2h4.2c2,0,2.7-0.8,2.7-2.2s-0.9-2.3-2.5-2.3H110V20.2z M110,22.2v5.3h4.5
			c2.3,0,3.1-1.1,3.1-2.6c0-1.7-1-2.6-2.8-2.6L110,22.2L110,22.2z"/>
		<path class="st3" d="M122,13.4h2.4v16.4H122V13.4z"/>
		<path class="st3" d="M131.4,19.6c-1.9,0-2.6,0.6-2.8,2.1h-2.3c0.1-2.3,1.6-4,5.1-4c2.6,0,4.5,1,4.5,4.1v5.6c0,0.8,0.2,1.3,1.1,1.2
			v1.1c-0.6,0.2-0.9,0.3-1.4,0.3c-1.3,0-1.9-0.5-2.1-1.6l0,0c-0.7,1-2.1,1.7-3.9,1.7c-2.4,0-3.9-1.4-3.9-3.4c0-2.6,1.9-3.4,4.9-4
			c1.8-0.3,2.9-0.6,2.9-1.7C133.5,20.3,133,19.6,131.4,19.6z M133.5,25.3v-1.8c-0.4,0.3-1.3,0.6-2.5,0.8c-2,0.4-2.9,1-2.9,2.2
			c0,1.1,0.6,1.7,2,1.7C132.1,28.2,133.5,27.2,133.5,25.3z"/>
		<path class="st3" d="M146.1,22.3c-0.1-1.2-0.9-2.6-2.9-2.6c-2.4,0-3.4,2-3.4,4.2s1,4.2,3.4,4.2c2.1,0,2.8-1.4,2.9-2.7h2.4
			c-0.2,2.7-2.3,4.7-5.3,4.7c-3.5,0-5.8-2.5-5.8-6.2s2.3-6.2,5.8-6.2c3.1,0,5.1,2,5.4,4.6C148.6,22.3,146.1,22.3,146.1,22.3z"/>
		<path class="st3" d="M149.9,13.4h2.4v9.4l4.8-4.7h3l-4.5,4.4l4.9,7.4h-2.9l-3.7-5.8l-1.6,1.5v4.3h-2.4V13.4z"/>
		<path class="st3" d="M107.3,36.4h2.7v16.4h-2.7V36.4z"/>
		<path class="st3" d="M122.6,44.7v8.1h-2.4v-7.4c0-1.6-0.7-2.6-2.3-2.6c-1.9,0-3.1,1.1-3.1,2.9v7.2h-2.4V41h2.4v1.5l0,0
			c0.6-0.9,1.8-1.8,3.9-1.8C120.9,40.7,122.6,42,122.6,44.7z"/>
		<path class="st3" d="M124.4,37.8c0-0.8,0.7-1.3,1.4-1.3c0.7,0,1.4,0.4,1.4,1.3c0,0.8-0.7,1.3-1.4,1.3S124.4,38.6,124.4,37.8z
			 M124.6,41h2.4v11.8h-2.4V41z"/>
		<path class="st3" d="M134.4,43h-2.2v6.4c0,1.3,0.6,1.5,2.2,1.4v2c-0.5,0.1-1,0.2-1.7,0.2c-1.9,0-3-0.9-3-3.4V43H128v-2h1.7v-3.7
			h2.4V41h2.2v2H134.4z"/>
		<path class="st3" d="M135.6,37.8c0-0.8,0.7-1.3,1.4-1.3s1.4,0.4,1.4,1.3c0,0.8-0.7,1.3-1.4,1.3S135.6,38.6,135.6,37.8z M135.7,41
			h2.4v11.8h-2.4V41z"/>
		<path class="st3" d="M145.2,42.6c-1.9,0-2.6,0.6-2.8,2.1h-2.3c0.1-2.3,1.6-4,5.1-4c2.6,0,4.5,1,4.5,4.1v5.6c0,0.8,0.2,1.3,1.1,1.2
			v1.1c-0.6,0.2-0.9,0.3-1.4,0.3c-1.3,0-1.9-0.5-2.1-1.6l0,0c-0.7,1-2.1,1.7-3.9,1.7c-2.4,0-3.9-1.4-3.9-3.4c0-2.6,1.9-3.4,4.9-4
			c1.8-0.3,2.9-0.6,2.9-1.7C147.3,43.3,146.8,42.6,145.2,42.6z M147.3,48.3v-1.8c-0.4,0.3-1.3,0.6-2.5,0.8c-2,0.4-2.9,1-2.9,2.2
			c0,1.1,0.6,1.7,2,1.7C145.9,51.2,147.3,50.2,147.3,48.3z"/>
		<path class="st3" d="M157.1,43h-2.2v6.4c0,1.3,0.6,1.5,2.2,1.4v2c-0.5,0.1-1,0.2-1.7,0.2c-1.9,0-3-0.9-3-3.4V43h-1.7v-2h1.7v-3.7
			h2.4V41h2.2v2H157.1z"/>
		<path class="st3" d="M158.2,37.8c0-0.8,0.7-1.3,1.4-1.3s1.4,0.4,1.4,1.3c0,0.8-0.7,1.3-1.4,1.3S158.2,38.6,158.2,37.8z M158.4,41
			h2.4v11.8h-2.4V41z"/>
		<path class="st3" d="M161.7,41h2.6l3,9.2l0,0l3-9.2h2.6l-4.2,11.8H166L161.7,41z"/>
		<path class="st3" d="M181.4,49.2h2.4c-0.6,2.2-2.3,3.9-5.4,3.9c-3.7,0-5.9-2.5-5.9-6.2c0-3.8,2.2-6.2,5.8-6.2
			c3.8,0,5.7,2.6,5.7,6.8h-9c0,2,1.3,3.6,3.4,3.6C180.3,51.2,181.1,49.9,181.4,49.2z M174.9,45.8h6.6c0-1.8-1.3-3.1-3.2-3.1
			C176.3,42.6,174.9,43.9,174.9,45.8z"/>
		<path class="st3" d="M107.2,75.8V59.4h3.1l7.4,12.3l0,0V59.4h2.7v16.4h-3L110,63.5l0,0v12.3H107.2z"/>
		<path class="st3" d="M131.1,72.2h2.4c-0.6,2.2-2.3,3.9-5.4,3.9c-3.7,0-5.9-2.5-5.9-6.2c0-3.8,2.2-6.2,5.8-6.2
			c3.8,0,5.7,2.6,5.7,6.8h-9c0,2,1.3,3.6,3.4,3.6C130.1,74.2,130.9,72.9,131.1,72.2z M124.7,68.8h6.6c0-1.8-1.3-3.1-3.2-3.1
			C126.1,65.6,124.7,66.9,124.7,68.8z"/>
		<path class="st3" d="M140.3,66h-2.2v6.4c0,1.3,0.6,1.5,2.2,1.4v2c-0.5,0.1-1,0.2-1.7,0.2c-1.9,0-3-0.9-3-3.4V66h-1.7v-2h1.7v-3.7
			h2.4V64h2.2v2H140.3z"/>
		<path class="st3" d="M140.8,64h2.6l2.4,8.9l0,0l2.4-8.9h2.4l2.4,9l0,0l2.4-8.9h2.6l-3.6,11.8H152l-2.5-9l0,0l-2.5,9h-2.4L140.8,64
			z"/>
		<path class="st3" d="M163.8,76.1c-3.7,0-5.9-2.6-5.9-6.2s2.2-6.2,5.9-6.2s5.9,2.6,5.9,6.2S167.5,76.1,163.8,76.1z M163.8,74.2
			c2.3,0,3.5-1.8,3.5-4.2c0-2.4-1.2-4.2-3.5-4.2s-3.5,1.8-3.5,4.2C160.3,72.3,161.5,74.2,163.8,74.2z"/>
		<path class="st3" d="M177.7,63.8v2.3l0,0c-2.3-0.4-4.2,1.2-4.2,3.7v6h-2.4V64h2.4v2.2l0,0c0.6-1.5,1.6-2.5,3.1-2.5
			C177.1,63.8,177.4,63.8,177.7,63.8z"/>
		<path class="st3" d="M178.7,59.4h2.4v9.4l4.8-4.7h3l-4.5,4.4l4.9,7.4h-2.9l-3.7-5.8l-1.6,1.5v4.3h-2.4V59.4z"/>
	</g>
</g>
</svg>
