<?xml version="1.0" encoding="utf-8"?>
<!-- Generator: Adobe Illustrator 24.2.0, SVG Export Plug-In . SVG Version: 6.00 Build 0)  -->
<svg version="1.1" id="Layer_1" xmlns="http://www.w3.org/2000/svg" xmlns:xlink="http://www.w3.org/1999/xlink" x="0px" y="0px"
	 viewBox="0 0 195.4 91.2" style="enable-background:new 0 0 195.4 91.2;" xml:space="preserve">
<style type="text/css">
	.st0{clip-path:url(#SVGID_2_);}
	.st1{fill:#D5C4F1;}
	.st2{fill:#14A800;}
	.st3{fill:#4B446D;}
	.st4{fill:#966BDB;}
	.st5{fill:#FFFFFF;}
	.st6{fill:#001E00;}
</style>
<g>
	<g>
		<g>
			<g>
				<defs>
					<path id="SVGID_1_" d="M45.6,0L45.6,0c25.2,0,45.6,20.4,45.6,45.6l0,0c0,25.2-20.4,45.6-45.6,45.6l0,0C20.4,91.2,0,70.8,0,45.6
						l0,0C0,20.4,20.4,0,45.6,0z"/>
				</defs>
				<clipPath id="SVGID_2_">
					<use xlink:href="#SVGID_1_"  style="overflow:visible;"/>
				</clipPath>
				<g class="st0">
					<path class="st1" d="M92.5,100.5c-0.8,0-1.7,0-2.5,0l0,0c-11-0.4-21.6-3.6-30.9-9.5c-3.5-2.1-6.9-4.5-10.1-7.1L39.3,143h114.3
						V38.7C153.6,74.2,126.5,100.5,92.5,100.5z"/>
					<path class="st1" d="M71.1-19.9h-52c3.6,14.6,8.2,30.3,14.5,42C37.8,4.4,50.1-12.9,71.1-19.9z"/>
					<path class="st2" d="M-57.1,76.3c19.1,0,28.8-15.8,28.8-37.2v-59h-58.6l-0.2,59C-87.1,60.5-76.2,76.3-57.1,76.3z"/>
					<path class="st3" d="M-1.1-0.6V39c0,36.2-23,61.5-56,61.5c-16.6,0-30.9-6.1-41.4-17.5c-10.1-11.1-15.7-26.7-15.7-44v104H11.5
						l14.7-83.5C10.5,37.6,2.3,12.5-1.1-0.6z"/>
					<path class="st2" d="M112.8-19.9c23.9,8.2,40.8,30.6,40.8,58.7v-58.7C153.6-19.9,112.8-19.9,112.8-19.9z"/>
					<path class="st3" d="M92.5,1.2c-19.3,0-33.9,12.6-38.8,52.5c3.9,6.3,17.8,22.6,38.8,22.6c19.1,0,33.9-15.2,33.9-37.5
						C126.4,16.4,111.6,1.2,92.5,1.2z"/>
					<path class="st4" d="M112.8-19.9H71.1c-21,7.1-33.3,24.3-37.5,42c-6.2-11.7-10.8-27.4-14.5-42H-3.3h-25v59
						c0,21.4-9.7,37.2-28.8,37.2s-30-15.8-30-37.2l0.2-59h-27.3v59c0,17.2,5.6,32.8,15.7,44c10.5,11.5,24.8,17.5,41.4,17.5
						c33,0,56-25.3,56-61.5V-0.6c3.5,13,11.6,38.1,27.3,60.1L11.5,143h27.8L49,83.8c3.2,2.6,6.5,5,10.1,7.1
						c9.3,5.9,19.9,9.2,30.9,9.5l0,0c0.8,0,1.6,0,2.5,0c34,0,61.1-26.3,61.1-61.8C153.6,10.7,136.6-11.8,112.8-19.9z M92.5,76.2
						c-21,0-35-16.2-38.8-22.6c5-39.9,19.6-52.5,38.8-52.5c19.1,0,33.9,15.2,33.9,37.5S111.6,76.2,92.5,76.2z"/>
				</g>
			</g>
		</g>
		<path class="st5" d="M63.9,54.7c-5.2,0-8.6-4-9.6-5.5c1.2-9.8,4.8-12.9,9.6-12.9c4.7,0,8.3,3.7,8.3,9.2S68.6,54.7,63.9,54.7
			 M63.9,30.2c-8.4,0-13.2,5.5-14.5,11.2c-1.5-2.9-2.7-6.7-3.6-10.3h-5.5h-6.1v14.5c0,5.3-2.4,9.2-7.1,9.2s-7.4-3.9-7.4-9.2
			l0.1-14.5H13v14.5c0,4.2,1.4,8.1,3.9,10.8c2.6,2.8,6.1,4.3,10.2,4.3c8.1,0,13.8-6.2,13.8-15.1v-9.7c0.9,3.2,2.9,9.4,6.7,14.8
			L44,71.2h6.8l2.4-14.6c0.8,0.6,1.6,1.2,2.5,1.8c2.3,1.4,4.9,2.3,7.6,2.3l0,0c0.2,0,0.4,0,0.6,0c8.4,0,15-6.5,15-15.2
			C78.9,36.8,72.2,30.2,63.9,30.2"/>
	</g>
	<g>
		<path class="st6" d="M119.9,24.2c0,3.6-1.8,6-6.4,6s-6.5-2.4-6.5-6V13.4h2.7v10.8c0,2.5,1.2,3.6,3.7,3.6s3.8-1.1,3.8-3.6V13.4h2.7
			V24.2L119.9,24.2z"/>
		<path class="st6" d="M133.5,23.9c0,3.9-2.2,6.2-5.2,6.2c-1.8,0-3-0.9-3.6-1.7l0,0v5.4h-2.4V18h2.4v1.4l0,0
			c0.6-0.8,1.8-1.7,3.6-1.7C131.3,17.7,133.5,20.1,133.5,23.9z M131.1,23.9c0-2.3-1.1-4.2-3.2-4.2c-2,0-3.2,1.6-3.2,4.2
			s1.2,4.2,3.2,4.2C129.9,28.2,131.1,26.2,131.1,23.9z"/>
		<path class="st6" d="M133.5,18h2.6l2.4,8.9l0,0l2.4-8.9h2.4l2.4,8.9l0,0l2.4-8.9h2.6L147,29.8h-2.4l-2.5-9l0,0l-2.5,9h-2.4
			L133.5,18z"/>
		<path class="st6" d="M156.4,30.1c-3.7,0-5.9-2.6-5.9-6.2s2.2-6.2,5.9-6.2s5.9,2.6,5.9,6.2S160.1,30.1,156.4,30.1z M156.4,28.2
			c2.3,0,3.5-1.8,3.5-4.2s-1.2-4.2-3.5-4.2s-3.5,1.8-3.5,4.2C152.9,26.3,154.1,28.2,156.4,28.2z"/>
		<path class="st6" d="M170.4,17.8v2.3l0,0c-2.3-0.4-4.2,1.2-4.2,3.7v6h-2.4V18h2.4v2.2l0,0c0.6-1.5,1.6-2.5,3.1-2.5
			C169.7,17.8,170,17.8,170.4,17.8z"/>
		<path class="st6" d="M171.4,13.4h2.4v9.4l4.8-4.7h3l-4.5,4.4l4.9,7.4h-2.9l-3.7-5.8l-1.6,1.5v4.3h-2.4V13.4z"/>
		<path class="st6" d="M106.1,36.4h2.8l2.8,12.7l0,0l3.3-12.7h2.8l3.3,12.7l0,0l2.8-12.7h2.8l-4.1,16.4h-2.9l-3.4-12.9l0,0
			l-3.4,12.9H110L106.1,36.4z"/>
		<path class="st6" d="M132.6,53.1c-3.7,0-5.9-2.6-5.9-6.2s2.2-6.2,5.9-6.2s5.9,2.6,5.9,6.2S136.2,53.1,132.6,53.1z M132.6,51.2
			c2.3,0,3.5-1.8,3.5-4.2s-1.2-4.2-3.5-4.2s-3.5,1.8-3.5,4.2C129.1,49.3,130.3,51.2,132.6,51.2z"/>
		<path class="st6" d="M156.4,44.7v8.1H154v-7.4c0-1.6-0.3-2.6-2-2.6c-1.6,0-2.6,1.1-2.6,2.9v7.2H147v-7.4c0-1.6-0.3-2.6-2-2.6
			c-1.6,0-2.6,1.1-2.6,2.9V53H140V41h2.4v1.5l0,0c0.6-0.9,1.7-1.8,3.5-1.8c1.7,0,2.6,0.8,3.1,2l0,0c0.9-1.1,2-2,3.8-2
			C155.2,40.7,156.4,42.2,156.4,44.7z"/>
		<path class="st6" d="M166.6,49.2h2.4c-0.6,2.2-2.3,3.9-5.4,3.9c-3.7,0-5.9-2.5-5.9-6.2c0-3.8,2.2-6.2,5.8-6.2
			c3.8,0,5.7,2.6,5.7,6.8h-9c0,2,1.3,3.6,3.4,3.6C165.6,51.2,166.4,49.9,166.6,49.2z M160.2,45.8h6.6c0-1.8-1.3-3.1-3.2-3.1
			C161.6,42.6,160.2,43.9,160.2,45.8z"/>
		<path class="st6" d="M180.8,44.7v8.1h-2.4v-7.4c0-1.6-0.7-2.6-2.3-2.6c-1.9,0-3.1,1.1-3.1,2.9v7.2h-2.4V41h2.4v1.5l0,0
			c0.6-0.9,1.8-1.8,3.9-1.8C179.1,40.7,180.8,42,180.8,44.7z"/>
		<path class="st6" d="M182.1,37.7c0-1,0.7-1.5,1.5-1.5c1,0,1.6,0.8,1.6,2.1c0,1.7-0.8,3.6-2.8,3.9v-1.3c0.9-0.2,1.4-0.9,1.4-1.7
			C182.8,39.3,182.1,38.8,182.1,37.7z"/>
		<path class="st6" d="M195.4,49.5c0,2.3-1.9,3.7-4.8,3.7c-3.8,0-5.4-1.8-5.5-4.3h2.3c0.1,1.3,0.7,2.3,3.2,2.3
			c1.7,0,2.4-0.8,2.4-1.6c0-1.5-1.4-1.6-3.1-2c-1.9-0.4-4.4-0.8-4.4-3.5c0-1.9,1.7-3.5,4.6-3.5c3.2,0,4.7,1.7,4.9,3.8h-2.3
			c-0.2-0.9-0.6-1.9-2.5-1.9c-1.4,0-2.2,0.6-2.2,1.4c0,1.2,1.3,1.3,3,1.7C193,46.2,195.4,46.7,195.4,49.5z"/>
		<path class="st6" d="M118.7,64.5c-0.4-2-1.9-3.1-4.4-3.1c-3.5,0-5,3.1-5,6.2s1.1,6.2,4.9,6.2c2.6,0,4.7-1.8,4.7-4.4h-4.6v-2.2h7.4
			v8.6h-1.9l-0.6-2.3l0,0c-1.1,1.7-2.6,2.6-5.1,2.6c-4.8,0-7.4-3.6-7.4-8.6c0-4.9,3-8.6,7.7-8.6c4.3,0,6.6,2.3,7.1,5.5h-2.8V64.5z"
			/>
		<path class="st6" d="M130.6,63.8v2.3l0,0c-2.3-0.4-4.2,1.2-4.2,3.7v6H124V64h2.4v2.2l0,0c0.6-1.5,1.6-2.5,3.1-2.5
			C129.9,63.8,130.2,63.8,130.6,63.8z"/>
		<path class="st6" d="M136.7,76.1c-3.7,0-5.9-2.6-5.9-6.2s2.2-6.2,5.9-6.2s5.9,2.6,5.9,6.2S140.4,76.1,136.7,76.1z M136.7,74.2
			c2.3,0,3.5-1.8,3.5-4.2c0-2.4-1.2-4.2-3.5-4.2s-3.5,1.8-3.5,4.2C133.2,72.3,134.4,74.2,136.7,74.2z"/>
		<path class="st6" d="M151.8,64h2.4v11.8h-2.4v-1.5l0,0c-0.6,0.9-1.8,1.8-3.9,1.8c-2.2,0-3.9-1.3-3.9-4V64h2.4v7.4
			c0,1.6,0.7,2.6,2.3,2.6c1.9,0,3.1-1.1,3.1-2.9L151.8,64L151.8,64z"/>
		<path class="st6" d="M167.5,69.9c0,3.9-2.2,6.2-5.2,6.2c-1.8,0-3-0.9-3.6-1.7l0,0v5.4h-2.4V64h2.4v1.4l0,0
			c0.6-0.8,1.8-1.7,3.6-1.7C165.3,63.7,167.5,66.1,167.5,69.9z M165.1,69.9c0-2.3-1.1-4.2-3.2-4.2c-2,0-3.2,1.6-3.2,4.2
			s1.2,4.2,3.2,4.2C163.9,74.2,165.1,72.2,165.1,69.9z"/>
	</g>
</g>
</svg>
