<?xml version="1.0" encoding="utf-8"?>
<!-- Generator: Adobe Illustrator 24.2.0, SVG Export Plug-In . SVG Version: 6.00 Build 0)  -->
<svg version="1.1" id="Layer_1" xmlns="http://www.w3.org/2000/svg" xmlns:xlink="http://www.w3.org/1999/xlink" x="0px" y="0px"
	 viewBox="0 0 149.1 91.2" style="enable-background:new 0 0 149.1 91.2;" xml:space="preserve">
<style type="text/css">
	.st0{fill:none;}
	.st1{fill:#FF1E26;}
	.st2{fill:#FE941E;}
	.st3{fill:#FFFF01;}
	.st4{fill:#06BD01;}
	.st5{fill:#011A98;}
	.st6{fill:#760088;}
	.st7{fill:#75D7EE;}
	.st8{fill:#FFAFC8;}
	.st9{fill:#613915;}
	.st10{fill:#010101;}
	.st11{fill:#FFFFFF;}
	.st12{fill:#001E00;}
</style>
<g>
	<g>
		<g>
			<path class="st0" d="M87.4,27.3H3.8v0.1h83.6V27.3z"/>
			<path class="st0" d="M82.1,72.9h-73L9.2,73L82.1,72.9C82.1,73,82.1,72.9,82.1,72.9z"/>
			<path class="st1" d="M45.6,0C35.3,0,25.9,3.4,18.3,9.1H73C65.3,3.4,55.9,0,45.6,0z"/>
			<path class="st2" d="M72.9,9.1H18.3c-3.4,2.6-6.5,5.7-9.1,9.1h72.9C79.5,14.8,76.4,11.7,72.9,9.1z"/>
			<path class="st3" d="M82.1,18.2h-73C7,21,5.3,24.1,3.8,27.3h83.5C85.9,24.1,84.2,21,82.1,18.2z"/>
			<path class="st4" d="M87.4,27.4H3.8c-1.3,2.9-2.2,5.9-2.9,9.1h89.4C89.7,33.3,88.7,30.3,87.4,27.4z"/>
			<path class="st5" d="M90.3,36.5H0.9c-0.6,2.9-0.9,6-0.9,9.1h91.2C91.2,42.5,90.9,39.4,90.3,36.5z"/>
			<path class="st6" d="M91.2,45.6H0c0,3.1,0.3,6.2,0.9,9.1h89.4C90.9,51.8,91.2,48.7,91.2,45.6z"/>
			<path class="st7" d="M82.1,73h-73c2.6,3.4,5.7,6.5,9.1,9.1h54.7C76.4,79.5,79.5,76.4,82.1,73z"/>
			<path class="st8" d="M18.3,82.1c7.6,5.7,17.1,9.1,27.3,9.1s19.7-3.4,27.3-9.1H18.3z"/>
			<path class="st9" d="M87.4,63.8H3.8C5.2,67,7,70.1,9.1,72.9h73.1C84.2,70.1,86,67,87.4,63.8z"/>
			<path class="st10" d="M90.3,54.7H0.9c0.6,3.2,1.6,6.2,2.9,9.1h83.6C88.7,60.9,89.7,57.9,90.3,54.7z"/>
		</g>
		<path class="st11" d="M63.9,54.7c-5.2,0-8.6-4-9.6-5.5c1.2-9.8,4.8-12.9,9.6-12.9c4.7,0,8.3,3.7,8.3,9.2S68.6,54.7,63.9,54.7
			 M63.9,30.2c-8.4,0-13.2,5.5-14.5,11.2c-1.5-2.9-2.7-6.7-3.6-10.3h-5.5h-6.1v14.5c0,5.3-2.4,9.2-7.1,9.2s-7.4-3.9-7.4-9.2
			l0.1-14.5H13v14.5c0,4.2,1.4,8.1,3.9,10.8c2.6,2.8,6.1,4.3,10.2,4.3c8.1,0,13.8-6.2,13.8-15.1v-9.7c0.9,3.2,2.9,9.4,6.7,14.8
			L44,71.2h6.8l2.4-14.6c0.8,0.6,1.6,1.2,2.5,1.8c2.3,1.4,4.9,2.3,7.6,2.3l0,0c0.2,0,0.4,0,0.6,0c8.4,0,15-6.5,15-15.2
			C78.9,36.8,72.2,30.2,63.9,30.2"/>
	</g>
	<g>
		<path class="st12" d="M125.2,45.9h-4l-1.5-1.8c-1.5,1.4-3.5,2.3-6,2.3c-4.6,0-7-2.6-7-6c0-3.3,2.3-5.1,4.7-6.5
			c-1.6-1.9-2.6-3.4-2.6-5.5c0-2.6,1.9-5.3,5.7-5.3c3.6,0,5.7,2.7,5.7,5.3c0,2.5-1.7,4.1-4.6,5.8l4.1,4.9c0.6-1.3,1-2.6,1.2-4h3.1
			c-0.3,2.1-1,4.5-2.3,6.5L125.2,45.9z M117.8,41.7l-4.9-6c-1.9,1.3-2.8,2.7-2.8,4.3s1.3,3.2,3.8,3.2
			C115.5,43.3,116.8,42.7,117.8,41.7z M111.9,28.6c0,1.3,0.9,2.4,2.1,3.8c1.8-1.1,3-2.1,3-3.8c0-1.3-0.9-2.5-2.5-2.5
			C112.9,26.2,111.9,27.3,111.9,28.6z"/>
		<path class="st12" d="M114.4,68.2c-5,0-8-3.5-8-8.4s3-8.4,8-8.4s8,3.5,8,8.4S119.4,68.2,114.4,68.2z M114.4,65.5
			c3.1,0,4.8-2.5,4.8-5.8s-1.6-5.8-4.8-5.8c-3.1,0-4.8,2.4-4.8,5.8C109.6,63,111.3,65.5,114.4,65.5z"/>
		<path class="st12" d="M135.1,51.7h3.3v16h-3.3v-2.1H135c-0.8,1.3-2.5,2.5-5.3,2.5c-3,0-5.3-1.7-5.3-5.4v-11h3.3v10.1
			c0,2.2,0.9,3.5,3.2,3.5c2.5,0,4.2-1.5,4.2-3.9L135.1,51.7L135.1,51.7z"/>
		<path class="st12" d="M149.1,54.4h-3v8.7c0,1.8,0.9,2,3,1.9v2.7c-0.7,0.2-1.4,0.2-2.3,0.2c-2.6,0-4.1-1.2-4.1-4.6v-8.9h-2.3v-2.7
			h2.3v-5h3.3v5h3v2.7C149,54.4,149.1,54.4,149.1,54.4z"/>
	</g>
</g>
</svg>
