<?xml version="1.0" encoding="utf-8"?>
<!-- Generator: Adobe Illustrator 24.2.0, SVG Export Plug-In . SVG Version: 6.00 Build 0)  -->
<svg version="1.1" id="Layer_1" xmlns="http://www.w3.org/2000/svg" xmlns:xlink="http://www.w3.org/1999/xlink" x="0px" y="0px"
	 viewBox="0 0 191.4 91.2" style="enable-background:new 0 0 191.4 91.2;" xml:space="preserve">
<style type="text/css">
	.st0{clip-path:url(#SVGID_2_);}
	.st1{fill:#99EBE5;}
	.st2{fill:#14A800;}
	.st3{fill:#019885;}
	.st4{fill:#01CDBE;}
	.st5{fill:#FFFFFF;}
	.st6{fill:#001E00;}
</style>
<g>
	<g>
		<g>
			<g>
				<defs>
					<path id="SVGID_1_" d="M45.6,0L45.6,0c25.2,0,45.6,20.4,45.6,45.6l0,0c0,25.2-20.4,45.6-45.6,45.6l0,0C20.4,91.2,0,70.8,0,45.6
						l0,0C0,20.4,20.4,0,45.6,0z"/>
				</defs>
				<clipPath id="SVGID_2_">
					<use xlink:href="#SVGID_1_"  style="overflow:visible;"/>
				</clipPath>
				<g class="st0">
					<path class="st1" d="M92.5,100.5c-0.8,0-1.7,0-2.5,0l0,0c-11-0.4-21.6-3.6-30.9-9.5c-3.5-2.1-6.9-4.5-10.1-7.1L39.3,143h114.3
						V38.7C153.6,74.2,126.5,100.5,92.5,100.5z"/>
					<path class="st1" d="M71.1-19.9h-52c3.6,14.6,8.2,30.3,14.5,42C37.8,4.4,50.1-12.9,71.1-19.9z"/>
					<path class="st2" d="M-57.1,76.3c19.1,0,28.8-15.8,28.8-37.2v-59h-58.6l-0.2,59C-87.1,60.5-76.2,76.3-57.1,76.3z"/>
					<path class="st3" d="M-1.1-0.6V39c0,36.2-23,61.5-56,61.5c-16.6,0-30.9-6.1-41.4-17.5c-10.1-11.1-15.7-26.7-15.7-44v104H11.5
						l14.7-83.5C10.5,37.6,2.3,12.5-1.1-0.6z"/>
					<path class="st2" d="M112.8-19.9c23.9,8.2,40.8,30.6,40.8,58.7v-58.7C153.6-19.9,112.8-19.9,112.8-19.9z"/>
					<path class="st3" d="M92.5,1.2c-19.3,0-33.9,12.6-38.8,52.5c3.9,6.3,17.8,22.6,38.8,22.6c19.1,0,33.9-15.2,33.9-37.5
						C126.4,16.4,111.6,1.2,92.5,1.2z"/>
					<path class="st4" d="M112.8-19.9H71.1c-21,7.1-33.3,24.3-37.5,42c-6.2-11.7-10.8-27.4-14.5-42H-3.3h-25v59
						c0,21.4-9.7,37.2-28.8,37.2s-30-15.8-30-37.2l0.2-59h-27.3v59c0,17.2,5.6,32.8,15.7,44c10.5,11.5,24.8,17.5,41.4,17.5
						c33,0,56-25.3,56-61.5V-0.6c3.5,13,11.6,38.1,27.3,60.1L11.5,143h27.8L49,83.8c3.2,2.6,6.5,5,10.1,7.1
						c9.3,5.9,19.9,9.2,30.9,9.5l0,0c0.8,0,1.6,0,2.5,0c34,0,61.1-26.3,61.1-61.8C153.6,10.7,136.6-11.8,112.8-19.9z M92.5,76.2
						c-21,0-35-16.2-38.8-22.6c5-39.9,19.6-52.5,38.8-52.5c19.1,0,33.9,15.2,33.9,37.5S111.6,76.2,92.5,76.2z"/>
				</g>
			</g>
		</g>
	</g>
	<path class="st5" d="M63.9,54.7c-5.2,0-8.6-4-9.6-5.5c1.2-9.8,4.8-12.9,9.6-12.9c4.7,0,8.3,3.7,8.3,9.2S68.6,54.7,63.9,54.7
		 M63.9,30.2c-8.4,0-13.2,5.5-14.5,11.2c-1.5-2.9-2.7-6.7-3.6-10.3h-5.5h-6.1v14.5c0,5.3-2.4,9.2-7.1,9.2s-7.4-3.9-7.4-9.2l0.1-14.5
		H13v14.5c0,4.2,1.4,8.1,3.9,10.8c2.6,2.8,6.1,4.3,10.2,4.3c8.1,0,13.8-6.2,13.8-15.1v-9.7c0.9,3.2,2.9,9.4,6.7,14.8L44,71.2h6.8
		l2.4-14.6c0.8,0.6,1.6,1.2,2.5,1.8c2.3,1.4,4.9,2.3,7.6,2.3l0,0c0.2,0,0.4,0,0.6,0c8.4,0,15-6.5,15-15.2
		C78.9,36.8,72.2,30.2,63.9,30.2"/>
</g>
<g>
	<g>
		<path class="st6" d="M121.3,35.3c0,4.1-2.2,6.7-7.3,6.7c-5.2,0-7.3-2.7-7.3-6.7V23.1h3.1v12.2c0,2.8,1.4,4.1,4.2,4.1
			c2.9,0,4.3-1.3,4.3-4.1V23.1h3.1L121.3,35.3L121.3,35.3z"/>
		<path class="st6" d="M136.6,35c0,4.4-2.5,7-5.9,7c-2.1,0-3.4-1-4.1-2h-0.1v6.1h-2.8V28.4h2.8V30h0.1c0.7-0.9,2-1.9,4.1-1.9
			C134,28,136.6,30.7,136.6,35z M133.8,35c0-2.6-1.3-4.8-3.7-4.8c-2.2,0-3.6,1.8-3.6,4.8c0,2.9,1.4,4.8,3.6,4.8
			C132.5,39.8,133.8,37.6,133.8,35z"/>
		<path class="st6" d="M136.5,28.4h2.9l2.7,10.1h0.1l2.7-10.1h2.7l2.7,10.1h0.1l2.7-10.1h2.9l-4.1,13.3h-2.8l-2.9-10.1h-0.1
			l-2.8,10.1h-2.7L136.5,28.4z"/>
		<path class="st6" d="M162.4,42.1c-4.2,0-6.7-2.9-6.7-7s2.5-7,6.7-7s6.7,2.9,6.7,7C169.1,39.2,166.6,42.1,162.4,42.1z M162.4,39.8
			c2.6,0,4-2.1,4-4.8c0-2.8-1.4-4.8-4-4.8s-4,2-4,4.8C158.5,37.8,159.8,39.8,162.4,39.8z"/>
		<path class="st6" d="M178.2,28.2v2.6h-0.1c-2.6-0.4-4.7,1.3-4.7,4.2v6.8h-2.7V28.4h2.7v2.5h0.1c0.7-1.7,1.8-2.8,3.5-2.8
			C177.4,28.1,177.8,28.1,178.2,28.2z"/>
		<path class="st6" d="M179.3,23.1h2.7v10.6l5.4-5.3h3.4l-5,4.9l5.6,8.3H188l-4.2-6.6l-1.8,1.7v4.8h-2.7V23.1z"/>
		<path class="st6" d="M110,57.1h8v2.7h-8v7.9h-3.1V49.1h13v2.6H110V57.1z"/>
		<path class="st6" d="M126,56.2c-2.2,0-3,0.7-3.1,2.4h-2.7C120.4,56,122,54,126,54c2.9,0,5.1,1.1,5.1,4.7V65c0,0.9,0.2,1.4,1.3,1.3
			v1.3c-0.6,0.2-1.1,0.3-1.6,0.3c-1.5,0-2.1-0.5-2.4-1.8h-0.1c-0.8,1.2-2.3,2-4.4,2c-2.7,0-4.4-1.6-4.4-3.8c0-2.9,2.2-3.8,5.5-4.5
			c2.1-0.4,3.3-0.7,3.3-1.9C128.4,56.9,127.8,56.2,126,56.2z M128.4,62.6v-2c-0.4,0.3-1.5,0.6-2.8,0.9c-2.3,0.5-3.2,1.1-3.2,2.5
			c0,1.2,0.7,1.9,2.2,1.9C126.8,65.9,128.4,64.8,128.4,62.6z"/>
		<path class="st6" d="M152.3,58.5v9.2h-2.8v-8.4c0-1.8-0.4-2.9-2.2-2.9s-3,1.3-3,3.2v8.1h-2.8v-8.4c0-1.8-0.4-2.9-2.3-2.9
			c-1.8,0-3,1.3-3,3.2v8.1h-2.7V54.4h2.7v1.7h0.1c0.7-1,2-2.1,4-2.1c1.9,0,3,0.9,3.5,2.3h0.1c1-1.3,2.3-2.3,4.3-2.3
			C150.9,54,152.3,55.6,152.3,58.5z"/>
		<path class="st6" d="M154.4,50.7c0-0.9,0.8-1.4,1.5-1.4c0.8,0,1.6,0.5,1.6,1.4s-0.8,1.5-1.6,1.5C155.2,52.2,154.4,51.6,154.4,50.7
			z M154.6,54.4h2.7v13.3h-2.7V54.4z"/>
		<path class="st6" d="M159.6,49.1h2.8v18.6h-2.8V49.1z"/>
		<path class="st6" d="M176.3,54.4L171,68.5c-0.8,2.1-1.6,3.7-4.2,3.7c-0.8,0-1.4-0.1-2-0.3v-2.1h0.2c1.1,0.2,2,0.1,2.6-0.6
			c0.5-0.6,0.9-1.6,0.4-2.9l-4.8-11.9h2.9l3.7,10.2h0.1l3.4-10.2L176.3,54.4L176.3,54.4z"/>
	</g>
</g>
</svg>
